<svg xmlns="http://www.w3.org/2000/svg" width="131" height="29" fill="none" viewBox="0 0 131 29">
  <path fill="#fff" d="M54.738 15.653a3.083 3.083 0 01-.464 1.648 3.158 3.158 0 01-1.344 1.2c-.67.316-1.404.47-2.144.448a5.069 5.069 0 01-3.136-.928 3.363 3.363 0 01-1.344-2.592h2.912c.021.38.18.738.448 1.008.276.249.637.38 1.008.368a1.16 1.16 0 00.832-.288 1.009 1.009 0 00.3-.768.979.979 0 00-.288-.72 2 2 0 00-.688-.464 13.34 13.34 0 00-1.152-.448c-.6-.198-1.188-.432-1.76-.7a3.422 3.422 0 01-1.168-1.024 3.039 3.039 0 01-.48-1.775c-.015-.62.164-1.23.512-1.744a3.2 3.2 0 011.408-1.12 5.12 5.12 0 012.08-.4 4.612 4.612 0 012.992.9 3.409 3.409 0 011.264 2.464h-2.96a1.456 1.456 0 00-.416-.88 1.155 1.155 0 00-.88-.336 1.177 1.177 0 00-.784.256.953.953 0 00-.288.752 1 1 0 00.256.688c.194.19.422.341.672.447.267.118.65.267 1.152.449.61.196 1.205.442 1.776.735a3.32 3.32 0 011.184 1.04 3 3 0 01.5 1.784zm3.577-5.743l2.144 5.471 2-5.471h3.024l-5.568 13.184h-3.008l2.1-4.591-3.744-8.591 3.052-.002zm13.741-.1a3.064 3.064 0 012.431 1.028 4.08 4.08 0 01.913 2.815v5.184h-2.734v-4.862a1.922 1.922 0 00-.48-1.392 1.6 1.6 0 00-1.248-.511 1.732 1.732 0 00-1.328.527 2.157 2.157 0 00-.48 1.5v4.74h-2.739V9.912h2.736v1.627c.248-.522.644-.96 1.139-1.26a3.4 3.4 0 011.789-.463l.001-.006zm10.2 6.671v2.356h-1.228a3.6 3.6 0 01-2.448-.768 3.334 3.334 0 01-.864-2.576v-3.28h-1.2v-2.3h1.2v-2.2h2.736v2.193h1.792v2.3h-1.792v3.327c-.028.263.047.527.208.736.211.158.473.232.736.208l.86.004zm7.2-6.671a3.064 3.064 0 012.438 1.028c.645.791.97 1.796.912 2.815v5.184h-2.74v-4.862a1.922 1.922 0 00-.48-1.392 1.6 1.6 0 00-1.248-.511 1.732 1.732 0 00-1.328.527 2.157 2.157 0 00-.48 1.5v4.74H83.8V7h2.736v4.54c.247-.521.64-.96 1.132-1.26a3.401 3.401 0 011.8-.464l-.012-.006zm13.629 4.32a3.793 3.793 0 01-.08.735h-6.192a2.1 2.1 0 00.512 1.456c.323.293.748.448 1.184.432.36.015.715-.09 1.008-.3.26-.193.447-.47.528-.784h2.9a3.833 3.833 0 01-.768 1.7 4.201 4.201 0 01-1.5 1.168 4.834 4.834 0 01-2.032.416 4.9 4.9 0 01-2.336-.544 4 4 0 01-1.584-1.6 4.937 4.937 0 01-.576-2.432 5 5 0 01.56-2.432 3.877 3.877 0 011.6-1.583 4.787 4.787 0 012.336-.56 4.853 4.853 0 012.336.544 3.78 3.78 0 011.552 1.536c.382.689.574 1.467.557 2.255l-.005-.008zm-2.768-.417a1.608 1.608 0 00-.48-1.312 1.691 1.691 0 00-1.2-.447 1.792 1.792 0 00-1.248.447 1.878 1.878 0 00-.56 1.312h3.488zm7.442-3.92c.973-.05 1.931.252 2.7.849a3.665 3.665 0 011.28 2.24h-2.56a1.361 1.361 0 00-.512-.848 1.474 1.474 0 00-.976-.32 1.047 1.047 0 00-.7.207.68.68 0 00-.24.56.668.668 0 00.432.624c.449.185.915.325 1.392.416.571.128 1.132.295 1.68.5.442.163.834.439 1.136.8.337.425.508.958.48 1.5.008.486-.137.962-.416 1.36-.304.416-.72.738-1.2.928a4.677 4.677 0 01-1.856.336 4.779 4.779 0 01-2.9-.8 3.372 3.372 0 01-1.328-2.288h2.64a1.2 1.2 0 00.48.88c.327.212.711.317 1.1.3.251.017.499-.057.7-.208a.759.759 0 00.24-.576.668.668 0 00-.448-.656 7.317 7.317 0 00-1.424-.432c-.554-.109-1.1-.259-1.632-.448a2.734 2.734 0 01-1.1-.768 2.202 2.202 0 01-.464-1.472 2.365 2.365 0 01.912-1.936 3.943 3.943 0 012.591-.743l-.007-.004zm7.691.113l2.144 5.471 2-5.471h3.024L117.05 23.09h-3.008l2.1-4.591-3.742-8.591 3.05-.002zm11.325-.112c.973-.05 1.931.25 2.7.848a3.665 3.665 0 011.28 2.24h-2.56a1.367 1.367 0 00-.512-.848 1.474 1.474 0 00-.976-.32 1.047 1.047 0 00-.7.207.68.68 0 00-.24.56.668.668 0 00.432.624c.449.185.915.325 1.392.416.571.128 1.132.295 1.68.5.442.163.833.44 1.136.8.337.425.507.958.48 1.5a2.31 2.31 0 01-.416 1.36 2.743 2.743 0 01-1.2.928 4.68 4.68 0 01-1.856.336 4.779 4.779 0 01-2.9-.8 3.372 3.372 0 01-1.328-2.288h2.64a1.2 1.2 0 00.48.88c.327.212.711.317 1.1.3.251.017.499-.057.7-.208a.759.759 0 00.24-.576.668.668 0 00-.448-.656 7.317 7.317 0 00-1.424-.432c-.554-.109-1.1-.259-1.632-.448a2.721 2.721 0 01-1.1-.768 2.202 2.202 0 01-.464-1.472 2.365 2.365 0 01.912-1.936 3.947 3.947 0 012.589-.743l-.005-.004z"/>
  <path fill="url(#paint0_linear_148_10777)" d="M23.2 28.13a2.448 2.448 0 01-2.446-2.445V4.942a.847.847 0 10-1.693 0V16.51a2.445 2.445 0 11-4.892 0V2.446a.846.846 0 10-1.692 0v19.923a2.446 2.446 0 01-4.892 0v-13.3a.847.847 0 00-1.693 0v3.264a.8.8 0 01-.8.8H.8a.8.8 0 010-1.6h3.5V9.069a2.446 2.446 0 014.892 0v13.299a.847.847 0 001.693 0V2.446a2.446 2.446 0 014.892 0v14.063a.847.847 0 101.693 0V4.942a2.446 2.446 0 014.892 0v20.743a.846.846 0 101.692 0V2.445a2.446 2.446 0 014.892 0v16.553a.847.847 0 101.693 0v-6.665a.8.8 0 01.8-.8h4.229a.8.8 0 110 1.6h-3.434v5.865a2.446 2.446 0 01-4.892 0V2.446a.847.847 0 00-1.693 0v23.24A2.448 2.448 0 0123.2 28.13z"/>
  <defs>
    <linearGradient id="paint0_linear_148_10777" x1="36.468" x2="9.26" y1="28.13" y2="-7.143" gradientUnits="userSpaceOnUse">
      <stop stop-color="#00F1D7"/>
      <stop offset="1" stop-color="#00CCFA"/>
    </linearGradient>
  </defs>
</svg>
