<svg xmlns="http://www.w3.org/2000/svg" width="78.874" height="88.974" viewBox="0 0 78.874 88.974">
  <g id="Group_75" data-name="Group 75" transform="translate(-285.909 -139.661)">
    <path id="Path_56" data-name="Path 56" d="M325.226,156.284v.005a17.528,17.528,0,0,0-17.532,17.527v1.544h9.5a1.939,1.939,0,0,1,0,3.877h-9.5v3.786h9.5a1.942,1.942,0,0,1,0,3.883h-9.5v3.78h9.5a1.942,1.942,0,0,1,0,3.883h-9.5v3.785h9.5a1.94,1.94,0,0,1,0,3.878h-9.5v.057a17.53,17.53,0,0,0,14.632,17.284v4.338h-1.514a2.362,2.362,0,1,0,0,4.724h9.068a2.362,2.362,0,0,0,0-4.724h-1.514V219.53a17.528,17.528,0,0,0,14.388-17.241v-.057h-9.5a1.933,1.933,0,0,1-1.939-1.927v-.012a1.936,1.936,0,0,1,1.934-1.939h9.505v-3.785h-9.5a1.942,1.942,0,0,1,0-3.883h9.5V186.9h-9.5a1.941,1.941,0,1,1,0-3.883h9.5v-3.786h-9.5a1.936,1.936,0,0,1-1.368-3.311,1.938,1.938,0,0,1,1.368-.566h9.5v-1.544A17.533,17.533,0,0,0,325.226,156.284Zm0,57.487h-.005a3.137,3.137,0,1,1,.005,0Z" fill="#00ccfa"/>
    <path id="Path_57" data-name="Path 57" d="M364.782,179.1a39.436,39.436,0,0,0-78.872,0c0,.232.01.461.014.69,0,.05-.015.1-.015.151v16.227a2.2,2.2,0,0,0,2.343,2.047,2.165,2.165,0,0,0,.926-.285,8.481,8.481,0,0,0,7.544,4.92l.019,0a.224.224,0,0,1,.026,0c.037,0,.073,0,.11,0v-.009a2.195,2.195,0,0,0,2.2-2.05,2.631,2.631,0,0,0,0-.281V175.588a2.2,2.2,0,0,0-2.055-2.337c-.05,0-.1.006-.146.006v0c-.082,0-.161.01-.241.012-.021,0-.042,0-.063,0a8.457,8.457,0,0,0-6.15,2.967,35.039,35.039,0,0,1,20.23-28.963l.076.208a2.339,2.339,0,0,0,3,1.4l.037-.013a32.474,32.474,0,0,1,23.162,0,2.341,2.341,0,0,0,3.022-1.349l.014-.036.076-.208a35.037,35.037,0,0,1,20.206,28.794,8.457,8.457,0,0,0-6.3-2.814,2.2,2.2,0,0,0-2.336,2.337v24.923a2.2,2.2,0,0,0,2.054,2.336,2.4,2.4,0,0,0,.282-.01v.014a8.482,8.482,0,0,0,7.556-4.633,2.171,2.171,0,0,0,.933.288,2.2,2.2,0,0,0,2.344-2.047,2.444,2.444,0,0,0,0-.3V179.938c0-.053-.011-.1-.015-.152C364.772,179.557,364.782,179.328,364.782,179.1Z" fill="#00ccfa"/>
  </g>
</svg>
