<svg xmlns="http://www.w3.org/2000/svg" width="36.768" height="36.705" viewBox="0 0 36.768 36.705">
  <g id="Group_82" data-name="Group 82" transform="translate(-1023.883 -550.725)">
    <path id="Path_76" data-name="Path 76" d="M1057.046,562.7a6.551,6.551,0,0,0-3.66-11.972,6.517,6.517,0,0,0-6.144,4.305,15.708,15.708,0,0,0-9.929,0,6.518,6.518,0,0,0-6.145-4.305,6.553,6.553,0,0,0-3.661,11.972c-3.867,5.623-4.7,11.815-2.211,16.615,2.711,5.235,8.742,8.118,16.981,8.118,8.22,0,14.24-2.885,16.953-8.124C1061.722,574.492,1060.9,568.3,1057.046,562.7Zm-3.66-9.984a4.571,4.571,0,0,1,2.485,8.39,20.035,20.035,0,0,0-6.785-5.323A4.583,4.583,0,0,1,1053.386,552.713Zm-26.618,3.411a4.455,4.455,0,0,1,4.4-3.411h.008a4.589,4.589,0,0,1,4.289,3.014,19.958,19.958,0,0,0-6.784,5.323A4.392,4.392,0,0,1,1026.768,556.124ZM1054.92,581.8c-2.841,2.418-7.1,3.644-12.643,3.644s-9.8-1.226-12.641-3.645a10.615,10.615,0,0,1-3.712-8.358c0-7.979,7.144-17.253,16.353-17.253s16.355,9.275,16.355,17.254A10.613,10.613,0,0,1,1054.92,581.8Z" fill="#00f1d7"/>
    <path id="Path_77" data-name="Path 77" d="M1040.478,567.2a4.461,4.461,0,0,0-.834-2.793,3.269,3.269,0,0,0-2.679-1.184c-2.952,0-7.95,2.54-8.755,6.362a4.926,4.926,0,0,0,4.8,6.042h.064C1037.66,575.626,1040.478,570.719,1040.478,567.2Zm-7.408,6.438h-.006a3.031,3.031,0,0,1-2.092-.82,2.913,2.913,0,0,1-.9-2.056,3.005,3.005,0,0,1,.085-.763c.464-2.2,3.27-4.127,5.6-4.647a4.863,4.863,0,0,1,1.054-.129,1.554,1.554,0,0,1,1.288.467c.655.856.506,2.742-.354,4.485C1036.677,572.343,1034.928,573.638,1033.07,573.638Z" fill="#00f1d7"/>
    <path id="Path_78" data-name="Path 78" d="M1044.912,564.406a4.457,4.457,0,0,0-.833,2.791c0,3.52,2.817,8.429,7.4,8.429h.063a4.933,4.933,0,0,0,4.8-6.038c-.809-3.827-5.8-6.366-8.757-6.366A3.264,3.264,0,0,0,1044.912,564.406Zm9.488,5.6a2.939,2.939,0,0,1-2.158,3.546,2.852,2.852,0,0,1-.753.083h-.005c-3.27,0-5.439-3.859-5.439-6.411a2.515,2.515,0,0,1,.385-1.478,1.35,1.35,0,0,1,1.158-.538C1049.87,565.211,1053.823,567.268,1054.4,570.009Z" fill="#00f1d7"/>
    <path id="Path_79" data-name="Path 79" d="M1036.376,566.694a1.342,1.342,0,1,0,1.34,1.341A1.343,1.343,0,0,0,1036.376,566.694Z" fill="#00f1d7"/>
    <path id="Path_80" data-name="Path 80" d="M1046.837,568.035a1.341,1.341,0,1,0,1.342-1.341A1.343,1.343,0,0,0,1046.837,568.035Z" fill="#00f1d7"/>
    <path id="Path_81" data-name="Path 81" d="M1045.1,579.37a3.947,3.947,0,0,1-1.825,1.025v-2.8l.24-.115c.949-.451,1.843-.876,1.843-2.155a1.962,1.962,0,0,0-1.959-1.96h-2.238a1.959,1.959,0,0,0-.878,3.7l1,.521V580.4a3.956,3.956,0,0,1-1.844-1.031,1,1,0,0,0-1.414,1.414,6.008,6.008,0,0,0,8.485,0,1,1,0,0,0-1.414-1.414Zm-2.838-4.022a7.384,7.384,0,0,0,1.121-.055l-.649.329c-.1.054-.218.111-.218.111l-.474,0-.244-.126-.5-.256C1041.494,575.339,1041.845,575.344,1042.258,575.348Z" fill="#00f1d7"/>
  </g>
</svg>
