<svg xmlns="http://www.w3.org/2000/svg" width="40" height="37.747" viewBox="0 0 40 37.747">
  <g id="Group_92" data-name="Group 92" transform="translate(-1418 -882.253)">
    <path id="Path_124" data-name="Path 124" d="M1452,882.253h-1.939a1,1,0,0,0,0,2H1452a4,4,0,0,1,4,4v15a4,4,0,0,1-4,4h-2.253a1,1,0,0,0-.707.293l-3.04,3.04v-2.333a1,1,0,0,0-1-1h-8a4,4,0,0,1-4-4v-15a4,4,0,0,1,4-4h7.5a1,1,0,0,0,0-2H1437a6.006,6.006,0,0,0-6,6V896h-8a5.006,5.006,0,0,0-5,5v2.52a1,1,0,0,0,2,0V901a3,3,0,0,1,3-3h8v4.363a2.94,2.94,0,0,0-3,.489,3.024,3.024,0,0,0-3.984.154,2.937,2.937,0,0,0,0,4.151l3.277,3.278a1,1,0,0,0,1.414,0l3.278-3.278a2.872,2.872,0,0,0,.238-.29,6,6,0,0,0,3.778,2.3V911a3,3,0,0,1-3,3h-1a1,1,0,0,0-.707.293L1429,916.586V915a1,1,0,0,0-1-1h-5a3,3,0,0,1-3-3v-2.664a1,1,0,0,0-2,0V911a5.006,5.006,0,0,0,5,5h4v3a1,1,0,0,0,.617.924A.988.988,0,0,0,1428,920a1,1,0,0,0,.707-.293l3.707-3.707H1433a5.006,5.006,0,0,0,5-5v-1.747h6V913a1,1,0,0,0,.617.924A.988.988,0,0,0,1445,914a1,1,0,0,0,.707-.293l4.454-4.454H1452a6.006,6.006,0,0,0,6-6v-15A6.006,6.006,0,0,0,1452,882.253Zm-21.43,23.49-2.571,2.57-2.57-2.57a.947.947,0,0,1,0-1.323.929.929,0,0,1,.661-.272.94.94,0,0,1,.661.271l.54.541a1,1,0,0,0,1.415,0l.541-.541a.951.951,0,0,1,1.323,0,.929.929,0,0,1,.272.662A.94.94,0,0,1,1430.57,905.743Z" fill="#00f1d7"/>
    <path id="Path_125" data-name="Path 125" d="M1444.084,889.2a3.3,3.3,0,0,1-.824,2.181l-1.471,1.664a1,1,0,0,0-.491-.128h-3.359a1,1,0,0,0-1,1v7.556a1,1,0,0,0,1,1h3.359a.994.994,0,0,0,.665-.255,4.722,4.722,0,0,0,2.172.531h5.935a2.01,2.01,0,0,0,1.988-2.085c-.008-.156-.014-1.256,0-5.614v-.268a1.991,1.991,0,0,0-1.987-1.989l-2.528-.007a5.259,5.259,0,0,0-.362-4.405,1.635,1.635,0,0,0-.915-.744c-.009,0-.017-.012-.026-.015v0l-.04-.013-.016,0h-.005l-.01,0-.02-.006h0l-.032-.008-.072-.019-.177-.045,0,.008a.516.516,0,0,0-.282.023,1.684,1.684,0,0,0-.854.349A1.639,1.639,0,0,0,1444.084,889.2Zm-3.785,11.272h-1.361v-5.557h1.361Zm5.56-9.75a3.227,3.227,0,0,1-.242,1.5l-.492,1.166a1,1,0,0,0,.918,1.39l4.018,0,0,.878c-.01,2.777-.014,4.707,0,5.09h-5.926a2.728,2.728,0,0,1-1.714-.608l-.124-.1v-4.553l2.462-2.785A5.271,5.271,0,0,0,1445.859,890.726Z" fill="#00f1d7"/>
  </g>
</svg>
