<svg xmlns="http://www.w3.org/2000/svg" width="39.424" height="36.826" viewBox="0 0 39.424 36.826">
  <g id="Group_90" data-name="Group 90" transform="translate(-666 -557)">
    <path id="Path_113" data-name="Path 113" d="M698,571.586V558a30,30,0,0,1-.066-.328.966.966,0,0,0-.1-.186.785.785,0,0,0-.058-.112c-.011-.014-.028-.02-.039-.033a.985.985,0,0,0-.165-.137.925.925,0,0,0-.145-.1.964.964,0,0,0-.178-.055.9.9,0,0,0-.2-.04c-.019,0-.035-.011-.054-.011H667c-.019,0-.036.01-.055.011a1.006,1.006,0,0,0-.193.039,1.027,1.027,0,0,0-.183.057.95.95,0,0,0-.142.1.97.97,0,0,0-.167.139c-.012.013-.028.019-.039.033a.785.785,0,0,0-.058.112.966.966,0,0,0-.1.186A30,30,0,0,1,666,558v20c0,.035.017.065.02.1a1.017,1.017,0,0,0,.056.278,1,1,0,0,0,.174.266c.015.017.021.04.038.057l0,0a1,1,0,0,0,.326.219A.984.984,0,0,0,667,579h15.919A11.5,11.5,0,1,0,698,571.586Zm-2-.562a11.16,11.16,0,0,0-4.515.068l-4.161-4.034L696,560.086ZM694.159,559,682,568.77,669.841,559ZM668,560.086l8.683,6.977L668,575.612ZM669.441,577l8.812-8.676,3.121,2.508a1,1,0,0,0,1.252,0l3.127-2.512,3.578,3.47a11.56,11.56,0,0,0-5.59,5.21Zm24.483,14.826a9.5,9.5,0,1,1,9.5-9.5A9.511,9.511,0,0,1,693.924,591.826Z" fill="#00f1d7"/>
    <path id="Path_114" data-name="Path 114" d="M693.256,578.073a1.053,1.053,0,0,0-1.68.845v6.816a1.052,1.052,0,0,0,1.68.845l4.591-3.408a1.052,1.052,0,0,0,0-1.69Z" fill="#00f1d7"/>
  </g>
</svg>
