<svg xmlns="http://www.w3.org/2000/svg" xmlns:xlink="http://www.w3.org/1999/xlink" width="56" height="55" viewBox="0 0 56 55">
  <defs>
    <clipPath id="clip-path">
      <rect id="Rectangle_429" data-name="Rectangle 429" width="56" height="55" transform="translate(0.003)" fill="#fff"/>
    </clipPath>
  </defs>
  <g id="Group_243" data-name="Group 243" transform="translate(-0.003)">
    <g id="Group_242" data-name="Group 242" clip-path="url(#clip-path)">
      <path id="Path_13357" data-name="Path 13357" d="M38.5,17A4.5,4.5,0,1,0,34,12.5,4.505,4.505,0,0,0,38.5,17m0-7A2.5,2.5,0,1,1,36,12.5,2.5,2.5,0,0,1,38.5,10" fill="#fff"/>
      <path id="Path_13358" data-name="Path 13358" d="M17.707,25.293a1,1,0,0,0-1.414,0l-2,2a1,1,0,0,0,1.414,1.414L17,27.414l4.293,4.293a1,1,0,0,0,1.414-1.414Z" fill="#fff"/>
      <path id="Path_13359" data-name="Path 13359" d="M38,37a1,1,0,0,0,.707-1.707l-4-4a1,1,0,1,0-1.414,1.414l4,4A1,1,0,0,0,38,37" fill="#fff"/>
      <path id="Path_13360" data-name="Path 13360" d="M52.954,37.808a10.061,10.061,0,0,0-.954-.8V6a6.006,6.006,0,0,0-6-6H6A6.006,6.006,0,0,0,0,6V46a6.006,6.006,0,0,0,6,6H38.869c.031.032.057.067.089.1a1.112,1.112,0,0,0,.1.094,10,10,0,1,0,13.9-14.384M42.289,43.929a1,1,0,0,1,1.414,0L45.178,45.4l3.111-3.111A.993.993,0,0,1,50,42.932v.084a.983.983,0,0,1-.273.666l-.024.025-3.818,3.818a1,1,0,0,1-1.414,0l-2.179-2.18a1,1,0,0,1,0-1.414ZM6,50a4,4,0,0,1-4-4V6A4,4,0,0,1,6,2H46a4,4,0,0,1,4,4V35.842A10,10,0,0,0,46,35l0,0a9.975,9.975,0,0,0-2.308.279l-8.984-8.984a1,1,0,0,0-1.414,0L28.5,31.086,17.707,20.293a1,1,0,0,0-1.414,0l-11,11a1,1,0,0,0,1.414,1.414L17,22.414,27.793,33.207a1,1,0,0,0,1.414,0L34,28.414l7.61,7.61A9.964,9.964,0,0,0,37.353,50Z" fill="#fff"/>
    </g>
  </g>
</svg>
