<svg xmlns="http://www.w3.org/2000/svg" width="38.996" height="32" viewBox="0 0 38.996 32">
  <g id="Group_83" data-name="Group 83" transform="translate(-830 -573)">
    <path id="Path_82" data-name="Path 82" d="M861.934,573.672a.966.966,0,0,0-.1-.186.785.785,0,0,0-.058-.112c-.011-.014-.028-.02-.039-.033a.985.985,0,0,0-.165-.137.925.925,0,0,0-.145-.1.964.964,0,0,0-.178-.055.9.9,0,0,0-.2-.04c-.019,0-.035-.011-.054-.011H831c-.019,0-.036.01-.055.011a1.006,1.006,0,0,0-.193.039,1.027,1.027,0,0,0-.183.057.95.95,0,0,0-.142.1.97.97,0,0,0-.167.139c-.012.013-.028.019-.039.033a.785.785,0,0,0-.058.112.966.966,0,0,0-.1.186A30,30,0,0,1,830,574v20c0,.035.017.065.02.1a1.017,1.017,0,0,0,.056.278,1,1,0,0,0,.174.266c.015.017.021.04.038.057l0,0a1,1,0,0,0,.326.219A.984.984,0,0,0,831,595h17a1,1,0,0,0,0-2H833.441l8.812-8.676,3.121,2.508a1,1,0,0,0,1.252,0l3.127-2.512,5.051,4.9a1,1,0,0,0,1.392-1.436l-4.872-4.724L860,576.086V585a1,1,0,0,0,2,0V574a30,30,0,0,1-.066-.328ZM832,591.612V576.086l8.683,6.977Zm14-6.842L833.841,575h24.318Z" fill="#00f1d7"/>
    <path id="Path_83" data-name="Path 83" d="M861.433,588.1a1,1,0,0,0-1.058.12L855.649,592H852a1,1,0,0,0-1,1v7a1,1,0,0,0,1,1h3.649l4.726,3.781A1,1,0,0,0,862,604V589A1,1,0,0,0,861.433,588.1ZM853,594h2v5h-2Zm7,7.919-3-2.4v-6.04l3-2.4Z" fill="#00f1d7"/>
    <path id="Path_84" data-name="Path 84" d="M864.243,592.758a1,1,0,0,0-1.414,1.414,4,4,0,0,1,0,5.656,1,1,0,1,0,1.414,1.414,6,6,0,0,0,0-8.484Z" fill="#00f1d7"/>
    <path id="Path_85" data-name="Path 85" d="M866.364,590.636a1,1,0,0,0-1.414,1.414,7.009,7.009,0,0,1,0,9.9,1,1,0,1,0,1.414,1.414A9.011,9.011,0,0,0,866.364,590.636Z" fill="#00f1d7"/>
  </g>
</svg>
