<svg xmlns="http://www.w3.org/2000/svg" width="39.507" height="36.76" viewBox="0 0 39.507 36.76">
  <g id="Group_84" data-name="Group 84" transform="translate(-758 -544)">
    <path id="Path_86" data-name="Path 86" d="M792,563a1,1,0,0,0,1-1V548a4,4,0,0,0-4-4H762a4,4,0,0,0-4,4v21a4,4,0,0,0,4,4h14a1,1,0,0,0,0-2H762a2,2,0,0,1-2-2V554h31v8A1,1,0,0,0,792,563Zm-32-11v-4a2,2,0,0,1,2-2h27a2,2,0,0,1,2,2v4Z" fill="#00f1d7"/>
    <path id="Path_87" data-name="Path 87" d="M788,548H777a1,1,0,0,0,0,2h11a1,1,0,0,0,0-2Z" fill="#00f1d7"/>
    <path id="Path_88" data-name="Path 88" d="M763.38,548.08a1,1,0,0,0-1.09.21l-.12.149a.781.781,0,0,0-.09.181.635.635,0,0,0-.06.18,1.486,1.486,0,0,0-.02.2.99.99,0,0,0,.29.71,1.156,1.156,0,0,0,.33.21.852.852,0,0,0,.38.08.99.99,0,0,0,1-1,1.029,1.029,0,0,0-.29-.71A1.156,1.156,0,0,0,763.38,548.08Z" fill="#00f1d7"/>
    <path id="Path_89" data-name="Path 89" d="M766.92,548.62a.781.781,0,0,0-.09-.181,1.719,1.719,0,0,0-.12-.149,1.018,1.018,0,0,0-.91-.27.635.635,0,0,0-.18.06.756.756,0,0,0-.18.09,1.592,1.592,0,0,0-.15.12l-.12.149a.781.781,0,0,0-.09.181.635.635,0,0,0-.06.18,1.486,1.486,0,0,0-.02.2.99.99,0,0,0,1,1,.852.852,0,0,0,.38-.08,1.156,1.156,0,0,0,.33-.21A.99.99,0,0,0,767,549a1.486,1.486,0,0,0-.02-.2A.635.635,0,0,0,766.92,548.62Z" fill="#00f1d7"/>
    <path id="Path_90" data-name="Path 90" d="M769.56,548.17a.756.756,0,0,0-.18-.09.635.635,0,0,0-.18-.06,1.01,1.01,0,0,0-.91.27,1.719,1.719,0,0,0-.12.149.781.781,0,0,0-.09.181.635.635,0,0,0-.06.18,1.486,1.486,0,0,0-.02.2.99.99,0,0,0,.29.71,1.156,1.156,0,0,0,.33.21.852.852,0,0,0,.38.08.99.99,0,0,0,1-1,1.05,1.05,0,0,0-.29-.71A1.592,1.592,0,0,0,769.56,548.17Z" fill="#00f1d7"/>
    <path id="Path_91" data-name="Path 91" d="M789.944,563.859a1,1,0,0,0-1.057.12l-4.727,3.781h-3.649a1,1,0,0,0-1,1v7a1,1,0,0,0,1,1h3.649l4.727,3.782a1,1,0,0,0,1.624-.782v-15A1,1,0,0,0,789.944,563.859Zm-6.433,10.9h-2v-5h2Zm5,2.919-3-2.4v-6.039l3-2.4Z" fill="#00f1d7"/>
    <path id="Path_92" data-name="Path 92" d="M792.754,568.518a1,1,0,0,0-1.414,1.414,4,4,0,0,1,0,5.657A1,1,0,1,0,792.754,577a6,6,0,0,0,0-8.485Z" fill="#00f1d7"/>
    <path id="Path_93" data-name="Path 93" d="M794.875,566.4a1,1,0,0,0-1.414,1.414,7.01,7.01,0,0,1,0,9.9,1,1,0,1,0,1.414,1.414A9.012,9.012,0,0,0,794.875,566.4Z" fill="#00f1d7"/>
  </g>
</svg>
