<svg xmlns="http://www.w3.org/2000/svg" width="40" height="40" viewBox="0 0 40 40">
  <g id="Group_86" data-name="Group 86" transform="translate(-734 -488)">
    <path id="Path_100" data-name="Path 100" d="M764,492H753a1,1,0,0,0,0,2h11a1,1,0,0,0,0-2Z" fill="#00f1d7"/>
    <path id="Path_101" data-name="Path 101" d="M739.38,492.08a1,1,0,0,0-1.09.21l-.12.149a.781.781,0,0,0-.09.181.635.635,0,0,0-.06.18,1.486,1.486,0,0,0-.02.2.99.99,0,0,0,.29.71,1.156,1.156,0,0,0,.33.21.852.852,0,0,0,.38.08.99.99,0,0,0,1-1,1.029,1.029,0,0,0-.29-.71A1.156,1.156,0,0,0,739.38,492.08Z" fill="#00f1d7"/>
    <path id="Path_102" data-name="Path 102" d="M742.92,492.62a.781.781,0,0,0-.09-.181,1.714,1.714,0,0,0-.12-.149,1.018,1.018,0,0,0-.91-.27.636.636,0,0,0-.18.06.758.758,0,0,0-.18.09,1.582,1.582,0,0,0-.15.12l-.12.149a.781.781,0,0,0-.09.181.635.635,0,0,0-.06.18,1.486,1.486,0,0,0-.02.2.99.99,0,0,0,1,1,.852.852,0,0,0,.38-.08,1.156,1.156,0,0,0,.33-.21A.99.99,0,0,0,743,493a1.486,1.486,0,0,0-.02-.2A.635.635,0,0,0,742.92,492.62Z" fill="#00f1d7"/>
    <path id="Path_103" data-name="Path 103" d="M745.56,492.17a.758.758,0,0,0-.18-.09.636.636,0,0,0-.18-.06,1.01,1.01,0,0,0-.91.27,1.714,1.714,0,0,0-.12.149.781.781,0,0,0-.09.181.635.635,0,0,0-.06.18,1.486,1.486,0,0,0-.02.2.99.99,0,0,0,.29.71,1.156,1.156,0,0,0,.33.21.852.852,0,0,0,.38.08.99.99,0,0,0,1-1,1.05,1.05,0,0,0-.29-.71A1.582,1.582,0,0,0,745.56,492.17Z" fill="#00f1d7"/>
    <path id="Path_104" data-name="Path 104" d="M769,507.023V492a4,4,0,0,0-4-4H738a4,4,0,0,0-4,4v21a4,4,0,0,0,4,4h13.025A11.493,11.493,0,1,0,769,507.023ZM736,492a2,2,0,0,1,2-2h27a2,2,0,0,1,2,2v4H736Zm0,21V498h31v7.919A11.486,11.486,0,0,0,751.109,515H738A2,2,0,0,1,736,513Zm26.5,13a9.5,9.5,0,1,1,9.5-9.5A9.511,9.511,0,0,1,762.5,526Z" fill="#00f1d7"/>
    <path id="Path_105" data-name="Path 105" d="M761.71,512.247a1.052,1.052,0,0,0-1.68.845v6.816a1.052,1.052,0,0,0,1.68.845l4.591-3.408a1.052,1.052,0,0,0,0-1.69Z" fill="#00f1d7"/>
  </g>
</svg>
