<svg xmlns="http://www.w3.org/2000/svg" width="35" height="40" viewBox="0 0 35 40">
  <g id="Group_85" data-name="Group 85" transform="translate(-819 -488)">
    <path id="Path_94" data-name="Path 94" d="M835.769,519H821V490h14v7a1,1,0,0,0,1,1h7v4a1,1,0,0,0,2,0v-5c0-.022-.011-.04-.012-.062a.992.992,0,0,0-.054-.264c-.011-.032-.019-.063-.033-.094a.99.99,0,0,0-.193-.285v0l-8-8h0a.993.993,0,0,0-.287-.193.886.886,0,0,0-.091-.033.96.96,0,0,0-.27-.054c-.02,0-.037-.012-.058-.012H820a1,1,0,0,0-1,1v31a1,1,0,0,0,1,1h15.769a1,1,0,0,0,0-2ZM837,496v-4.586L841.586,496Z" fill="#00f1d7"/>
    <path id="Path_95" data-name="Path 95" d="M827,501a1,1,0,0,0,0,2h10a1,1,0,0,0,0-2Z" fill="#00f1d7"/>
    <path id="Path_96" data-name="Path 96" d="M837,505H827a1,1,0,0,0,0,2h10a1,1,0,0,0,0-2Z" fill="#00f1d7"/>
    <path id="Path_97" data-name="Path 97" d="M831,511a1,1,0,0,0,0-2h-4a1,1,0,0,0,0,2Z" fill="#00f1d7"/>
    <path id="Path_98" data-name="Path 98" d="M841,510v6a5,5,0,0,0,10,0v-6a5,5,0,0,0-10,0Zm5,9a3,3,0,0,1-2.816-2h5.632A3,3,0,0,1,846,519Zm0-12a3,3,0,0,1,3,3v5h-6v-5A3,3,0,0,1,846,507Z" fill="#00f1d7"/>
    <path id="Path_99" data-name="Path 99" d="M853,514a1,1,0,0,0-1,1v1a6,6,0,0,1-12,0v-1a1,1,0,0,0-2,0v1a8.008,8.008,0,0,0,7,7.931V526h-2a1,1,0,0,0,0,2h6a1,1,0,0,0,0-2h-2v-2.069A8.008,8.008,0,0,0,854,516v-1A1,1,0,0,0,853,514Z" fill="#00f1d7"/>
  </g>
</svg>
