<svg xmlns="http://www.w3.org/2000/svg" width="37.412" height="33.271" viewBox="0 0 37.412 33.271">
  <g id="Group_91" data-name="Group 91" transform="translate(-725 -600)">
    <path id="Path_115" data-name="Path 115" d="M752,602v11.526a1,1,0,0,0,2,0V605h1v6.842a1,1,0,0,0,2,0V604a1,1,0,0,0-1-1h-2v-2a1,1,0,0,0-1-1h-9a3.947,3.947,0,0,1-6,0h-9a1,1,0,0,0-1,1v2h-2a1,1,0,0,0-1,1v21a1,1,0,0,0,1,1h15a1,1,0,0,0,1-1V604a2,2,0,0,1,2-2Zm-12,22H727V605h1v17a1,1,0,0,0,1,1h11Zm0-3H730V602h8a2,2,0,0,1,2,2Z" fill="#00f1d7"/>
    <path id="Path_116" data-name="Path 116" d="M754.849,616.37a1,1,0,0,0-1.057.12l-4.727,3.781h-3.649a1,1,0,0,0-1,1v7a1,1,0,0,0,1,1h3.649l4.727,3.781a1,1,0,0,0,.624.219.983.983,0,0,0,.433-.1,1,1,0,0,0,.567-.9v-15A1,1,0,0,0,754.849,616.37Zm-6.433,10.9h-2v-5h2Zm5,2.919-3-2.4v-6.04l3-2.4Z" fill="#00f1d7"/>
    <path id="Path_117" data-name="Path 117" d="M757.659,621.029a1,1,0,0,0-1.414,1.414,4,4,0,0,1,0,5.656,1,1,0,1,0,1.414,1.414,6,6,0,0,0,0-8.484Z" fill="#00f1d7"/>
    <path id="Path_118" data-name="Path 118" d="M759.78,618.907a1,1,0,0,0-1.414,1.414,7.009,7.009,0,0,1,0,9.9,1,1,0,1,0,1.414,1.414A9.011,9.011,0,0,0,759.78,618.907Z" fill="#00f1d7"/>
    <path id="Path_119" data-name="Path 119" d="M736.9,606h-4a1,1,0,0,0,0,2h4a1,1,0,0,0,0-2Z" fill="#00f1d7"/>
    <path id="Path_120" data-name="Path 120" d="M736.9,610h-4a1,1,0,0,0,0,2h4a1,1,0,0,0,0-2Z" fill="#00f1d7"/>
    <path id="Path_121" data-name="Path 121" d="M734.9,614h-2a1,1,0,0,0,0,2h2a1,1,0,0,0,0-2Z" fill="#00f1d7"/>
    <path id="Path_122" data-name="Path 122" d="M744.9,606a1,1,0,0,0,0,2h4a1,1,0,0,0,0-2Z" fill="#00f1d7"/>
    <path id="Path_123" data-name="Path 123" d="M746.9,612a1,1,0,0,0,0-2h-2a1,1,0,0,0,0,2Z" fill="#00f1d7"/>
  </g>
</svg>
