<svg xmlns="http://www.w3.org/2000/svg" xmlns:xlink="http://www.w3.org/1999/xlink" width="40.484" height="40.479" viewBox="0 0 40.484 40.479">
  <defs>
    <clipPath id="clip-path">
      <rect id="Rectangle_49" data-name="Rectangle 49" width="40.484" height="40.479" transform="translate(0 0)" fill="#00f1d7"/>
    </clipPath>
  </defs>
  <g id="Group_66" data-name="Group 66" transform="translate(0 0)">
    <g id="Group_65" data-name="Group 65" clip-path="url(#clip-path)">
      <path id="Path_23" data-name="Path 23" d="M40.03,30.905l-.649-1.746a.982.982,0,1,0-1.842.684l.648,1.747a5.134,5.134,0,0,1-9.181,4.485l-.73-1.184a3.487,3.487,0,1,0-6.413-2.641H18.622a3.487,3.487,0,1,0-6.413,2.641l-.731,1.184a5.134,5.134,0,0,1-8.584.234,5.071,5.071,0,0,1-.6-4.719l3.753-10.1a6.447,6.447,0,0,1,6.018-4.184H28.416a6.447,6.447,0,0,1,6.019,4.184l.649,1.747a.983.983,0,0,0,1.843-.685l-.65-1.747a8.42,8.42,0,0,0-7.861-5.465H26.757a4.729,4.729,0,0,0-4.636-3.757h-.9V11.2A4.394,4.394,0,0,0,16.837,6.81H8.618a2.422,2.422,0,0,1,0-4.844H20.252a.983.983,0,0,0,0-1.966H8.618a4.388,4.388,0,0,0,0,8.776h8.219A2.425,2.425,0,0,1,19.26,11.2v.387h-.9a4.731,4.731,0,0,0-4.637,3.757H12.068a8.423,8.423,0,0,0-7.861,5.465L.455,30.905A7.1,7.1,0,0,0,7.11,40.478a7.053,7.053,0,0,0,6.041-3.37l.491-.8a3.484,3.484,0,0,0,4.98-2.1h3.241a3.484,3.484,0,0,0,4.98,2.1l.49.8a7.1,7.1,0,0,0,12.7-6.2m-13.3,2.328a1.522,1.522,0,1,1-1.522-1.522,1.524,1.524,0,0,1,1.522,1.522m-9.933,0a1.522,1.522,0,1,1-1.522-1.522A1.524,1.524,0,0,1,16.8,33.233M15.769,15.342a2.783,2.783,0,0,1,2.6-1.792h3.757a2.782,2.782,0,0,1,2.595,1.792Z" fill="#00f1d7"/>
      <path id="Path_24" data-name="Path 24" d="M27.31,24.218a2.705,2.705,0,1,0,2.7-2.7,2.707,2.707,0,0,0-2.7,2.7m1.966,0a.739.739,0,1,1,.739.739.74.74,0,0,1-.739-.739" fill="#00f1d7"/>
      <path id="Path_25" data-name="Path 25" d="M20.422,24.218a2.7,2.7,0,1,0,2.7-2.7,2.707,2.707,0,0,0-2.7,2.7m3.444,0a.74.74,0,1,1-.739-.739.74.74,0,0,1,.739.739" fill="#00f1d7"/>
      <path id="Path_26" data-name="Path 26" d="M12.5,19.478a2.554,2.554,0,0,0-2.526,2.214,2.549,2.549,0,0,0,0,5.053,2.549,2.549,0,0,0,5.053,0,2.549,2.549,0,0,0,0-5.053A2.555,2.555,0,0,0,12.5,19.478m.583,6.306v.626a.583.583,0,1,1-1.166,0v-.626a.983.983,0,0,0-.982-.983h-.626a.583.583,0,1,1,0-1.165h.626a.983.983,0,0,0,.982-.983v-.626a.583.583,0,0,1,1.166,0v.626a.984.984,0,0,0,.983.983H14.7a.583.583,0,0,1,0,1.165H14.07a.984.984,0,0,0-.983.983" fill="#00f1d7"/>
      <path id="Path_27" data-name="Path 27" d="M36.249,26.2a.983.983,0,1,0,1.678-.695,1.016,1.016,0,0,0-1.39,0,.991.991,0,0,0-.288.695" fill="#00f1d7"/>
    </g>
  </g>
</svg>
