<svg xmlns="http://www.w3.org/2000/svg" width="39.26" height="37.685" viewBox="0 0 39.26 37.685">
  <g id="Group_79" data-name="Group 79" transform="translate(-998.7 -563.05)">
    <path id="Path_58" data-name="Path 58" d="M1005.59,587.25a.916.916,0,0,0,.45-.88v-7.98a.988.988,0,0,0-.3-.73,1.023,1.023,0,0,0-.72-.3,1.009,1.009,0,0,0-.71.31.964.964,0,0,0-.28.72v7.97a.9.9,0,0,0,.44.89A1.12,1.12,0,0,0,1005.59,587.25Z" fill="#00f1d7"/>
    <path id="Path_59" data-name="Path 59" d="M1034.3,566.74h-14.96v-2.66a.98.98,0,0,0-.29-.73,1.1,1.1,0,0,0-.73-.3,1.007,1.007,0,0,0-.99,1.03v2.66h-14.95a3.72,3.72,0,0,0-3.68,3.67v7.98a.923.923,0,0,0,.45.89,1.1,1.1,0,0,0,1.11,0,.916.916,0,0,0,.45-.88v-7.99a1.646,1.646,0,0,1,1.67-1.66h31.92a1.625,1.625,0,0,1,1.66,1.66v21.28a1.631,1.631,0,0,1-1.66,1.66h-31.92a1.646,1.646,0,0,1-1.67-1.66v-2.66a.934.934,0,0,0-.45-.89,1.1,1.1,0,0,0-1.11,0,.927.927,0,0,0-.45.88v2.67a3.681,3.681,0,0,0,3.68,3.67h9l-1.92,3.86a.947.947,0,0,0,.02.98,1.1,1.1,0,0,0,.98.49.944.944,0,0,0,.8-.57l2.37-4.76h9.41l2.38,4.76a.913.913,0,0,0,.8.61,1.108,1.108,0,0,0,1-.51.907.907,0,0,0,0-.99l-1.94-3.87h9.02a3.67,3.67,0,0,0,3.66-3.67V570.41A3.664,3.664,0,0,0,1034.3,566.74Z" fill="#00f1d7"/>
    <path id="Path_60" data-name="Path 60" d="M1011.36,586.36V575.73a.988.988,0,0,0-.3-.73,1,1,0,0,0-.71-.3h-.01a.97.97,0,0,0-.71.31.957.957,0,0,0-.28.71v10.64a.947.947,0,0,0,1,.98A.96.96,0,0,0,1011.36,586.36Z" fill="#00f1d7"/>
    <path id="Path_61" data-name="Path 61" d="M1020.2,587.11a.989.989,0,0,0,.77.27h10.66a1.01,1.01,0,0,0,0-2.02h-10.75a.989.989,0,0,0-.74.35,1.058,1.058,0,0,0-.22.71A1.124,1.124,0,0,0,1020.2,587.11Z" fill="#00f1d7"/>
    <path id="Path_62" data-name="Path 62" d="M1016.23,587.25a.916.916,0,0,0,.45-.88v-5.32a.98.98,0,0,0-.29-.73,1.1,1.1,0,0,0-.73-.3,1.007,1.007,0,0,0-.99,1.03v5.31a.922.922,0,0,0,.45.89A1.1,1.1,0,0,0,1016.23,587.25Z" fill="#00f1d7"/>
    <path id="Path_63" data-name="Path 63" d="M1020.99,576.73h10.64a1.005,1.005,0,1,0,0-2.01h-10.64a1.005,1.005,0,1,0,0,2.01Z" fill="#00f1d7"/>
    <path id="Path_64" data-name="Path 64" d="M1020.1,581.61a.9.9,0,0,0,.88.44h10.65a.941.941,0,0,0,.89-.44,1.121,1.121,0,0,0,0-1.12.922.922,0,0,0-.85-.45h-10.72a.934.934,0,0,0-.85.45A1.121,1.121,0,0,0,1020.1,581.61Z" fill="#00f1d7"/>
    <path id="Path_65" data-name="Path 65" d="M999.705,584.715a1.005,1.005,0,1,0-1.005-1.005A1.005,1.005,0,0,0,999.705,584.715Z" fill="#00f1d7"/>
  </g>
</svg>
