<svg xmlns="http://www.w3.org/2000/svg" width="39.738" height="38.208" viewBox="0 0 39.738 38.208">
  <g id="Group_88" data-name="Group 88" transform="translate(-637.174 -492.792)">
    <path id="Path_106" data-name="Path 106" d="M674.382,510.647h-2.731a4.03,4.03,0,0,0-.477-7.389v-6.019a4.452,4.452,0,0,0-4.447-4.447h-25.1a4.452,4.452,0,0,0-4.448,4.447v19.106a4.452,4.452,0,0,0,4.448,4.447h24.113v7.679a4.338,4.338,0,0,0,8.118,0v-6.7a2.565,2.565,0,0,0,.529.055,2.533,2.533,0,0,0,2.53-2.529v-6.118A2.533,2.533,0,0,0,674.382,510.647Zm-2.529-3.588A2.059,2.059,0,1,1,669.794,505,2.062,2.062,0,0,1,671.853,507.059Zm-30.231,11.733a2.45,2.45,0,0,1-2.448-2.447V497.239a2.45,2.45,0,0,1,2.448-2.447h25.1a2.45,2.45,0,0,1,2.447,2.447v5.824a4.034,4.034,0,0,0-1.237,7.584h-5.79a2.529,2.529,0,0,0,0,5.059h3.588v3.086Zm33.29.5a.529.529,0,0,1-1.059,0v-4.588a1,1,0,0,0-2,0v13.765a.53.53,0,0,1-1.059,0v-6.118a1,1,0,0,0-2,0v6.118a.53.53,0,0,1-1.059,0V514.706a1,1,0,0,0-1-1h-4.588a.53.53,0,0,1,0-1.059h12.235a.537.537,0,0,1,.53.529Z" fill="#00f1d7"/>
    <path id="Path_107" data-name="Path 107" d="M652.506,502.539a1.053,1.053,0,0,0-1.68.845V510.2a1.052,1.052,0,0,0,1.68.845l4.591-3.408a1.052,1.052,0,0,0,0-1.69Z" fill="#00f1d7"/>
  </g>
</svg>
