<svg id="Group_215" data-name="Group 215" xmlns="http://www.w3.org/2000/svg" xmlns:xlink="http://www.w3.org/1999/xlink" width="40" height="53" viewBox="0 0 40 53">
  <defs>
    <clipPath id="clip-path">
      <rect id="Rectangle_419" data-name="Rectangle 419" width="40" height="53" fill="#fff"/>
    </clipPath>
  </defs>
  <g id="Group_214" data-name="Group 214" clip-path="url(#clip-path)">
    <path id="Path_13296" data-name="Path 13296" d="M9,53H24a1,1,0,0,0,.382-.077.978.978,0,0,0,.167-.109,1.048,1.048,0,0,0,.148-.1l15-15A1,1,0,0,0,40,37V9a9.011,9.011,0,0,0-9-9H9A9.011,9.011,0,0,0,0,9V44a9.011,9.011,0,0,0,9,9M2,9A7.008,7.008,0,0,1,9,2H31a7.008,7.008,0,0,1,7,7V36H32a9.011,9.011,0,0,0-9,9v6H9a7.008,7.008,0,0,1-7-7Z" fill="#fff"/>
    <path id="Path_13297" data-name="Path 13297" d="M28,20H12a1,1,0,0,0,0,2H28a1,1,0,0,0,0-2" fill="#fff"/>
    <path id="Path_13298" data-name="Path 13298" d="M28,25H12a1,1,0,0,0,0,2H28a1,1,0,0,0,0-2" fill="#fff"/>
    <path id="Path_13299" data-name="Path 13299" d="M19,30H12a1,1,0,0,0,0,2h7a1,1,0,0,0,0-2" fill="#fff"/>
  </g>
</svg>
