<svg xmlns="http://www.w3.org/2000/svg" width="45.597" height="53.77" viewBox="0 0 45.597 53.77">
  <g id="Group_217" data-name="Group 217" transform="translate(0 0)">
    <g id="Group_235" data-name="Group 235">
      <path id="Path_13300" data-name="Path 13300" d="M41.157,23.32v-.01a4.311,4.311,0,0,0-1.7.35l-.67.28-.18-.71a4.451,4.451,0,0,0-5.38-3.22c-.22.06-.43.13-.64.21l-.66.28-.18-.7a4.458,4.458,0,0,0-4.31-3.35,4.509,4.509,0,0,0-1.58.29l-.84.32V10.72a4.454,4.454,0,0,0-4.44-4.43h-.01a4.43,4.43,0,0,0-4.42,4.43V34.5l-8.36-6.09A5.195,5.195,0,0,0,1,28.89a3.446,3.446,0,0,0,0,4.85l16.17,16.18a13.106,13.106,0,0,0,9.25,3.85h5.44a13.1,13.1,0,0,0,13.1-12.5l.64-13.56a4.439,4.439,0,0,0-4.44-4.39m1.81,17.85a11.1,11.1,0,0,1-11.11,10.6h-5.42a11.1,11.1,0,0,1-7.85-3.26L2.407,32.33a1.443,1.443,0,0,1,0-2.02,3.035,3.035,0,0,1,2.26-.93h.01a3.223,3.223,0,0,1,1.93.65l9.95,7.24a1,1,0,0,0,1.4-.21,1.036,1.036,0,0,0,.19-.59V10.72a2.454,2.454,0,0,1,2.44-2.43,2.424,2.424,0,0,1,2.42,2.43V27.89a1,1,0,0,0,2,0V20.87a2.431,2.431,0,0,1,4.86-.02v7.04a1.005,1.005,0,0,0,2.01,0V24.3a2.43,2.43,0,0,1,4.86,0l.01,3.71a1,1,0,0,0,1.99-.13v-.14a2.436,2.436,0,0,1,4.87-.11Z" fill="#fff"/>
      <path id="Path_13301" data-name="Path 13301" d="M30.577,14.51a1.038,1.038,0,0,1-1.29.59,1.006,1.006,0,0,1-.58-1.29,8.7,8.7,0,0,0-8.13-11.8,8.8,8.8,0,0,0-3.1.57A8.714,8.714,0,0,0,12.448,13.8a1.012,1.012,0,0,1-.231,1.07.965.965,0,0,1-.7.29.99.99,0,0,1-.71-.29v-.01a1.181,1.181,0,0,1-.23-.35A10.694,10.694,0,0,1,24.387.71a10.7,10.7,0,0,1,6.19,13.8" fill="#fff"/>
    </g>
  </g>
</svg>
