<svg xmlns="http://www.w3.org/2000/svg" width="162" height="144" fill="none" viewBox="0 0 162 144">
  <g clip-path="url(#clip0_147_1109)">
    <path fill="url(#paint0_linear_147_1109)" d="M108.491 14.008v115.724a13.997 13.997 0 01-8.656 12.94 14 14 0 01-5.364 1.06h-80.48a13.984 13.984 0 01-12.928-8.643A13.99 13.99 0 010 129.732v-91.2l18.71-18.71L38.54.022h55.93a14.023 14.023 0 0114.02 13.986z"/>
    <path fill="url(#paint1_linear_147_1109)" d="M34.183 34.704L.008 68.879V38.532L18.72 19.819l15.462 14.885z" style="mix-blend-mode:multiply"/>
    <path fill="url(#paint2_linear_147_1109)" d="M38.546 0v24.541a13.986 13.986 0 01-14 13.991H.005L38.545 0z"/>
    <path fill="url(#paint3_linear_147_1109)" d="M79.956 75.644H28.534a3.4 3.4 0 000 6.792h51.422a3.4 3.4 0 000-6.792z"/>
    <path fill="url(#paint4_linear_147_1109)" d="M28.534 68.879h51.422a3.4 3.4 0 000-6.792H28.534a3.4 3.4 0 000 6.792z"/>
    <path fill="url(#paint5_linear_147_1109)" d="M79.956 89.202H28.534a3.4 3.4 0 000 6.792h51.422a3.4 3.4 0 000-6.792z"/>
    <path fill="url(#paint6_linear_147_1109)" d="M50.846 102.759H28.53a3.4 3.4 0 000 6.792h22.315a3.4 3.4 0 000-6.792z"/>
    <path fill="url(#paint7_linear_147_1109)" d="M0 125.565v4.167a14.01 14.01 0 0014.023 14h80.472a13.992 13.992 0 0012.933-8.642 13.971 13.971 0 001.062-5.358V16.277C50.939 36.632 78.834 124.562 0 125.565z" style="mix-blend-mode:multiply"/>
    <path fill="url(#paint8_linear_147_1109)" d="M159.366 68.892h1.96v-3.52h-91.47v3.52h1.96a1.07 1.07 0 011.06 1.07v4.02a1.062 1.062 0 01-1.06 1.06h-1.96v52.07h1.96c.099-.004.198.013.29.05a1.058 1.058 0 01.77 1.01v4.03a1.069 1.069 0 01-1.06 1.06h-1.96v3.53h91.47v-3.53h-1.96a1.07 1.07 0 01-.748-.312 1.07 1.07 0 01-.312-.748v-4.03a1.07 1.07 0 01.312-.748 1.07 1.07 0 01.748-.312h1.96v-52.07h-1.96a1.06 1.06 0 01-1.06-1.06v-4.02a1.072 1.072 0 011.06-1.07zm-14.52 1.07a1.059 1.059 0 011.06-1.06h6.67a1.06 1.06 0 011.06 1.06v4.02a1.066 1.066 0 01-1.06 1.06h-6.67a1.068 1.068 0 01-1.06-1.06v-4.02zm-13.46 0a1.059 1.059 0 011.06-1.06h6.67a1.059 1.059 0 011.06 1.06v4.02a1.066 1.066 0 01-1.06 1.06h-6.67a1.068 1.068 0 01-1.06-1.06v-4.02zm-13.46 0a1.05 1.05 0 01.653-.98c.129-.054.268-.08.407-.08h6.67a1.06 1.06 0 011.06 1.06v4.02a1.066 1.066 0 01-1.06 1.06h-6.67a1.06 1.06 0 01-1.06-1.06v-4.02zm-13.46 0a1.05 1.05 0 01.653-.98c.129-.054.268-.08.407-.08h6.67a1.06 1.06 0 011.06 1.06v4.02a1.066 1.066 0 01-1.06 1.06h-6.67a1.06 1.06 0 01-1.06-1.06v-4.02zm-13.46 0a1.054 1.054 0 011.06-1.06h6.67a1.06 1.06 0 011.06 1.06v4.02a1.067 1.067 0 01-1.06 1.06h-6.67a1.06 1.06 0 01-1.06-1.06v-4.02zm-13.46 0a1.054 1.054 0 011.06-1.06h6.67a1.06 1.06 0 011.06 1.06v4.02a1.067 1.067 0 01-1.06 1.06h-6.67a1.061 1.061 0 01-1.06-1.06v-4.02zm8.79 62.24a1.068 1.068 0 01-1.06 1.06h-6.67a1.059 1.059 0 01-1.06-1.06v-4.02a1.06 1.06 0 011.06-1.07h6.67a1.065 1.065 0 011.06 1.07v4.02zm13.46 0a1.068 1.068 0 01-1.06 1.06h-6.67a1.059 1.059 0 01-1.06-1.06v-4.02a1.06 1.06 0 011.06-1.07h6.67a1.067 1.067 0 011.06 1.07v4.02zm13.46 0a1.067 1.067 0 01-1.06 1.06h-6.67c-.281 0-.551-.112-.749-.311a1.057 1.057 0 01-.311-.749v-4.02a1.055 1.055 0 01.308-.755 1.048 1.048 0 01.752-.315h6.67a1.067 1.067 0 011.06 1.07v4.02zm13.46 0a1.067 1.067 0 01-1.06 1.06h-6.67c-.281 0-.551-.112-.749-.311a1.057 1.057 0 01-.311-.749v-4.02a1.055 1.055 0 01.308-.755 1.048 1.048 0 01.752-.315h6.67a1.067 1.067 0 011.06 1.07v4.02zm13.46 0a1.067 1.067 0 01-1.06 1.06h-6.67a1.07 1.07 0 01-.748-.312 1.07 1.07 0 01-.312-.748v-4.02c0-.163.037-.324.11-.47a1.07 1.07 0 01.95-.6h6.67a1.067 1.067 0 011.06 1.07v4.02zm13.46 0a1.067 1.067 0 01-1.06 1.06h-6.67a1.07 1.07 0 01-.748-.312 1.07 1.07 0 01-.312-.748v-4.02a1.067 1.067 0 011.06-1.07h6.67a1.067 1.067 0 011.06 1.07v4.02z"/>
    <g opacity=".27" style="mix-blend-mode:overlay">
      <path fill="#0A141D" d="M145.229 78.187H85.951a2.805 2.805 0 00-2.805 2.805v40.175a2.805 2.805 0 002.805 2.805h59.278a2.805 2.805 0 002.805-2.805V80.992a2.805 2.805 0 00-2.805-2.805zM161.327 78.187v45.788h-6.019a2.817 2.817 0 01-2.8-2.809V80.995a2.807 2.807 0 012.8-2.808h6.019zM78.674 80.995v40.171a2.817 2.817 0 01-2.8 2.809h-6.019V78.187h6.019a2.81 2.81 0 012.8 2.808z" opacity=".27"/>
    </g>
    <path fill="#fff" d="M123.895 98.403l-10.483-7.291a3.262 3.262 0 00-5.123 2.677v14.582a3.26 3.26 0 005.123 2.677l10.483-7.291a3.262 3.262 0 000-5.354z"/>
    <g opacity=".5" style="mix-blend-mode:overlay">
      <path fill="url(#paint9_linear_147_1109)" d="M159.366 68.892h1.96v-3.52h-35.21c-.44 1.16-.92 2.34-1.42 3.53h.96a1.06 1.06 0 011.06 1.06v4.02a1.066 1.066 0 01-1.06 1.06h-3.72a114.934 114.934 0 01-49.83 52.12 1.058 1.058 0 01.77 1.01v4.03a1.069 1.069 0 01-1.06 1.06h-1.96v3.53h43.57c2.65-1.07 5.32-2.24 7.98-3.53h-2.42c-.281 0-.551-.112-.749-.311a1.057 1.057 0 01-.311-.749v-4.02a1.055 1.055 0 01.308-.755 1.048 1.048 0 01.752-.315h6.67a1.067 1.067 0 011.06 1.07v2.32c1.6-.88 3.2-1.81 4.78-2.79.32-.19.64-.39.95-.6h.01a107.96 107.96 0 0028.87-26.46v-25.61h-1.96a1.06 1.06 0 01-1.06-1.06v-4.02a1.072 1.072 0 011.06-1.07zm-73.03 63.31a1.068 1.068 0 01-1.06 1.06h-6.67a1.059 1.059 0 01-1.06-1.06v-4.02a1.06 1.06 0 011.06-1.07h6.67a1.065 1.065 0 011.06 1.07v4.02zm13.46 0a1.068 1.068 0 01-1.06 1.06h-6.67a1.059 1.059 0 01-1.06-1.06v-4.02a1.06 1.06 0 011.06-1.07h6.67a1.067 1.067 0 011.06 1.07v4.02zm13.46 0a1.067 1.067 0 01-1.06 1.06h-6.67c-.281 0-.551-.112-.749-.311a1.057 1.057 0 01-.311-.749v-4.02a1.055 1.055 0 01.308-.755 1.048 1.048 0 01.752-.315h6.67a1.067 1.067 0 011.06 1.07v4.02zm26.92-58.22a1.066 1.066 0 01-1.06 1.06h-6.67a1.068 1.068 0 01-1.06-1.06v-4.02a1.059 1.059 0 011.06-1.06h6.67a1.059 1.059 0 011.06 1.06v4.02zm13.46 0a1.066 1.066 0 01-1.06 1.06h-6.67a1.068 1.068 0 01-1.06-1.06v-4.02a1.059 1.059 0 011.06-1.06h6.67a1.06 1.06 0 011.06 1.06v4.02z" opacity=".5" style="mix-blend-mode:overlay"/>
    </g>
  </g>
  <defs>
    <linearGradient id="paint0_linear_147_1109" x1="112.614" x2="-9.48" y1="74.033" y2="71.411" gradientUnits="userSpaceOnUse">
      <stop stop-color="#fff"/>
      <stop offset="1" stop-color="#CDD4F0"/>
    </linearGradient>
    <linearGradient id="paint1_linear_147_1109" x1="15.113" x2="18.39" y1="65.641" y2="42.327" gradientUnits="userSpaceOnUse">
      <stop stop-color="#fff"/>
      <stop offset="1" stop-color="#CDD4F0"/>
    </linearGradient>
    <linearGradient id="paint2_linear_147_1109" x1="39.432" x2="-2.038" y1="20.037" y2="18.456" gradientUnits="userSpaceOnUse">
      <stop stop-color="#fff"/>
      <stop offset="1" stop-color="#CDD4F0"/>
    </linearGradient>
    <linearGradient id="paint3_linear_147_1109" x1="124.7" x2="122.466" y1="32.277" y2="139.97" gradientUnits="userSpaceOnUse">
      <stop offset=".004" stop-color="#CCD5DB"/>
      <stop offset="1" stop-color="#6E6FD2"/>
    </linearGradient>
    <linearGradient id="paint4_linear_147_1109" x1="118.505" x2="116.272" y1="22.829" y2="130.522" gradientUnits="userSpaceOnUse">
      <stop offset=".004" stop-color="#CCD5DB"/>
      <stop offset="1" stop-color="#6E6FD2"/>
    </linearGradient>
    <linearGradient id="paint5_linear_147_1109" x1="130.894" x2="128.661" y1="41.719" y2="149.412" gradientUnits="userSpaceOnUse">
      <stop offset=".004" stop-color="#CCD5DB"/>
      <stop offset="1" stop-color="#6E6FD2"/>
    </linearGradient>
    <linearGradient id="paint6_linear_147_1109" x1="132.118" x2="122.379" y1="44.477" y2="161.201" gradientUnits="userSpaceOnUse">
      <stop offset=".004" stop-color="#CCD5DB"/>
      <stop offset="1" stop-color="#6E6FD2"/>
    </linearGradient>
    <linearGradient id="paint7_linear_147_1109" x1="-1713.27" x2="-1820.68" y1="80.004" y2="80.004" gradientUnits="userSpaceOnUse">
      <stop stop-color="#fff"/>
      <stop offset="1" stop-color="#CDD4F0"/>
    </linearGradient>
    <linearGradient id="paint8_linear_147_1109" x1="68.392" x2="148.642" y1="146.862" y2="19.276" gradientUnits="userSpaceOnUse">
      <stop stop-color="#6E00FF"/>
      <stop offset="1" stop-color="#FB95FB"/>
    </linearGradient>
    <linearGradient id="paint9_linear_147_1109" x1="137.086" x2="114.876" y1="131.507" y2="79.958" gradientUnits="userSpaceOnUse">
      <stop stop-color="#fff"/>
      <stop offset="1" stop-color="#fff" stop-opacity="0"/>
    </linearGradient>
    <clipPath id="clip0_147_1109">
      <path fill="#fff" d="M0 0h161.327v143.728H0z"/>
    </clipPath>
  </defs>
</svg>
