<svg xmlns="http://www.w3.org/2000/svg" width="41" height="41" fill="currentColor" viewBox="0 0 41 41">
  <path d="M5.91 33.906l.062-.998-.03-.002H5.91v1zm-.01 0l-.062.998.031.002H5.9v-1zm-4.58-4.47l.996-.086-.996.086zm-.02-14.45l-.996-.093v.008l.996.085zm.03-.32l.996.093v-.01l-.996-.083zm4.58-4.48l-.061-.998.061.998zm11.76-.37v-1h-.002l.002 1zm11.76.37l-.063.998.031.002h.032v-1zm.01 0l.064-.998-.032-.002h-.032v1zm4.58 4.48l-.996.086.001.02.003.018.992-.124zm.02.16l.996-.084-.001-.02-.003-.02-.992.124zM8.18 30.37l.07-.998-.035-.002H8.18v1zm-.01 0l-.098.995.049.005h.049v-1zm-2.99-3.14l.999-.05-.001-.016-.001-.016-.997.082zm-.01-10.14l-.995-.095-.001.009-.001.008.997.078zm.02-.21l.995.095.003-.024v-.024l-.998-.047zm2.99-3.15l-.07-.998-.015.002h-.014l.099.996zm15.3 0l.07-.998-.07.998zm2.04.97l.732-.682-.003-.003-.729.685zm.95 2.17l-.997.075v.008l.001.008.996-.091zm.01.11l.997-.077-.001-.013-.996.09zm-9.587-6.538a1 1 0 001.56-1.25l-1.56 1.25zm-2.459-6.265a1 1 0 10-1.56 1.25l1.56-1.25zM23.88 1.55a1 1 0 00-1.67-1.1l1.67 1.1zm-7.307 7.453a1 1 0 001.67 1.1l-1.67-1.1zm15.856 31.395a1 1 0 00-.604-1.906l.604 1.906zm-14.266-9.736l-.992.127.002.014.99-.141zm-.1-1.5h-1v.006l1-.006zm8.54-10.55l.208.978h.005l-.213-.978zm2.25-.24l-.002 1 .002-1zm7.952 16.49a1 1 0 101.626 1.163l-1.626-1.164zM24.457 30.77a1 1 0 10.436 1.952l-.436-1.952zm8.146 2.843a1 1 0 10.87-1.802l-.87 1.802zm-9.406-8.53a1 1 0 10.436 1.95l-.436-1.95zm11.612 3.125a1 1 0 00.832-1.818l-.832 1.818zm-10.989-.316a1 1 0 10.436 1.952l-.436-1.952zm9.895 2.982a1 1 0 10.846-1.812l-.846 1.812zm-14.364 2.391c-4.456.04-8.916-.08-13.379-.358l-.124 1.996c4.51.281 9.017.402 13.52.362l-.017-2zm-13.441-.36H5.9v2h.01v-2zm.052.002a3.9 3.9 0 01-2.484-1.102L2.08 33.238a5.9 5.9 0 003.757 1.666l.124-1.996zm-2.484-1.102a3.9 3.9 0 01-1.162-2.456l-1.992.172a5.9 5.9 0 001.757 3.716l1.397-1.432zM2.316 29.35A83.808 83.808 0 012 22.076H0c0 2.486.108 4.968.324 7.447l1.992-.174zM2 22.076c0-2.342.099-4.677.296-7.005L.304 14.9A84.808 84.808 0 000 22.076h2zm.296-6.997l.03-.32-1.992-.186-.03.32 1.992.186zm.03-.33a3.9 3.9 0 011.16-2.46l-1.399-1.43a5.9 5.9 0 00-1.753 3.723l1.992.168zm1.16-2.46a3.9 3.9 0 012.486-1.105l-.124-1.996a5.9 5.9 0 00-3.76 1.67l1.398 1.43zm2.485-1.105c3.9-.239 7.8-.361 11.7-.368l-.003-2c-3.94.007-7.88.13-11.82.372l.123 1.996zm11.699-.368c3.912 0 7.811.123 11.697.368l.126-1.996a187.573 187.573 0 00-11.823-.372v2zm11.76.37h.01v-2h-.01v2zm-.054-.002c.934.06 1.816.453 2.485 1.108l1.399-1.43a5.913 5.913 0 00-3.756-1.674l-.128 1.996zm2.485 1.108a3.913 3.913 0 011.163 2.46l1.992-.172a5.913 5.913 0 00-1.756-3.718l-1.399 1.43zm1.167 2.498l.02.16 1.984-.248-.02-.16-1.984.248zm.016.12a91.32 91.32 0 01.277 4.926l1.998-.06a93.292 93.292 0 00-.283-5.034l-1.992.168zM18.116 29.6c-3.288.08-6.587 0-9.867-.228l-.138 1.996c3.34.232 6.701.313 10.053.232l-.048-2zm-9.936-.23h-.01v2h.01v-2zm.088.005a2.32 2.32 0 01-1.452-.71l-1.449 1.38a4.32 4.32 0 002.705 1.32l.196-1.99zm-1.452-.71a2.32 2.32 0 01-.637-1.484l-1.998.098a4.32 4.32 0 001.186 2.766l1.449-1.38zm-.64-1.517a61.341 61.341 0 01-.196-5.028h-2c0 1.723.06 3.461.203 5.192l1.994-.164zM5.98 22.12c0-1.656.06-3.31.187-4.952l-1.994-.156a65.845 65.845 0 00-.193 5.108h2zm.185-4.935l.02-.21-1.99-.19-.02.21 1.99.19zm.024-.258a2.322 2.322 0 01.635-1.49l-1.45-1.377a4.322 4.322 0 00-1.183 2.773l1.998.094zm.635-1.49c.384-.404.9-.657 1.455-.712l-.198-1.99a4.322 4.322 0 00-2.707 1.325l1.45 1.377zm1.427-.71c2.514-.178 5.05-.257 7.579-.257v-2c-2.57 0-5.155.08-7.72.262l.14 1.995zm7.579-.257c2.53 0 5.056.08 7.58.257l.14-1.995c-2.576-.181-5.15-.262-7.72-.262v2zm7.58.257a2.1 2.1 0 011.381.658l1.458-1.37a4.1 4.1 0 00-2.698-1.283l-.142 1.995zm1.378.655c.4.428.64.98.685 1.563l1.994-.15a4.577 4.577 0 00-1.215-2.777l-1.464 1.364zm.686 1.579l.01.11 1.992-.181-.01-.11-1.992.18zm.009.096c.04.522.079 1.033.098 1.531l1.998-.076c-.02-.542-.062-1.09-.102-1.609l-1.994.154zm-7.03-7.865l-4.019-5.015-1.56 1.25 4.019 5.015 1.56-1.25zM22.21.45l-5.637 8.553 1.67 1.1L23.88 1.55 22.21.45zm9.615 38.042a9.806 9.806 0 01-4.207.378l-.254 1.984a11.81 11.81 0 005.065-.456l-.604-1.906zm-4.207.378a9.806 9.806 0 01-3.977-1.426l-1.065 1.693c1.453.913 3.086 1.5 4.788 1.717l.254-1.984zm-3.977-1.426a9.807 9.807 0 01-3.007-2.966l-1.678 1.088a11.808 11.808 0 003.62 3.571l1.065-1.693zm-3.007-2.966a9.808 9.808 0 01-1.48-3.957l-1.981.282c.241 1.698.85 3.323 1.783 4.763l1.678-1.088zm-1.48-3.943c-.058-.457-.088-.918-.091-1.378l-2 .01c.003.543.04 1.084.108 1.622l1.984-.254zm-.091-1.373c0-2.242.768-4.416 2.179-6.159l-1.555-1.258a11.781 11.781 0 00-2.624 7.417h2zm2.179-6.159a9.78 9.78 0 015.569-3.413l-.416-1.956a11.78 11.78 0 00-6.708 4.111l1.555 1.258zm5.574-3.414a9.48 9.48 0 012.035-.217l.004-2a11.481 11.481 0 00-2.465.263l.426 1.954zm2.036-.217c1.799.002 3.562.5 5.097 1.438l1.043-1.706a11.793 11.793 0 00-6.138-1.732l-.002 2zm5.097 1.438a9.792 9.792 0 013.603 3.881l1.779-.913a11.793 11.793 0 00-4.339-4.674L33.95 20.81zm3.603 3.881a9.793 9.793 0 011.054 5.19l1.995.147c.159-2.16-.28-4.323-1.27-6.25l-1.78.913zm1.054 5.19a9.792 9.792 0 01-1.801 4.98l1.626 1.164a11.792 11.792 0 002.17-5.997l-1.995-.147zm-13.713 2.842a11.818 11.818 0 017.71.89l.87-1.8a13.818 13.818 0 00-9.016-1.042l.436 1.952zm-1.26-5.688a17.613 17.613 0 0111.176 1.174l.832-1.818a19.612 19.612 0 00-12.444-1.308l.436 1.952zm.623 2.81c3.18-.71 6.506-.348 9.459 1.03l.846-1.812a16.755 16.755 0 00-10.741-1.17l.436 1.952z"/>
</svg>
