<svg xmlns="http://www.w3.org/2000/svg" xmlns:xlink="http://www.w3.org/1999/xlink" width="40.633" height="40.952" viewBox="0 0 40.633 40.952">
  <defs>
    <clipPath id="clip-path">
      <rect id="Rectangle_51" data-name="Rectangle 51" width="40.633" height="40.952" transform="translate(0 0)" fill="none" stroke="#00f1d7" stroke-width="1"/>
    </clipPath>
  </defs>
  <g id="Group_70" data-name="Group 70" transform="translate(0 0)">
    <g id="Group_69" data-name="Group 69" clip-path="url(#clip-path)">
      <path id="Path_35" data-name="Path 35" d="M19.36,34.266q-6.72.06-13.45-.36H5.9a4.9,4.9,0,0,1-4.58-4.47Q1,25.761,1,22.076q0-3.555.3-7.09l.03-.32a4.9,4.9,0,0,1,4.58-4.48q5.88-.36,11.76-.37,5.9,0,11.76.37h.01a4.913,4.913,0,0,1,4.58,4.48l.02.16c.14,1.66.23,3.32.28,4.98" fill="none" stroke="#00f1d7" stroke-width="2"/>
      <path id="Path_36" data-name="Path 36" d="M18.14,30.6c-3.32.08-6.65,0-9.96-.23H8.17a3.32,3.32,0,0,1-2.99-3.14c-.14-1.7-.2-3.41-.2-5.11,0-1.68.06-3.36.19-5.03l.02-.21a3.322,3.322,0,0,1,2.99-3.15c2.54-.18,5.1-.26,7.65-.26s5.1.08,7.65.26a3.1,3.1,0,0,1,2.04.97,3.577,3.577,0,0,1,.95,2.17l.01.11c.04.52.08,1.05.1,1.57" fill="none" stroke="#00f1d7" stroke-width="2"/>
      <line id="Line_10" data-name="Line 10" x1="4.019" y1="5.015" transform="translate(13.654 4.802)" fill="none" stroke="#00f1d7" stroke-linecap="round" stroke-linejoin="round" stroke-width="2"/>
      <line id="Line_11" data-name="Line 11" x1="5.637" y2="8.553" transform="translate(17.408 1)" fill="none" stroke="#00f1d7" stroke-linecap="round" stroke-linejoin="round" stroke-width="2"/>
      <path id="Path_37" data-name="Path 37" d="M32.127,39.445a10.807,10.807,0,0,1-13.964-8.783,12.321,12.321,0,0,1-.1-1.5,10.781,10.781,0,0,1,8.54-10.55,10.479,10.479,0,0,1,2.25-.24,10.792,10.792,0,0,1,8.765,17.071" fill="none" stroke="#00f1d7" stroke-linecap="round" stroke-linejoin="round" stroke-width="2"/>
      <line id="Line_12" data-name="Line 12" transform="translate(35.225 37.866)" fill="none" stroke="#00f1d7" stroke-linecap="round" stroke-linejoin="round" stroke-width="2"/>
      <path id="Path_38" data-name="Path 38" d="M24.675,31.747a12.818,12.818,0,0,1,8.363.966" fill="none" stroke="#00f1d7" stroke-linecap="round" stroke-linejoin="round" stroke-width="2"/>
      <path id="Path_39" data-name="Path 39" d="M23.415,26.059A18.613,18.613,0,0,1,35.225,27.3" fill="none" stroke="#00f1d7" stroke-linecap="round" stroke-linejoin="round" stroke-width="2"/>
      <path id="Path_40" data-name="Path 40" d="M24.038,28.869a15.755,15.755,0,0,1,10.1,1.1" fill="none" stroke="#00f1d7" stroke-linecap="round" stroke-linejoin="round" stroke-width="2"/>
    </g>
  </g>
</svg>
