<svg xmlns="http://www.w3.org/2000/svg" width="40.173" height="39.192" viewBox="0 0 40.173 39.192">
  <g id="Group_89" data-name="Group 89" transform="translate(-703.174 -485.792)">
    <path id="Path_108" data-name="Path 108" d="M723.1,500.637a1.052,1.052,0,0,0,0-1.69l-4.591-3.408a1.053,1.053,0,0,0-1.68.845V503.2a1.052,1.052,0,0,0,1.68.845Z" fill="#00f1d7"/>
    <path id="Path_109" data-name="Path 109" d="M724.347,511.984h-2a3,3,0,0,0-3,3v5a1,1,0,0,0,2,0v-2h2v2a1,1,0,0,0,2,0v-7A1,1,0,0,0,724.347,511.984Zm-1,4h-2v-1a1,1,0,0,1,1-1h1Z" fill="#00f1d7"/>
    <path id="Path_110" data-name="Path 110" d="M729.347,511.984h-2a1,1,0,0,0-1,1v7a1,1,0,0,0,1,1h2a3,3,0,0,0,3-3v-3A3,3,0,0,0,729.347,511.984Zm1,6a1,1,0,0,1-1,1h-1v-5h1a1,1,0,0,1,1,1Z" fill="#00f1d7"/>
    <path id="Path_111" data-name="Path 111" d="M736.1,513.984h2.25a1,1,0,0,0,0-2H736.1a2.75,2.75,0,0,0,0,5.5h.5a.75.75,0,0,1,0,1.5h-2.25a1,1,0,0,0,0,2h2.25a2.75,2.75,0,0,0,0-5.5h-.5a.75.75,0,0,1,0-1.5Z" fill="#00f1d7"/>
    <path id="Path_112" data-name="Path 112" d="M740.347,507.984h-3.173V490.239a4.452,4.452,0,0,0-4.447-4.447h-25.1a4.452,4.452,0,0,0-4.448,4.447v19.106a4.452,4.452,0,0,0,4.448,4.447h7.725v8.192a3,3,0,0,0,3,3h22a3,3,0,0,0,3-3v-11A3,3,0,0,0,740.347,507.984Zm-25,3v.808h-7.725a2.45,2.45,0,0,1-2.448-2.447V490.239a2.45,2.45,0,0,1,2.448-2.447h25.1a2.45,2.45,0,0,1,2.447,2.447v17.745H733V507h-3v.984H718.347A3,3,0,0,0,715.347,510.984Zm26,11a1,1,0,0,1-1,1h-22a1,1,0,0,1-1-1v-11a1,1,0,0,1,1-1h22a1,1,0,0,1,1,1Z" fill="#00f1d7"/>
    <rect id="Rectangle_52" data-name="Rectangle 52" width="3" height="2" transform="translate(707 491)" fill="#00f1d7"/>
    <rect id="Rectangle_53" data-name="Rectangle 53" width="3" height="2" transform="translate(707 495)" fill="#00f1d7"/>
    <rect id="Rectangle_54" data-name="Rectangle 54" width="3" height="2" transform="translate(707 499)" fill="#00f1d7"/>
    <rect id="Rectangle_55" data-name="Rectangle 55" width="3" height="2" transform="translate(707 503)" fill="#00f1d7"/>
    <rect id="Rectangle_56" data-name="Rectangle 56" width="3" height="2" transform="translate(707 507)" fill="#00f1d7"/>
    <rect id="Rectangle_57" data-name="Rectangle 57" width="3" height="2" transform="translate(730 491)" fill="#00f1d7"/>
    <rect id="Rectangle_58" data-name="Rectangle 58" width="3" height="2" transform="translate(730 495)" fill="#00f1d7"/>
    <rect id="Rectangle_59" data-name="Rectangle 59" width="3" height="2" transform="translate(730 499)" fill="#00f1d7"/>
    <rect id="Rectangle_60" data-name="Rectangle 60" width="3" height="2" transform="translate(730 503)" fill="#00f1d7"/>
  </g>
</svg>
