<svg id="Group_237" data-name="Group 237" xmlns="http://www.w3.org/2000/svg" xmlns:xlink="http://www.w3.org/1999/xlink" width="51.617" height="59.625" viewBox="0 0 51.617 59.625">
  <defs>
    <clipPath id="clip-path">
      <rect id="Rectangle_426" data-name="Rectangle 426" width="51.617" height="59.625" fill="#fff"/>
    </clipPath>
  </defs>
  <g id="Group_236" data-name="Group 236" clip-path="url(#clip-path)">
    <path id="Path_13344" data-name="Path 13344" d="M48.565,42.437A9.994,9.994,0,0,0,45,40.232a9.952,9.952,0,0,0-5.867-4.4L34.548,34.58l-1.377-2.059a2.7,2.7,0,0,0-3.8-.7V29.386A11.032,11.032,0,0,0,34.2,21.394h.791a2.581,2.581,0,0,0,2.578-2.579V17.01A2.576,2.576,0,0,0,36.316,14.8V9.541A9.552,9.552,0,0,0,26.775,0H19.714a9.552,9.552,0,0,0-9.541,9.541V14.8A2.576,2.576,0,0,0,8.919,17.01v1.805A2.581,2.581,0,0,0,11.5,21.394h.791a11.031,11.031,0,0,0,4.831,7.992v2.431a2.7,2.7,0,0,0-3.8.7L11.941,34.58,7.352,35.827A9.983,9.983,0,0,0,0,45.443v.99a1.008,1.008,0,1,0,2.016,0v-.99a7.966,7.966,0,0,1,5.865-7.671l4.431-1.2,4.911,4.3a3.141,3.141,0,0,0,4.106.012l1.915-1.656,1.915,1.656a3.14,3.14,0,0,0,4.106-.012l4.912-4.3,4.431,1.2a7.889,7.889,0,0,1,3.33,1.873c-.111,0-.22-.016-.332-.015l0,0A9.993,9.993,0,0,0,33.383,55.3H9.41V50.465a1.008,1.008,0,0,0-2.016,0V55.3h-2.2a3.176,3.176,0,0,1-3.173-3.172v-.982a1.008,1.008,0,1,0-2.016,0v.982a5.2,5.2,0,0,0,5.189,5.189H35.237A10,10,0,0,0,48.565,42.437M35.554,17.01v1.805a.562.562,0,0,1-.562.562h-.73V16.448h.73a.562.562,0,0,1,.562.562M12.226,19.377H11.5a.562.562,0,0,1-.562-.562V17.01a.562.562,0,0,1,.562-.562h.729Zm1.009-4.945H12.19V9.541a7.533,7.533,0,0,1,7.524-7.525h7.061A7.533,7.533,0,0,1,34.3,9.541v4.891H33.254a1.06,1.06,0,0,1-1.059-1.06V11.246a3.034,3.034,0,0,0-4.276-2.768,11.42,11.42,0,0,1-9.349,0,3.034,3.034,0,0,0-4.276,2.768v2.126a1.06,1.06,0,0,1-1.059,1.06m1.008,5.8V16.279a3.084,3.084,0,0,0,2.068-2.907V11.246a1.017,1.017,0,0,1,1.433-.928,13.448,13.448,0,0,0,11,0,1.017,1.017,0,0,1,1.433.928v2.126a3.084,3.084,0,0,0,2.068,2.907v3.953a9,9,0,1,1-18,0M20.01,39.358a1.114,1.114,0,0,1-1.458,0L13.9,35.279l1.1-1.636a.686.686,0,0,1,.994-.159l5.671,4.448Zm-.874-5.968V30.452a10.975,10.975,0,0,0,8.217,0V33.39l-4.109,3.223Zm8.8,5.964a1.114,1.114,0,0,1-1.458,0l-1.649-1.426L30.5,33.484a.687.687,0,0,1,1,.158l1.094,1.637Zm17.4,8.958-.024.024L41.5,52.154a1,1,0,0,1-1.414,0L37.9,49.974a1,1,0,0,1,0-1.414l0,0a1,1,0,0,1,1.414,0l1.475,1.475L43.9,46.922a1,1,0,1,1,1.438,1.39" fill="#fff"/>
  </g>
</svg>
