<svg xmlns="http://www.w3.org/2000/svg" width="40" height="39.68" viewBox="0 0 40 39.68">
  <g id="Group_81" data-name="Group 81" transform="translate(-900 -560)">
    <path id="Path_71" data-name="Path 71" d="M911.5,592a7.508,7.508,0,0,0,7.5-7.5v-10a7.5,7.5,0,0,0-15,0v10A7.508,7.508,0,0,0,911.5,592Zm0-2a5.506,5.506,0,0,1-5.475-5h10.95A5.506,5.506,0,0,1,911.5,590Zm0-21a5.506,5.506,0,0,1,5.475,5H914a1,1,0,0,0,0,2h3v1h-3a1,1,0,0,0,0,2h3v1h-3a1,1,0,0,0,0,2h3v1H906v-1h3a1,1,0,0,0,0-2h-3v-1h3a1,1,0,0,0,0-2h-3v-1h3a1,1,0,0,0,0-2h-2.975A5.506,5.506,0,0,1,911.5,569Z" fill="#00f1d7"/>
    <path id="Path_72" data-name="Path 72" d="M922,579.5a1,1,0,0,0-1,1v4a9.5,9.5,0,0,1-19,0v-4a1,1,0,0,0-2,0v4a11.51,11.51,0,0,0,10.5,11.449v1.731H907a1,1,0,0,0,0,2h9a1,1,0,0,0,0-2h-3.5v-1.731A11.51,11.51,0,0,0,923,584.5v-4A1,1,0,0,0,922,579.5Z" fill="#00f1d7"/>
    <path id="Path_73" data-name="Path 73" d="M931,560a8.984,8.984,0,0,0-7.2,14.378l-.866,2.865a1,1,0,0,0,1.429,1.172l2.594-1.39A8.994,8.994,0,1,0,931,560Zm0,16a6.952,6.952,0,0,1-3.531-.973,1,1,0,0,0-.98-.02l-.943.505.32-1.057a1,1,0,0,0-.2-.937A6.989,6.989,0,1,1,931,576Z" fill="#00f1d7"/>
    <path id="Path_74" data-name="Path 74" d="M934,567h-6a1,1,0,0,0,0,2h6a1,1,0,0,0,0-2Z" fill="#00f1d7"/>
    <path id="Path_75" data-name="Path 75" d="M931,570h-3a1,1,0,0,0,0,2h3a1,1,0,0,0,0-2Z" fill="#00f1d7"/>
  </g>
</svg>
