<svg xmlns="http://www.w3.org/2000/svg" width="12.766" height="12.761" viewBox="0 0 12.766 12.761">
  <path id="Union_3" data-name="Union 3" d="M3.75,12.716a3.788,3.788,0,0,1-2.674-1.031A3.748,3.748,0,0,1,.045,9.011c-.06-1.058-.06-4.207,0-5.265A3.766,3.766,0,0,1,1.076,1.073,3.77,3.77,0,0,1,3.75.045C4.238.017,5.247,0,6.383,0S8.528.017,9.016.045A3.777,3.777,0,0,1,11.69,1.076a3.748,3.748,0,0,1,1.031,2.674c.06,1.057.06,4.2,0,5.262a3.775,3.775,0,0,1-1.031,2.674,3.752,3.752,0,0,1-2.674,1.031c-.488.028-1.5.045-2.633.045S4.238,12.743,3.75,12.716ZM3.014,6.583A3.443,3.443,0,1,0,6.456,3.141,3.446,3.446,0,0,0,3.014,6.583ZM9.028,2.975a.763.763,0,1,0,.763-.763A.764.764,0,0,0,9.028,2.975Zm-5.2,3.608A2.633,2.633,0,1,1,6.456,9.215,2.632,2.632,0,0,1,3.824,6.583Z" fill="#fff"/>
</svg>
