<svg xmlns="http://www.w3.org/2000/svg" width="186" height="45" fill="currentColor" viewBox="0 0 186 45">
  <g clip-path="url(#clip0_115_28)">
    <path d="M77.413 19.662a4.361 4.361 0 01-.656 2.331 4.467 4.467 0 01-1.9 1.7 6.62 6.62 0 01-3.032.634 7.17 7.17 0 01-4.435-1.312 4.756 4.756 0 01-1.9-3.666h4.116a2.2 2.2 0 00.634 1.426c.39.352.901.538 1.426.52a1.64 1.64 0 001.177-.407 1.429 1.429 0 00.424-1.086 1.385 1.385 0 00-.407-1.018 2.832 2.832 0 00-.973-.656 18.652 18.652 0 00-1.629-.634c-.849-.28-1.68-.61-2.489-.99a4.84 4.84 0 01-1.652-1.448 4.3 4.3 0 01-.679-2.512c-.02-.88.234-1.743.728-2.47a4.53 4.53 0 011.991-1.584 7.239 7.239 0 012.942-.566 6.523 6.523 0 014.231 1.273 4.82 4.82 0 011.788 3.485h-4.191a2.06 2.06 0 00-.588-1.245 1.634 1.634 0 00-1.245-.475 1.665 1.665 0 00-1.109.362 1.349 1.349 0 00-.407 1.064 1.42 1.42 0 00.362.973c.274.269.597.484.95.634.377.165.92.377 1.629.634.864.279 1.704.627 2.512 1.041a4.699 4.699 0 011.674 1.471c.496.745.744 1.628.707 2.523l.001-.002zm5.058-8.121l3.033 7.733 2.828-7.739h4.277l-7.874 18.649h-4.254l2.97-6.494-5.296-12.152 4.316.003zm19.433-.141a4.335 4.335 0 013.438 1.454 5.772 5.772 0 011.29 3.983v7.331h-3.866v-6.882a2.725 2.725 0 00-.679-1.969 2.27 2.27 0 00-1.765-.724 2.45 2.45 0 00-1.878.747 3.051 3.051 0 00-.679 2.121v6.7h-3.872V11.538h3.873v2.3a4.182 4.182 0 011.611-1.782 4.811 4.811 0 012.53-.656h-.003zm14.425 9.436v3.332h-1.735a5.092 5.092 0 01-3.463-1.094 4.707 4.707 0 01-1.222-3.643v-4.634h-1.7v-3.253h1.7V8.438h3.869v3.1h2.534v3.253h-2.533v4.707c-.039.372.066.745.294 1.041.299.223.67.328 1.041.294l1.215.003zm10.183-9.436a4.334 4.334 0 013.448 1.454 5.777 5.777 0 011.29 3.983v7.331h-3.875v-6.882a2.725 2.725 0 00-.679-1.969 2.27 2.27 0 00-1.765-.724 2.453 2.453 0 00-1.878.747 3.049 3.049 0 00-.679 2.121v6.7h-3.863V7.42h3.869v6.421a4.199 4.199 0 011.6-1.782 4.8 4.8 0 012.546-.656l-.014-.003zm19.275 6.11c-.004.35-.041.698-.113 1.041h-8.757c-.028.753.23 1.49.724 2.059a2.364 2.364 0 001.674.611 2.293 2.293 0 001.426-.424c.369-.273.633-.665.747-1.109h4.1a5.418 5.418 0 01-1.086 2.4 5.952 5.952 0 01-2.121 1.652 6.839 6.839 0 01-2.874.588 6.93 6.93 0 01-3.3-.769 5.663 5.663 0 01-2.24-2.263 6.98 6.98 0 01-.815-3.439 7.074 7.074 0 01.792-3.439 5.483 5.483 0 012.261-2.244 6.77 6.77 0 013.3-.792 6.86 6.86 0 013.3.769A5.34 5.34 0 01145 14.323c.54.975.812 2.076.788 3.191l-.001-.004zm-3.915-.588a2.269 2.269 0 00-.679-1.855 2.39 2.39 0 00-1.7-.634 2.534 2.534 0 00-1.765.634 2.655 2.655 0 00-.792 1.855h4.936zm10.526-5.548a5.746 5.746 0 013.818 1.2 5.188 5.188 0 011.81 3.168h-3.62a1.928 1.928 0 00-.724-1.2 2.085 2.085 0 00-1.38-.453 1.48 1.48 0 00-.99.294.953.953 0 00-.339.792.943.943 0 00.611.882 10.28 10.28 0 001.969.588c.807.18 1.601.417 2.376.707a3.82 3.82 0 011.607 1.131c.477.6.718 1.355.679 2.121a3.247 3.247 0 01-.588 1.923 3.863 3.863 0 01-1.7 1.312 6.619 6.619 0 01-2.625.475 6.76 6.76 0 01-4.1-1.131 4.776 4.776 0 01-1.878-3.236h3.734a1.705 1.705 0 00.679 1.245c.462.3 1.006.448 1.556.424.355.024.706-.08.99-.294a1.05 1.05 0 00.339-.815.943.943 0 00-.634-.928 10.345 10.345 0 00-2.014-.611 16.306 16.306 0 01-2.308-.634 3.874 3.874 0 01-1.556-1.086 3.112 3.112 0 01-.656-2.074 3.351 3.351 0 011.29-2.738 5.577 5.577 0 013.664-1.052l-.01-.01zm10.877.158l3.032 7.739 2.828-7.739h4.277l-7.875 18.642h-4.254l2.97-6.494-5.295-12.151 4.317.003zm16.016-.158a5.746 5.746 0 013.818 1.2 5.183 5.183 0 011.81 3.168h-3.62a1.934 1.934 0 00-.724-1.2 2.085 2.085 0 00-1.38-.453 1.48 1.48 0 00-.99.294.962.962 0 00-.339.791.943.943 0 00.611.882 10.28 10.28 0 001.969.588c.807.18 1.601.417 2.376.707.625.23 1.179.62 1.607 1.131.476.601.718 1.355.679 2.121a3.27 3.27 0 01-.588 1.923 3.874 3.874 0 01-1.7 1.312 6.622 6.622 0 01-2.625.475 6.76 6.76 0 01-4.1-1.131 4.776 4.776 0 01-1.878-3.236h3.734a1.705 1.705 0 00.679 1.245c.462.3 1.006.448 1.556.424.355.024.706-.08.99-.294a1.05 1.05 0 00.339-.815.943.943 0 00-.634-.928 10.341 10.341 0 00-2.015-.604 16.306 16.306 0 01-2.308-.634 3.848 3.848 0 01-1.556-1.086 3.116 3.116 0 01-.655-2.08 3.351 3.351 0 011.29-2.738 5.582 5.582 0 013.661-1.052l-.007-.01zM32.815 39.788a3.462 3.462 0 01-3.459-3.458V6.992a1.2 1.2 0 10-2.394 0v16.36a3.459 3.459 0 11-6.918 0V3.46a1.2 1.2 0 10-2.393 0v28.179a3.46 3.46 0 01-6.918 0V12.828a1.2 1.2 0 00-2.394 0v4.616a1.13 1.13 0 01-1.131 1.13H1.131a1.13 1.13 0 110-2.261h4.943v-3.485a3.46 3.46 0 116.918 0v18.811a1.2 1.2 0 002.394 0V3.46a3.459 3.459 0 116.918 0v19.892a1.2 1.2 0 102.394 0V6.992a3.459 3.459 0 116.918 0V36.33a1.2 1.2 0 002.393 0V3.46a3.46 3.46 0 016.918 0v23.409a1.2 1.2 0 102.394 0v-9.425a1.131 1.131 0 011.131-1.131h5.981a1.13 1.13 0 110 2.261h-4.846v8.295a3.459 3.459 0 11-6.918 0V3.46a1.2 1.2 0 10-2.394 0v32.87a3.462 3.462 0 01-3.459 3.458"/>
  </g>
  <defs>
    <clipPath id="clip0_115_28">
      <path d="M0 0h185.11v44.325H0z"/>
    </clipPath>
  </defs>
</svg>
