<svg xmlns="http://www.w3.org/2000/svg" xmlns:xlink="http://www.w3.org/1999/xlink" width="55.187" height="54.553" viewBox="0 0 55.187 54.553">
  <defs>
    <clipPath id="clip-path">
      <rect id="Rectangle_423" data-name="Rectangle 423" width="55.187" height="54.553" transform="translate(0 0)" fill="#fff"/>
    </clipPath>
  </defs>
  <g id="Group_222" data-name="Group 222" transform="translate(0 0)">
    <g id="Group_221" data-name="Group 221" clip-path="url(#clip-path)">
      <path id="Path_13328" data-name="Path 13328" d="M13.637,19.23a1,1,0,0,0-1,1V31.672a1,1,0,0,0,2,0V20.23a1,1,0,0,0-1-1" fill="#fff"/>
      <path id="Path_13329" data-name="Path 13329" d="M17.759,22.363a1,1,0,0,0-1,1V28.54a1,1,0,0,0,2,0V23.363a1,1,0,0,0-1-1" fill="#fff"/>
      <path id="Path_13330" data-name="Path 13330" d="M21.881,20.362a1,1,0,0,0-1,1v9.18a1,1,0,0,0,2,0v-9.18a1,1,0,0,0-1-1" fill="#fff"/>
      <path id="Path_13331" data-name="Path 13331" d="M38.37,32.672a1,1,0,0,0,1-1V20.23a1,1,0,0,0-2,0V31.672a1,1,0,0,0,1,1" fill="#fff"/>
      <path id="Path_13332" data-name="Path 13332" d="M35.248,23.363a1,1,0,1,0-2,0V28.54a1,1,0,1,0,2,0Z" fill="#fff"/>
      <path id="Path_13333" data-name="Path 13333" d="M30.125,20.362a1,1,0,0,0-1,1v9.18a1,1,0,0,0,2,0v-9.18a1,1,0,0,0-1-1" fill="#fff"/>
      <path id="Path_13334" data-name="Path 13334" d="M26,18.056a1,1,0,0,0-1,1V32.934a1,1,0,0,0,2,0V19.056a1,1,0,0,0-1-1" fill="#fff"/>
      <path id="Path_13335" data-name="Path 13335" d="M26,12.922a1,1,0,0,0-1,1v.363a1,1,0,1,0,2,0v-.363a1,1,0,0,0-1-1" fill="#fff"/>
      <path id="Path_13336" data-name="Path 13336" d="M26,36.705a1,1,0,0,0-1,1v.363a1,1,0,0,0,2,0v-.363a1,1,0,0,0-1-1" fill="#fff"/>
      <path id="Path_13337" data-name="Path 13337" d="M1,14.118a1,1,0,0,0,1-1V2H13.129a1,1,0,0,0,0-2H1A1,1,0,0,0,0,1V13.118a1,1,0,0,0,1,1" fill="#fff"/>
      <path id="Path_13338" data-name="Path 13338" d="M13.129,49.989H2V38.871a1,1,0,0,0-2,0V50.989a1,1,0,0,0,1,1H13.129a1,1,0,0,0,0-2" fill="#fff"/>
      <path id="Path_13339" data-name="Path 13339" d="M38.882,2H50V13.118a1,1,0,0,0,2,0V1a1,1,0,0,0-1-1H38.882a1,1,0,0,0,0,2" fill="#fff"/>
      <path id="Path_13340" data-name="Path 13340" d="M45.186,34.553a10,10,0,0,0-7.041,17.1,1.148,1.148,0,0,0,.1.094,10,10,0,1,0,6.938-17.192m-3.707,8.929a1,1,0,0,1,1.414,0l1.475,1.475,3.111-3.111a1,1,0,1,1,1.414,1.414l-3.818,3.818a1,1,0,0,1-1.414,0L41.479,44.9a1,1,0,0,1,0-1.414" fill="#fff"/>
    </g>
  </g>
</svg>
