<?xml version="1.0" encoding="utf-8"?><svg xmlns="http://www.w3.org/2000/svg" xmlns:xlink="http://www.w3.org/1999/xlink"><symbol viewBox="0 0 97.581 87.712" id="audio-human-studio" xmlns="http://www.w3.org/2000/svg"><g><g><path d="M82.167 0H5.349A5.365 5.365 0 000 5.382V62.91a5.363 5.363 0 005.339 5.382h29.315l.032 6.013h-7.9a1.755 1.755 0 000 3.509h33.937a1.755 1.755 0 000-3.509h-7.821l-.021-6.013H63.06l-.021-16.658H3.499V5.382A1.872 1.872 0 015.35 3.499h76.818a1.89 1.89 0 011.872 1.883v15.663a19.938 19.938 0 013.5.61V5.382A5.383 5.383 0 0082.167 0zm-38.4 57.528a3.06 3.06 0 11-3.06 3.06 3.059 3.059 0 013.062-3.06z"/></g><path d="M82.451 25.258a15.13 15.13 0 00-15.134 15.127v1.335h8.2a1.674 1.674 0 010 3.347h-8.2v3.268h8.2a1.676 1.676 0 010 3.352h-8.2v3.263h8.2a1.676 1.676 0 010 3.352h-8.2v3.266h8.2a1.675 1.675 0 010 3.348h-8.2v.049a15.133 15.133 0 0012.63 14.921v3.745h-3.371a2.039 2.039 0 100 4.077h11.959a2.039 2.039 0 000-4.077h-3.378v-3.782a15.13 15.13 0 0012.419-14.883v-.049h-8.2a1.668 1.668 0 01-1.673-1.663v-.011a1.672 1.672 0 011.669-1.674h8.2v-3.266h-8.2a1.676 1.676 0 010-3.352h8.2v-3.268h-8.2a1.676 1.676 0 010-3.352h8.2v-3.268h-8.2a1.673 1.673 0 010-3.347h8.2v-1.332a15.135 15.135 0 00-15.121-15.126zm0 49.623a2.708 2.708 0 112.71-2.706 2.708 2.708 0 01-2.715 2.706z"/><path d="M53.585 29.941l-13.571 8.545a2.892 2.892 0 01-2.848.085 2.812 2.812 0 01-1.451-2.458V19.024a2.8 2.8 0 011.451-2.454 2.886 2.886 0 012.848.081l13.571 8.545a2.837 2.837 0 010 4.745z"/></g></symbol><symbol viewBox="0 0 78.874 88.974" id="audio-synthesys" xmlns="http://www.w3.org/2000/svg"><g><path d="M39.317 16.623v.005a17.528 17.528 0 00-17.532 17.527v1.544h9.5a1.939 1.939 0 010 3.877h-9.5v3.786h9.5a1.942 1.942 0 010 3.883h-9.5v3.78h9.5a1.942 1.942 0 010 3.883h-9.5v3.785h9.5a1.94 1.94 0 010 3.878h-9.5v.057a17.53 17.53 0 0014.632 17.284v4.338h-1.514a2.362 2.362 0 100 4.724h9.068a2.362 2.362 0 000-4.724h-1.514v-4.381a17.528 17.528 0 0014.388-17.241v-.057h-9.5a1.933 1.933 0 01-1.939-1.927v-.012a1.936 1.936 0 011.934-1.939h9.505v-3.785h-9.5a1.942 1.942 0 010-3.883h9.5v-3.786h-9.5a1.942 1.942 0 110-3.883h9.5V39.57h-9.5a1.936 1.936 0 01-1.368-3.311 1.938 1.938 0 011.368-.566h9.5v-1.544a17.533 17.533 0 00-17.528-17.526zm0 57.487h-.005a3.137 3.137 0 11.005 0z"/><path d="M78.873 39.439a39.436 39.436 0 00-78.872 0c0 .232.01.461.014.69 0 .05-.015.1-.015.151v16.227a2.2 2.2 0 002.343 2.047 2.165 2.165 0 00.926-.285 8.481 8.481 0 007.544 4.92h.019a.224.224 0 01.026 0h.11v-.009a2.195 2.195 0 002.2-2.05 2.631 2.631 0 000-.281V35.927a2.2 2.2 0 00-2.055-2.337c-.05 0-.1.006-.146.006-.082 0-.161.01-.241.012h-.063a8.457 8.457 0 00-6.15 2.967 35.039 35.039 0 0120.23-28.963l.076.208a2.339 2.339 0 003 1.4l.037-.013a32.474 32.474 0 0123.162 0 2.341 2.341 0 003.022-1.349l.014-.036.076-.208a35.037 35.037 0 0120.206 28.794 8.457 8.457 0 00-6.3-2.814 2.2 2.2 0 00-2.336 2.337v24.923a2.2 2.2 0 002.054 2.336 2.4 2.4 0 00.282-.01v.014a8.482 8.482 0 007.556-4.633 2.171 2.171 0 00.933.288 2.2 2.2 0 002.344-2.047 2.444 2.444 0 000-.3V40.277c0-.053-.011-.1-.015-.152.009-.229.019-.458.019-.686z"/></g></symbol><symbol viewBox="0 0 92.24 81.982" id="human-studio-synthesys" xmlns="http://www.w3.org/2000/svg"><g><path d="M86.576 0H5.645A5.661 5.661 0 000 5.664v60.619a5.649 5.649 0 005.645 5.664h30.874l.032 6.345h-8.314a1.845 1.845 0 100 3.69h35.749a1.845 1.845 0 100-3.69H55.75l-.028-6.345h30.856a5.665 5.665 0 005.664-5.664V5.664A5.678 5.678 0 0086.576 0zM46.119 67.057a3.221 3.221 0 113.221-3.221 3.221 3.221 0 01-3.221 3.221zM88.55 54.404H3.69V5.664A1.97 1.97 0 015.644 3.69h80.932a1.976 1.976 0 011.974 1.974z"/><path d="M46.119 8.172a14.426 14.426 0 1014.426 14.426A14.447 14.447 0 0046.119 8.172zm6.518 15.883l-8.334 5.247a1.775 1.775 0 01-1.749.052 1.729 1.729 0 01-.891-1.509V17.351a1.723 1.723 0 01.891-1.507 1.771 1.771 0 011.749.05l8.334 5.247a1.742 1.742 0 010 2.914z"/><path d="M68.754 42.332H39.041a5.708 5.708 0 00-10.825 0H23.48a1.845 1.845 0 100 3.69h4.732a5.708 5.708 0 0010.833 0h29.708a1.845 1.845 0 100-3.69zm-35.126 3.906a2.058 2.058 0 01-2.054-2.045v-.017a.1.1 0 010-.011 2.055 2.055 0 112.052 2.073z"/></g></symbol><symbol viewBox="0 0 22 12" id="icon-arrow-right" xmlns="http://www.w3.org/2000/svg"><path stroke-linecap="round" stroke-linejoin="round" stroke-width="1.5" d="M15.75 1.061l5 5m0 0l-5 5m5-5h-13m-7 0h3"/></symbol><symbol viewBox="0 0 39.507 36.76" id="icon-audio-confirmation" xmlns="http://www.w3.org/2000/svg"><g><path d="M34 19a1 1 0 001-1V4a4 4 0 00-4-4H4a4 4 0 00-4 4v21a4 4 0 004 4h14a1 1 0 000-2H4a2 2 0 01-2-2V10h31v8a1 1 0 001 1zM2 8V4a2 2 0 012-2h27a2 2 0 012 2v4z"/><path d="M30 4H19a1 1 0 000 2h11a1 1 0 000-2z"/><path d="M5.38 4.08a1 1 0 00-1.09.21l-.12.149a.781.781 0 00-.09.181.635.635 0 00-.06.18A1.486 1.486 0 004 5a.99.99 0 00.29.71 1.156 1.156 0 00.33.21A.852.852 0 005 6a.99.99 0 001-1 1.029 1.029 0 00-.29-.71 1.156 1.156 0 00-.33-.21z"/><path d="M8.92 4.62a.781.781 0 00-.09-.181 1.719 1.719 0 00-.12-.149 1.018 1.018 0 00-.91-.27.635.635 0 00-.18.06.756.756 0 00-.18.09 1.592 1.592 0 00-.15.12l-.12.149a.781.781 0 00-.09.181.635.635 0 00-.06.18A1.486 1.486 0 007 5a.99.99 0 001 1 .852.852 0 00.38-.08 1.156 1.156 0 00.33-.21A.99.99 0 009 5a1.486 1.486 0 00-.02-.2.635.635 0 00-.06-.18z"/><path d="M11.56 4.17a.756.756 0 00-.18-.09.635.635 0 00-.18-.06 1.01 1.01 0 00-.91.27 1.719 1.719 0 00-.12.149.781.781 0 00-.09.181.635.635 0 00-.06.18A1.486 1.486 0 0010 5a.99.99 0 00.29.71 1.156 1.156 0 00.33.21A.852.852 0 0011 6a.99.99 0 001-1 1.05 1.05 0 00-.29-.71 1.592 1.592 0 00-.15-.12z"/><path d="M31.944 19.859a1 1 0 00-1.057.12L26.16 23.76h-3.649a1 1 0 00-1 1v7a1 1 0 001 1h3.649l4.727 3.782a1 1 0 001.624-.782v-15a1 1 0 00-.567-.901zm-6.433 10.9h-2v-5h2zm5 2.919l-3-2.4v-6.039l3-2.4z"/><path d="M34.754 24.518a1 1 0 00-1.414 1.414 4 4 0 010 5.657A1 1 0 1034.754 33a6 6 0 000-8.485z"/><path d="M36.875 22.4a1 1 0 00-1.414 1.414 7.01 7.01 0 010 9.9 1 1 0 101.414 1.414 9.012 9.012 0 000-12.728z"/></g></symbol><symbol viewBox="0 0 35 40" id="icon-audio-instructions" xmlns="http://www.w3.org/2000/svg"><g><path d="M16.769 31H2V2h14v7a1 1 0 001 1h7v4a1 1 0 002 0V9c0-.022-.011-.04-.012-.062a.992.992 0 00-.054-.264c-.011-.032-.019-.063-.033-.094a.99.99 0 00-.193-.285l-8-8a.993.993 0 00-.287-.193.886.886 0 00-.091-.033.96.96 0 00-.27-.054c-.02 0-.037-.012-.058-.012H1a1 1 0 00-1 1v31a1 1 0 001 1h15.769a1 1 0 000-2zM18 8V3.414L22.586 8z"/><path d="M8 13a1 1 0 000 2h10a1 1 0 000-2z"/><path d="M18 17H8a1 1 0 000 2h10a1 1 0 000-2z"/><path d="M12 23a1 1 0 000-2H8a1 1 0 000 2z"/><path d="M22 22v6a5 5 0 0010 0v-6a5 5 0 00-10 0zm5 9a3 3 0 01-2.816-2h5.632A3 3 0 0127 31zm0-12a3 3 0 013 3v5h-6v-5a3 3 0 013-3z"/><path d="M34 26a1 1 0 00-1 1v1a6 6 0 01-12 0v-1a1 1 0 00-2 0v1a8.008 8.008 0 007 7.931V38h-2a1 1 0 000 2h6a1 1 0 000-2h-2v-2.069A8.008 8.008 0 0035 28v-1a1 1 0 00-1-1z"/></g></symbol><symbol viewBox="0 0 37.412 33.271" id="icon-audiobooks" xmlns="http://www.w3.org/2000/svg"><g><path d="M27 2v11.526a1 1 0 002 0V5h1v6.842a1 1 0 002 0V4a1 1 0 00-1-1h-2V1a1 1 0 00-1-1h-9a3.947 3.947 0 01-6 0H4a1 1 0 00-1 1v2H1a1 1 0 00-1 1v21a1 1 0 001 1h15a1 1 0 001-1V4a2 2 0 012-2zM15 24H2V5h1v17a1 1 0 001 1h11zm0-3H5V2h8a2 2 0 012 2z"/><path d="M29.849 16.37a1 1 0 00-1.057.12l-4.727 3.781h-3.649a1 1 0 00-1 1v7a1 1 0 001 1h3.649l4.727 3.781a1 1 0 00.624.219.983.983 0 00.433-.1 1 1 0 00.567-.9v-15a1 1 0 00-.567-.901zm-6.433 10.9h-2v-5h2zm5 2.919l-3-2.4v-6.04l3-2.4z"/><path d="M32.659 21.029a1 1 0 00-1.414 1.414 4 4 0 010 5.656 1 1 0 101.414 1.414 6 6 0 000-8.484z"/><path d="M34.78 18.907a1 1 0 00-1.414 1.414 7.009 7.009 0 010 9.9 1 1 0 101.414 1.414 9.011 9.011 0 000-12.728z"/><path d="M11.9 6h-4a1 1 0 000 2h4a1 1 0 000-2z"/><path d="M11.9 10h-4a1 1 0 000 2h4a1 1 0 000-2z"/><path d="M9.9 14h-2a1 1 0 000 2h2a1 1 0 000-2z"/><path d="M19.9 6a1 1 0 000 2h4a1 1 0 000-2z"/><path d="M21.9 12a1 1 0 000-2h-2a1 1 0 000 2z"/></g></symbol><symbol viewBox="0 0 20.85 23.167" id="icon-audiowave" xmlns="http://www.w3.org/2000/svg"><path d="M4.633 18.534H6.95v-13.9H4.633zm4.633 4.633h2.317V0H9.266v23.167zM0 13.9h2.316V9.267H0zm13.9 4.633h2.317V4.634H13.9zm4.633-9.267v4.633h2.317V9.267z"/></symbol><symbol viewBox="0 0 36.768 36.705" id="icon-cartoons" xmlns="http://www.w3.org/2000/svg"><g><path d="M33.163 11.975A6.551 6.551 0 0029.503.003a6.517 6.517 0 00-6.144 4.305 15.708 15.708 0 00-9.929 0A6.518 6.518 0 007.285.003a6.553 6.553 0 00-3.661 11.972c-3.867 5.623-4.7 11.815-2.211 16.615 2.711 5.235 8.742 8.118 16.981 8.118 8.22 0 14.24-2.885 16.953-8.124 2.492-4.817 1.67-11.009-2.184-16.609zm-3.66-9.984a4.571 4.571 0 012.485 8.39 20.035 20.035 0 00-6.785-5.323 4.583 4.583 0 014.3-3.07zM2.885 5.402a4.455 4.455 0 014.4-3.411h.008a4.589 4.589 0 014.289 3.014 19.958 19.958 0 00-6.784 5.323 4.392 4.392 0 01-1.913-4.929zm28.152 25.673c-2.841 2.418-7.1 3.644-12.643 3.644s-9.8-1.226-12.641-3.645a10.615 10.615 0 01-3.712-8.358c0-7.979 7.144-17.253 16.353-17.253s16.355 9.275 16.355 17.254a10.613 10.613 0 01-3.712 8.358z"/><path d="M16.595 16.475a4.461 4.461 0 00-.834-2.793 3.269 3.269 0 00-2.679-1.184c-2.952 0-7.95 2.54-8.755 6.362a4.926 4.926 0 004.8 6.042h.064c4.586-.001 7.404-4.908 7.404-8.427zm-7.408 6.438h-.006a3.031 3.031 0 01-2.092-.82 2.913 2.913 0 01-.9-2.056 3.005 3.005 0 01.085-.763c.464-2.2 3.27-4.127 5.6-4.647a4.863 4.863 0 011.054-.129 1.554 1.554 0 011.288.467c.655.856.506 2.742-.354 4.485-1.068 2.168-2.817 3.463-4.675 3.463z"/><path d="M21.029 13.681a4.457 4.457 0 00-.833 2.791c0 3.52 2.817 8.429 7.4 8.429h.063a4.933 4.933 0 004.8-6.038c-.809-3.827-5.8-6.366-8.757-6.366a3.264 3.264 0 00-2.673 1.184zm9.488 5.6a2.939 2.939 0 01-2.158 3.546 2.852 2.852 0 01-.753.083h-.005c-3.27 0-5.439-3.859-5.439-6.411a2.515 2.515 0 01.385-1.478 1.35 1.35 0 011.158-.538c2.282.003 6.235 2.06 6.812 4.801z"/><path d="M12.493 15.969a1.342 1.342 0 101.34 1.341 1.343 1.343 0 00-1.34-1.341z"/><path d="M22.954 17.31a1.341 1.341 0 101.342-1.341 1.343 1.343 0 00-1.342 1.341z"/><path d="M21.217 28.645a3.947 3.947 0 01-1.825 1.025v-2.8l.24-.115c.949-.451 1.843-.876 1.843-2.155a1.962 1.962 0 00-1.959-1.96h-2.238a1.959 1.959 0 00-.878 3.7l1 .521v2.814a3.956 3.956 0 01-1.844-1.031 1 1 0 00-1.414 1.414 6.008 6.008 0 008.485 0 1 1 0 00-1.414-1.414zm-2.838-4.022a7.384 7.384 0 001.121-.055l-.649.329c-.1.054-.218.111-.218.111h-.474l-.244-.126-.5-.256c.196-.012.547-.007.96-.003z"/></g></symbol><symbol viewBox="0 0 23 21" id="icon-check" xmlns="http://www.w3.org/2000/svg"><path d="M21.5 9.712v.858c-.001 2.009-.7 3.964-1.99 5.573-1.292 1.61-3.107 2.787-5.175 3.357-2.068.57-4.278.501-6.3-.195-2.023-.696-3.75-1.983-4.924-3.67-1.174-1.685-1.731-3.679-1.59-5.684.143-2.005.976-3.914 2.377-5.441C5.3 2.983 7.193 1.918 9.296 1.475a10.676 10.676 0 016.274.578m4.93 1.984l-10 9.328-3-2.795" stroke-width="2" stroke-linecap="round" stroke-linejoin="round"/></symbol><symbol viewBox="0 0 20 20" id="icon-check-filled" xmlns="http://www.w3.org/2000/svg"><path d="M10 20a10 10 0 1110-10 10.011 10.011 0 01-10 10zM6 9.167a1 1 0 00-.707 1.707L7.96 13.54a1 1 0 001.414 0l5.333-5.333a1 1 0 10-1.414-1.414l-4.626 4.626-1.96-1.959A.993.993 0 006 9.167z"/></symbol><symbol viewBox="0 0 40 40" id="icon-explainer-videos" xmlns="http://www.w3.org/2000/svg"><g><path d="M30 4H19a1 1 0 000 2h11a1 1 0 000-2z"/><path d="M5.38 4.08a1 1 0 00-1.09.21l-.12.149a.781.781 0 00-.09.181.635.635 0 00-.06.18A1.486 1.486 0 004 5a.99.99 0 00.29.71 1.156 1.156 0 00.33.21A.852.852 0 005 6a.99.99 0 001-1 1.029 1.029 0 00-.29-.71 1.156 1.156 0 00-.33-.21z"/><path d="M8.92 4.62a.781.781 0 00-.09-.181 1.714 1.714 0 00-.12-.149 1.018 1.018 0 00-.91-.27.636.636 0 00-.18.06.758.758 0 00-.18.09 1.582 1.582 0 00-.15.12l-.12.149a.781.781 0 00-.09.181.635.635 0 00-.06.18A1.486 1.486 0 007 5a.99.99 0 001 1 .852.852 0 00.38-.08 1.156 1.156 0 00.33-.21A.99.99 0 009 5a1.486 1.486 0 00-.02-.2.635.635 0 00-.06-.18z"/><path d="M11.56 4.17a.758.758 0 00-.18-.09.636.636 0 00-.18-.06 1.01 1.01 0 00-.91.27 1.714 1.714 0 00-.12.149.781.781 0 00-.09.181.635.635 0 00-.06.18A1.486 1.486 0 0010 5a.99.99 0 00.29.71 1.156 1.156 0 00.33.21A.852.852 0 0011 6a.99.99 0 001-1 1.05 1.05 0 00-.29-.71 1.582 1.582 0 00-.15-.12z"/><path d="M35 19.023V4a4 4 0 00-4-4H4a4 4 0 00-4 4v21a4 4 0 004 4h13.025A11.493 11.493 0 1035 19.023zM2 4a2 2 0 012-2h27a2 2 0 012 2v4H2zm0 21V10h31v7.919A11.486 11.486 0 0017.109 27H4a2 2 0 01-2-2zm26.5 13a9.5 9.5 0 119.5-9.5 9.511 9.511 0 01-9.5 9.5z"/><path d="M27.71 24.247a1.052 1.052 0 00-1.68.845v6.816a1.052 1.052 0 001.68.845l4.591-3.408a1.052 1.052 0 000-1.69z"/></g></symbol><symbol viewBox="0 0 7.225 13.489" id="icon-facebook" xmlns="http://www.w3.org/2000/svg"><path d="M6.752 7.588l.375-2.441H4.784V3.562A1.221 1.221 0 016.16 2.243h1.065V.165A12.986 12.986 0 005.335 0a2.98 2.98 0 00-3.19 3.286v1.86H0v2.442h2.145v5.9h2.639v-5.9z"/></symbol><symbol viewBox="0 0 40.484 40.479" id="icon-gaming" xmlns="http://www.w3.org/2000/svg"><defs><clipPath id="ana"><path d="M0 0h40.484v40.479H0z"/></clipPath></defs><g><g clip-path="url(#ana)"><path d="M40.03 30.905l-.649-1.746a.982.982 0 10-1.842.684l.648 1.747a5.134 5.134 0 01-9.181 4.485l-.73-1.184a3.487 3.487 0 10-6.413-2.641h-3.241a3.487 3.487 0 10-6.413 2.641l-.731 1.184a5.134 5.134 0 01-8.584.234 5.071 5.071 0 01-.6-4.719l3.753-10.1a6.447 6.447 0 016.018-4.184h16.351a6.447 6.447 0 016.019 4.184l.649 1.747a.983.983 0 001.843-.685l-.65-1.747a8.42 8.42 0 00-7.861-5.465h-1.659a4.729 4.729 0 00-4.636-3.757h-.9V11.2a4.394 4.394 0 00-4.384-4.39H8.618a2.422 2.422 0 010-4.844h11.634a.983.983 0 000-1.966H8.618a4.388 4.388 0 000 8.776h8.219A2.425 2.425 0 0119.26 11.2v.387h-.9a4.731 4.731 0 00-4.637 3.757h-1.655a8.423 8.423 0 00-7.861 5.465L.455 30.905a7.1 7.1 0 006.655 9.573 7.053 7.053 0 006.041-3.37l.491-.8a3.484 3.484 0 004.98-2.1h3.241a3.484 3.484 0 004.98 2.1l.49.8a7.1 7.1 0 0012.7-6.2m-13.3 2.328a1.522 1.522 0 11-1.522-1.522 1.524 1.524 0 011.522 1.522m-9.933 0a1.522 1.522 0 11-1.522-1.522 1.524 1.524 0 011.522 1.519m-1.031-17.891a2.783 2.783 0 012.6-1.792h3.757a2.782 2.782 0 012.595 1.792z"/><path d="M27.31 24.218a2.705 2.705 0 102.7-2.7 2.707 2.707 0 00-2.7 2.7m1.966 0a.739.739 0 11.739.739.74.74 0 01-.739-.739"/><path d="M20.422 24.218a2.7 2.7 0 102.7-2.7 2.707 2.707 0 00-2.7 2.7m3.444 0a.74.74 0 11-.739-.739.74.74 0 01.739.739"/><path d="M12.5 19.478a2.554 2.554 0 00-2.526 2.214 2.549 2.549 0 000 5.053 2.549 2.549 0 005.053 0 2.549 2.549 0 000-5.053 2.555 2.555 0 00-2.527-2.214m.583 6.306v.626a.583.583 0 11-1.166 0v-.626a.983.983 0 00-.982-.983h-.626a.583.583 0 110-1.165h.626a.983.983 0 00.982-.983v-.626a.583.583 0 011.166 0v.626a.984.984 0 00.983.983h.634a.583.583 0 010 1.165h-.63a.984.984 0 00-.983.983"/><path d="M36.249 26.2a.983.983 0 101.678-.695 1.016 1.016 0 00-1.39 0 .991.991 0 00-.288.695"/></g></g></symbol><symbol viewBox="0 0 56 55" id="icon-image" xmlns="http://www.w3.org/2000/svg"><defs><clipPath id="aoa"><path transform="translate(.003)" d="M0 0h56v55H0z"/></clipPath></defs><g><g clip-path="url(#aoa)" transform="translate(-.003)"><path d="M38.5 17a4.5 4.5 0 10-4.5-4.5 4.505 4.505 0 004.5 4.5m0-7a2.5 2.5 0 11-2.5 2.5 2.5 2.5 0 012.5-2.5"/><path d="M17.707 25.293a1 1 0 00-1.414 0l-2 2a1 1 0 001.414 1.414L17 27.414l4.293 4.293a1 1 0 001.414-1.414z"/><path d="M38 37a1 1 0 00.707-1.707l-4-4a1 1 0 10-1.414 1.414l4 4A1 1 0 0038 37"/><path d="M52.954 37.808a10.061 10.061 0 00-.954-.8V6a6.006 6.006 0 00-6-6H6a6.006 6.006 0 00-6 6v40a6.006 6.006 0 006 6h32.869c.031.032.057.067.089.1a1.112 1.112 0 00.1.094 10 10 0 1013.9-14.384m-10.669 6.119a1 1 0 011.414 0l1.475 1.471 3.111-3.111a.993.993 0 011.711.643v.084a.983.983 0 01-.273.666l-.024.025-3.818 3.818a1 1 0 01-1.414 0l-2.179-2.18a1 1 0 010-1.414zM6 50a4 4 0 01-4-4V6a4 4 0 014-4h40a4 4 0 014 4v29.842A10 10 0 0046 35a9.975 9.975 0 00-2.308.279l-8.984-8.984a1 1 0 00-1.414 0L28.5 31.086 17.707 20.293a1 1 0 00-1.414 0l-11 11a1 1 0 001.414 1.414L17 22.414l10.793 10.793a1 1 0 001.414 0L34 28.414l7.61 7.61A9.964 9.964 0 0037.353 50z"/></g></g></symbol><symbol viewBox="0 0 12.766 12.761" id="icon-insta" xmlns="http://www.w3.org/2000/svg"><path d="M3.75 12.716a3.788 3.788 0 01-2.674-1.031A3.748 3.748 0 01.045 9.011c-.06-1.058-.06-4.207 0-5.265a3.766 3.766 0 011.031-2.673A3.77 3.77 0 013.75.045C4.238.017 5.247 0 6.383 0s2.145.017 2.633.045a3.777 3.777 0 012.674 1.031 3.748 3.748 0 011.031 2.674c.06 1.057.06 4.2 0 5.262a3.775 3.775 0 01-1.031 2.674 3.752 3.752 0 01-2.674 1.031c-.488.028-1.5.045-2.633.045s-2.145-.019-2.633-.046zm-.736-6.133a3.443 3.443 0 103.442-3.442 3.446 3.446 0 00-3.442 3.442zm6.014-3.608a.763.763 0 10.763-.763.764.764 0 00-.763.763zm-5.2 3.608a2.633 2.633 0 112.628 2.632 2.632 2.632 0 01-2.632-2.632z"/></symbol><symbol viewBox="0 0 12.389 12.389" id="icon-linkedin" xmlns="http://www.w3.org/2000/svg"><path d="M2.773 12.389H.2V4.118h2.573zM1.488 2.99a1.495 1.495 0 111.488-1.5 1.5 1.5 0 01-1.488 1.5zm10.9 9.4H9.823V8.363c0-.96-.019-2.19-1.335-2.19-1.335 0-1.54 1.043-1.54 2.121v4.1H4.382V4.118h2.463v1.128h.036a2.7 2.7 0 012.43-1.336c2.6 0 3.077 1.712 3.077 3.935v4.544z"/></symbol><symbol viewBox="0 0 15.996 23.267" id="icon-microphone" xmlns="http://www.w3.org/2000/svg"><path d="M8 16a4.362 4.362 0 004.362-4.362V4.362a4.362 4.362 0 00-8.725 0v7.271A4.362 4.362 0 008 16zm7.271-7.271h-.727a.727.727 0 00-.727.727v2.181a5.823 5.823 0 01-6.4 5.788 5.993 5.993 0 01-5.235-6.047V9.452a.727.727 0 00-.727-.727H.727A.727.727 0 000 9.452v1.825a8.248 8.248 0 006.907 8.256v1.552H4.362a.727.727 0 00-.727.727v.727a.727.727 0 00.727.727h7.271a.727.727 0 00.727-.727v-.727a.727.727 0 00-.727-.727H9.089v-1.534A8.006 8.006 0 0016 11.633V9.452a.727.727 0 00-.731-.727z"/></symbol><symbol viewBox="0 0 35 35" id="icon-play" xmlns="http://www.w3.org/2000/svg"><path d="M17.5 0C7.84 0 0 7.84 0 17.5S7.84 35 17.5 35 35 27.16 35 17.5 27.16 0 17.5 0zM14 25.375V9.625L24.5 17.5 14 25.375z"/></symbol><symbol viewBox="0 0 40 39.68" id="icon-podcasts" xmlns="http://www.w3.org/2000/svg"><g><path d="M11.5 32a7.508 7.508 0 007.5-7.5v-10a7.5 7.5 0 00-15 0v10a7.508 7.508 0 007.5 7.5zm0-2a5.506 5.506 0 01-5.475-5h10.95a5.506 5.506 0 01-5.475 5zm0-21a5.506 5.506 0 015.475 5H14a1 1 0 000 2h3v1h-3a1 1 0 000 2h3v1h-3a1 1 0 000 2h3v1H6v-1h3a1 1 0 000-2H6v-1h3a1 1 0 000-2H6v-1h3a1 1 0 000-2H6.025A5.506 5.506 0 0111.5 9z"/><path d="M22 19.5a1 1 0 00-1 1v4a9.5 9.5 0 01-19 0v-4a1 1 0 00-2 0v4a11.51 11.51 0 0010.5 11.449v1.731H7a1 1 0 000 2h9a1 1 0 000-2h-3.5v-1.731A11.51 11.51 0 0023 24.5v-4a1 1 0 00-1-1z"/><path d="M31 0a8.984 8.984 0 00-7.2 14.378l-.866 2.865a1 1 0 001.429 1.172l2.594-1.39A8.994 8.994 0 1031 0zm0 16a6.952 6.952 0 01-3.531-.973 1 1 0 00-.98-.02l-.943.505.32-1.057a1 1 0 00-.2-.937A6.989 6.989 0 1131 16z"/><path d="M34 7h-6a1 1 0 000 2h6a1 1 0 000-2z"/><path d="M31 10h-3a1 1 0 000 2h3a1 1 0 000-2z"/></g></symbol><symbol viewBox="0 0 39.26 37.685" id="icon-presentations" xmlns="http://www.w3.org/2000/svg"><g><path d="M6.89 24.2a.916.916 0 00.45-.88v-7.98a.988.988 0 00-.3-.73 1.023 1.023 0 00-.72-.3 1.009 1.009 0 00-.71.31.964.964 0 00-.28.72v7.97a.9.9 0 00.44.89 1.12 1.12 0 001.12 0z"/><path d="M35.6 3.69H20.64V1.03a.98.98 0 00-.29-.73 1.1 1.1 0 00-.73-.3 1.007 1.007 0 00-.99 1.03v2.66H3.68A3.72 3.72 0 000 7.36v7.98a.923.923 0 00.45.89 1.1 1.1 0 001.11 0 .916.916 0 00.45-.88V7.36A1.646 1.646 0 013.68 5.7H35.6a1.625 1.625 0 011.66 1.66v21.28a1.631 1.631 0 01-1.66 1.66H3.68a1.646 1.646 0 01-1.67-1.66v-2.66a.934.934 0 00-.45-.89 1.1 1.1 0 00-1.11 0 .927.927 0 00-.45.88v2.67a3.681 3.681 0 003.68 3.67h9l-1.92 3.86a.947.947 0 00.02.98 1.1 1.1 0 00.98.49.944.944 0 00.8-.57l2.37-4.76h9.41l2.38 4.76a.913.913 0 00.8.61 1.108 1.108 0 001-.51.907.907 0 000-.99l-1.94-3.87h9.02a3.67 3.67 0 003.66-3.67V7.36a3.664 3.664 0 00-3.66-3.67z"/><path d="M12.66 23.31V12.68a.988.988 0 00-.3-.73 1 1 0 00-.71-.3h-.01a.97.97 0 00-.71.31.957.957 0 00-.28.71v10.64a.947.947 0 001 .98.96.96 0 001.01-.98z"/><path d="M21.5 24.06a.989.989 0 00.77.27h10.66a1.01 1.01 0 000-2.02H22.18a.989.989 0 00-.74.35 1.058 1.058 0 00-.22.71 1.124 1.124 0 00.28.69z"/><path d="M17.53 24.2a.916.916 0 00.45-.88V18a.98.98 0 00-.29-.73 1.1 1.1 0 00-.73-.3 1.007 1.007 0 00-.99 1.03v5.31a.922.922 0 00.45.89 1.1 1.1 0 001.11 0z"/><path d="M22.29 13.68h10.64a1.005 1.005 0 100-2.01H22.29a1.005 1.005 0 100 2.01z"/><path d="M21.4 18.56a.9.9 0 00.88.44h10.65a.941.941 0 00.89-.44 1.121 1.121 0 000-1.12.922.922 0 00-.85-.45H22.25a.934.934 0 00-.85.45 1.121 1.121 0 000 1.12z"/><path d="M1.005 21.665A1.005 1.005 0 100 20.66a1.005 1.005 0 001.005 1.005z"/></g></symbol><symbol viewBox="0 0 52 52" id="icon-script" xmlns="http://www.w3.org/2000/svg"><defs><clipPath id="ava"><path d="M0 0h52v52H0z"/></clipPath></defs><g clip-path="url(#ava)"><path d="M46 0H6a6.006 6.006 0 00-6 6v40a6.006 6.006 0 006 6h40a6.006 6.006 0 006-6V6a6.006 6.006 0 00-6-6M6 2h40a4 4 0 014 4v6H2V6a4 4 0 014-4m40 48H6a4 4 0 01-4-4V14h48v32a4 4 0 01-4 4"/><path d="M18.518 26.126a1 1 0 00-1.414 0L11.8 31.431a1 1 0 000 1.414l5.3 5.305a1 1 0 101.414-1.414l-4.6-4.6 4.6-4.6a1 1 0 000-1.414"/><path d="M34.9 26.126a1 1 0 00-1.414 1.414l4.6 4.6-4.6 4.6a1 1 0 101.414 1.41l5.3-5.305a1 1 0 000-1.414z"/><path d="M28 23.722a1 1 0 00-1.2.754l-3.555 15.667a1 1 0 101.95.443l3.559-15.667a1 1 0 00-.753-1.2"/><path d="M6.29 7.71a1.014 1.014 0 001.42 0 1.169 1.169 0 00.21-.33A.838.838 0 008 7a1 1 0 00-.08-.38 1.155 1.155 0 00-.21-.33 1.047 1.047 0 00-1.42 0 1.155 1.155 0 00-.21.33A1 1 0 006 7a.838.838 0 00.08.38 1.169 1.169 0 00.21.33"/><path d="M10.29 7.71a1.014 1.014 0 001.42 0 1.169 1.169 0 00.21-.33A.839.839 0 0012 7a1 1 0 00-.08-.38 1.155 1.155 0 00-.21-.33 1.047 1.047 0 00-1.42 0 1.155 1.155 0 00-.21.33A1 1 0 0010 7a.839.839 0 00.08.38 1.169 1.169 0 00.21.33"/><path d="M14.29 7.71a1.014 1.014 0 001.42 0 1.169 1.169 0 00.21-.33A.839.839 0 0016 7a1 1 0 00-.08-.38 1.155 1.155 0 00-.21-.33 1.047 1.047 0 00-1.42 0 1.155 1.155 0 00-.21.33A1 1 0 0014 7a.839.839 0 00.08.38 1.169 1.169 0 00.21.33"/><path d="M38 8h7a1 1 0 000-2h-7a1 1 0 000 2"/></g></symbol><symbol viewBox="0 0 40 37.747" id="icon-social-stories" xmlns="http://www.w3.org/2000/svg"><g><path d="M34 0h-1.939a1 1 0 000 2H34a4 4 0 014 4v15a4 4 0 01-4 4h-2.253a1 1 0 00-.707.293L28 28.333V26a1 1 0 00-1-1h-8a4 4 0 01-4-4V6a4 4 0 014-4h7.5a1 1 0 000-2H19a6.006 6.006 0 00-6 6v7.747H5a5.006 5.006 0 00-5 5v2.52a1 1 0 002 0v-2.52a3 3 0 013-3h8v4.363a2.94 2.94 0 00-3 .489 3.024 3.024 0 00-3.984.154 2.937 2.937 0 000 4.151l3.277 3.278a1 1 0 001.414 0l3.278-3.278a2.872 2.872 0 00.238-.29 6 6 0 003.778 2.3v1.833a3 3 0 01-3 3h-1a1 1 0 00-.707.293L11 34.333v-1.586a1 1 0 00-1-1H5a3 3 0 01-3-3v-2.664a1 1 0 00-2 0v2.664a5.006 5.006 0 005 5h4v3a1 1 0 00.617.924.988.988 0 00.383.076 1 1 0 00.707-.293l3.707-3.707H15a5.006 5.006 0 005-5V27h6v3.747a1 1 0 00.617.924.988.988 0 00.383.076 1 1 0 00.707-.293L32.161 27H34a6.006 6.006 0 006-6V6a6.006 6.006 0 00-6-6zM12.57 23.49l-2.571 2.57-2.57-2.57a.947.947 0 010-1.323.929.929 0 01.661-.272.94.94 0 01.661.271l.54.541a1 1 0 001.415 0l.541-.541a.951.951 0 011.323 0 .929.929 0 01.272.662.94.94 0 01-.272.662z"/><path d="M26.084 6.947a3.3 3.3 0 01-.824 2.181l-1.471 1.664a1 1 0 00-.491-.128h-3.359a1 1 0 00-1 1v7.556a1 1 0 001 1h3.359a.994.994 0 00.665-.255 4.722 4.722 0 002.172.531h5.935a2.01 2.01 0 001.988-2.085c-.008-.156-.014-1.256 0-5.614v-.268a1.991 1.991 0 00-1.987-1.989l-2.528-.007a5.259 5.259 0 00-.362-4.405 1.635 1.635 0 00-.915-.744c-.009 0-.017-.012-.026-.015l-.04-.013h-.031l-.02-.006-.032-.008-.072-.019-.177-.045v.008a.516.516 0 00-.282.023 1.684 1.684 0 00-.854.349 1.639 1.639 0 00-.648 1.289zm-3.785 11.272h-1.361v-5.557h1.361zm5.56-9.75a3.227 3.227 0 01-.242 1.5l-.492 1.166a1 1 0 00.918 1.39h4.018v.878c-.01 2.777-.014 4.707 0 5.09h-5.926a2.728 2.728 0 01-1.714-.608l-.124-.1v-4.553l2.462-2.785a5.271 5.271 0 001.1-1.974z"/></g></symbol><symbol viewBox="0 0 51.617 59.625" id="icon-spokesperson" xmlns="http://www.w3.org/2000/svg"><defs><clipPath id="axa"><path d="M0 0h51.617v59.625H0z"/></clipPath></defs><g clip-path="url(#axa)"><path d="M48.565 42.437A9.994 9.994 0 0045 40.232a9.952 9.952 0 00-5.867-4.4l-4.585-1.252-1.377-2.059a2.7 2.7 0 00-3.8-.7v-2.435a11.032 11.032 0 004.829-7.992h.791a2.581 2.581 0 002.578-2.579V17.01a2.576 2.576 0 00-1.253-2.21V9.541A9.552 9.552 0 0026.775 0h-7.061a9.552 9.552 0 00-9.541 9.541V14.8a2.576 2.576 0 00-1.254 2.21v1.805a2.581 2.581 0 002.581 2.579h.791a11.031 11.031 0 004.831 7.992v2.431a2.7 2.7 0 00-3.8.7l-1.381 2.063-4.589 1.247A9.983 9.983 0 000 45.443v.99a1.008 1.008 0 102.016 0v-.99a7.966 7.966 0 015.865-7.671l4.431-1.2 4.911 4.3a3.141 3.141 0 004.106.012l1.915-1.656 1.915 1.656a3.14 3.14 0 004.106-.012l4.912-4.3 4.431 1.2a7.889 7.889 0 013.33 1.873c-.111 0-.22-.016-.332-.015a9.993 9.993 0 00-8.223 15.67H9.41v-4.835a1.008 1.008 0 00-2.016 0V55.3h-2.2a3.176 3.176 0 01-3.173-3.172v-.982a1.008 1.008 0 10-2.016 0v.982a5.2 5.2 0 005.189 5.189h30.043a10 10 0 0013.328-14.88M35.554 17.01v1.805a.562.562 0 01-.562.562h-.73v-2.929h.73a.562.562 0 01.562.562m-23.328 2.367H11.5a.562.562 0 01-.562-.562V17.01a.562.562 0 01.562-.562h.729zm1.009-4.945H12.19V9.541a7.533 7.533 0 017.524-7.525h7.061A7.533 7.533 0 0134.3 9.541v4.891h-1.046a1.06 1.06 0 01-1.059-1.06v-2.126a3.034 3.034 0 00-4.276-2.768 11.42 11.42 0 01-9.349 0 3.034 3.034 0 00-4.276 2.768v2.126a1.06 1.06 0 01-1.059 1.06m1.008 5.8v-3.953a3.084 3.084 0 002.068-2.907v-2.126a1.017 1.017 0 011.433-.928 13.448 13.448 0 0011 0 1.017 1.017 0 011.433.928v2.126a3.084 3.084 0 002.068 2.907v3.953a9 9 0 11-18 0m5.765 19.126a1.114 1.114 0 01-1.458 0L13.9 35.279l1.1-1.636a.686.686 0 01.994-.159l5.671 4.448zm-.874-5.968v-2.938a10.975 10.975 0 008.217 0v2.938l-4.109 3.223zm8.8 5.964a1.114 1.114 0 01-1.458 0l-1.649-1.426 5.671-4.444a.687.687 0 011 .158l1.094 1.637zm17.4 8.958l-.024.024-3.812 3.818a1 1 0 01-1.414 0l-2.186-2.18a1 1 0 010-1.414 1 1 0 011.414 0l1.475 1.475 3.111-3.113a1 1 0 111.438 1.39"/></g></symbol><symbol viewBox="0 0 40.633 40.952" id="icon-spotify-tv" xmlns="http://www.w3.org/2000/svg"><defs><clipPath id="aya"><path d="M0 0h40.633v40.952H0z"/></clipPath></defs><g><g clip-path="url(#aya)" stroke-width="2"><path d="M19.36 34.266q-6.72.06-13.45-.36H5.9a4.9 4.9 0 01-4.58-4.47Q1 25.761 1 22.076q0-3.555.3-7.09l.03-.32a4.9 4.9 0 014.58-4.48q5.88-.36 11.76-.37 5.9 0 11.76.37h.01a4.913 4.913 0 014.58 4.48l.02.16c.14 1.66.23 3.32.28 4.98"/><path d="M18.14 30.6c-3.32.08-6.65 0-9.96-.23h-.01a3.32 3.32 0 01-2.99-3.14c-.14-1.7-.2-3.41-.2-5.11 0-1.68.06-3.36.19-5.03l.02-.21a3.322 3.322 0 012.99-3.15c2.54-.18 5.1-.26 7.65-.26s5.1.08 7.65.26a3.1 3.1 0 012.04.97 3.577 3.577 0 01.95 2.17l.01.11c.04.52.08 1.05.1 1.57"/><path stroke-linecap="round" stroke-linejoin="round" d="M17.673 9.817l-4.019-5.015"/><path stroke-linecap="round" stroke-linejoin="round" d="M23.045 1l-5.637 8.553"/><path d="M32.127 39.445a10.807 10.807 0 01-13.964-8.783 12.321 12.321 0 01-.1-1.5 10.781 10.781 0 018.54-10.55 10.479 10.479 0 012.25-.24 10.792 10.792 0 018.765 17.071" stroke-linecap="round" stroke-linejoin="round"/><path stroke-linecap="round" stroke-linejoin="round" d="M35.225 37.866h0"/><path d="M24.675 31.747a12.818 12.818 0 018.363.966" stroke-linecap="round" stroke-linejoin="round"/><path d="M23.415 26.059a18.613 18.613 0 0111.81 1.241" stroke-linecap="round" stroke-linejoin="round"/><path d="M24.038 28.869a15.755 15.755 0 0110.1 1.1" stroke-linecap="round" stroke-linejoin="round"/></g></g></symbol><symbol viewBox="0 0 39.738 38.208" id="icon-training-videos" xmlns="http://www.w3.org/2000/svg"><g><path d="M37.208 17.855h-2.731A4.03 4.03 0 0034 10.466V4.447A4.452 4.452 0 0029.553 0h-25.1A4.452 4.452 0 00.005 4.447v19.106A4.452 4.452 0 004.453 28h24.113v7.679a4.338 4.338 0 008.118 0v-6.7a2.565 2.565 0 00.529.055 2.533 2.533 0 002.53-2.529v-6.118a2.533 2.533 0 00-2.535-2.532zm-2.529-3.588a2.059 2.059 0 11-2.059-2.059 2.062 2.062 0 012.059 2.059zM4.448 26A2.45 2.45 0 012 23.553V4.447A2.45 2.45 0 014.448 2h25.1a2.45 2.45 0 012.447 2.447v5.824a4.034 4.034 0 00-1.237 7.584h-5.79a2.53 2.53 0 000 5.059h3.588V26zm33.29.5a.53.53 0 01-1.059 0v-4.588a1 1 0 00-2 0v13.765a.53.53 0 01-1.059 0v-6.118a1 1 0 00-2 0v6.118a.53.53 0 01-1.059 0V21.914a1 1 0 00-1-1h-4.588a.53.53 0 010-1.059h12.235a.537.537 0 01.53.529z"/><path d="M15.332 9.747a1.053 1.053 0 00-1.68.845v6.816a1.052 1.052 0 001.68.845l4.591-3.408a1.052 1.052 0 000-1.69z"/></g></symbol><symbol viewBox="0 0 13.416 10.896" id="icon-twitter" xmlns="http://www.w3.org/2000/svg"><path d="M12.037 2.719c.009.119.009.238.009.358A7.769 7.769 0 014.223 10.9 7.77 7.77 0 010 9.662a5.688 5.688 0 00.664.034 5.507 5.507 0 003.414-1.177 2.754 2.754 0 01-2.571-1.9 3.467 3.467 0 00.519.043 2.908 2.908 0 00.724-.094 2.75 2.75 0 01-2.2-2.7V3.83a2.769 2.769 0 001.243.349A2.754 2.754 0 01.936.502a7.816 7.816 0 005.67 2.877 3.1 3.1 0 01-.068-.63A2.752 2.752 0 0111.3.868a5.413 5.413 0 001.745-.664 2.742 2.742 0 01-1.213 1.515 5.512 5.512 0 001.583-.426 5.911 5.911 0 01-1.378 1.426z"/></symbol><symbol viewBox="0 0 40.173 39.192" id="icon-video-marketing-ads" xmlns="http://www.w3.org/2000/svg"><g><path d="M19.926 14.845a1.052 1.052 0 000-1.69l-4.591-3.408a1.053 1.053 0 00-1.68.845v6.816a1.052 1.052 0 001.68.845z"/><path d="M21.173 26.192h-2a3 3 0 00-3 3v5a1 1 0 002 0v-2h2v2a1 1 0 002 0v-7a1 1 0 00-1-1zm-1 4h-2v-1a1 1 0 011-1h1z"/><path d="M26.173 26.192h-2a1 1 0 00-1 1v7a1 1 0 001 1h2a3 3 0 003-3v-3a3 3 0 00-3-3zm1 6a1 1 0 01-1 1h-1v-5h1a1 1 0 011 1z"/><path d="M32.926 28.192h2.25a1 1 0 000-2h-2.25a2.75 2.75 0 000 5.5h.5a.75.75 0 010 1.5h-2.25a1 1 0 000 2h2.25a2.75 2.75 0 000-5.5h-.5a.75.75 0 010-1.5z"/><path d="M37.173 22.192H34V4.447A4.452 4.452 0 0029.553 0h-25.1A4.452 4.452 0 00.005 4.447v19.106A4.452 4.452 0 004.453 28h7.725v8.192a3 3 0 003 3h22a3 3 0 003-3v-11a3 3 0 00-3.005-3zm-25 3V26H4.448A2.45 2.45 0 012 23.553V4.447A2.45 2.45 0 014.448 2h25.1a2.45 2.45 0 012.447 2.447v17.745h-2.169v-.984h-3v.984H15.173a3 3 0 00-3 3zm26 11a1 1 0 01-1 1h-22a1 1 0 01-1-1v-11a1 1 0 011-1h22a1 1 0 011 1z"/><path d="M3.826 5.208h3v2h-3z"/><path d="M3.826 9.208h3v2h-3z"/><path d="M3.826 13.208h3v2h-3z"/><path d="M3.826 17.208h3v2h-3z"/><path d="M3.826 21.208h3v2h-3z"/><path d="M26.826 5.208h3v2h-3z"/><path d="M26.826 9.208h3v2h-3z"/><path d="M26.826 13.208h3v2h-3z"/><path d="M26.826 17.208h3v2h-3z"/></g></symbol><symbol viewBox="0 0 39.424 36.826" id="icon-video-sales" xmlns="http://www.w3.org/2000/svg"><g><path d="M32 14.586V1a30 30 0 01-.066-.328.966.966 0 00-.1-.186.785.785 0 00-.058-.112c-.011-.014-.028-.02-.039-.033a.985.985 0 00-.165-.137.925.925 0 00-.145-.1.964.964 0 00-.178-.055.9.9 0 00-.2-.04c-.019 0-.035-.011-.054-.011H1c-.019 0-.036.01-.055.011a1.006 1.006 0 00-.193.039 1.027 1.027 0 00-.183.057.95.95 0 00-.142.1.97.97 0 00-.167.139C.248.357.232.363.221.377a.785.785 0 00-.058.112.966.966 0 00-.1.186A30 30 0 010 1v20c0 .035.017.065.02.1a1.017 1.017 0 00.056.278 1 1 0 00.174.266c.015.017.021.04.038.057a1 1 0 00.326.219A.984.984 0 001 22h15.919A11.5 11.5 0 1032 14.586zm-2-.562a11.16 11.16 0 00-4.515.068l-4.161-4.034L30 3.086zM28.159 2L16 11.77 3.841 2zM2 3.086l8.683 6.977L2 18.612zM3.441 20l8.812-8.676 3.121 2.508a1 1 0 001.252 0l3.127-2.512 3.578 3.47a11.56 11.56 0 00-5.59 5.21zm24.483 14.826a9.5 9.5 0 119.5-9.5 9.511 9.511 0 01-9.5 9.5z"/><path d="M27.256 21.073a1.053 1.053 0 00-1.68.845v6.816a1.052 1.052 0 001.68.845l4.591-3.408a1.052 1.052 0 000-1.69z"/></g></symbol><symbol viewBox="0 0 38.996 32" id="icon-voicemail" xmlns="http://www.w3.org/2000/svg"><g><path d="M31.934.672a.966.966 0 00-.1-.186.785.785 0 00-.058-.112c-.011-.014-.028-.02-.039-.033a.985.985 0 00-.165-.137.925.925 0 00-.145-.1.964.964 0 00-.178-.055.9.9 0 00-.2-.04c-.019 0-.035-.011-.054-.011H1c-.019 0-.036.01-.055.011a1.006 1.006 0 00-.193.039 1.027 1.027 0 00-.183.057.95.95 0 00-.142.1.97.97 0 00-.167.139C.248.357.232.363.221.377a.785.785 0 00-.058.112.966.966 0 00-.1.186A30 30 0 010 1v20c0 .035.017.065.02.1a1.017 1.017 0 00.056.278 1 1 0 00.174.266c.015.017.021.04.038.057a1 1 0 00.326.219A.984.984 0 001 22h17a1 1 0 000-2H3.441l8.812-8.676 3.121 2.508a1 1 0 001.252 0l3.127-2.512 5.051 4.9a1 1 0 001.392-1.436l-4.872-4.724L30 3.086V12a1 1 0 002 0V1a30 30 0 01-.066-.328zM2 18.612V3.086l8.683 6.977zm14-6.842L3.841 2h24.318z"/><path d="M31.433 15.1a1 1 0 00-1.058.12L25.649 19H22a1 1 0 00-1 1v7a1 1 0 001 1h3.649l4.726 3.781A1 1 0 0032 31V16a1 1 0 00-.567-.9zM23 21h2v5h-2zm7 7.919l-3-2.4v-6.04l3-2.4z"/><path d="M34.243 19.758a1 1 0 00-1.414 1.414 4 4 0 010 5.656 1 1 0 101.414 1.414 6 6 0 000-8.484z"/><path d="M36.364 17.636a1 1 0 00-1.414 1.414 7.009 7.009 0 010 9.9 1 1 0 101.414 1.414 9.011 9.011 0 000-12.728z"/></g></symbol><symbol viewBox="0 0 201.762 25.477" id="round-arrow-long" xmlns="http://www.w3.org/2000/svg"><g opacity=".25" stroke-width="2"><path d="M.451 21s39.583-20 100-20 100 20 100 20" stroke-dasharray="2 4"/><path d="M196.549 11.441l3.91 9.21-9.21 3.91" stroke-width="2.00112"/></g></symbol><symbol viewBox="0 0 81.912 14.471" id="round-arrow-short" xmlns="http://www.w3.org/2000/svg"><g opacity=".25" stroke-width="2"><path d="M.451 4.702s15.863 8.015 40.075 8.015 40.075-8.015 40.075-8.015" stroke-dasharray="2 4"/><path d="M76.681 14.088l3.924-9.243L71.362.921" stroke-width="2.00112"/></g></symbol><symbol viewBox="0 0 55.187 54.553" id="text-to-voiceover-step1" xmlns="http://www.w3.org/2000/svg"><defs><clipPath id="bga"><path d="M0 0h55.187v54.553H0z"/></clipPath></defs><g><g clip-path="url(#bga)"><path d="M13.637 19.23a1 1 0 00-1 1v11.442a1 1 0 002 0V20.23a1 1 0 00-1-1"/><path d="M17.759 22.363a1 1 0 00-1 1v5.177a1 1 0 002 0v-5.177a1 1 0 00-1-1"/><path d="M21.881 20.362a1 1 0 00-1 1v9.18a1 1 0 002 0v-9.18a1 1 0 00-1-1"/><path d="M38.37 32.672a1 1 0 001-1V20.23a1 1 0 00-2 0v11.442a1 1 0 001 1"/><path d="M35.248 23.363a1 1 0 10-2 0v5.177a1 1 0 102 0z"/><path d="M30.125 20.362a1 1 0 00-1 1v9.18a1 1 0 002 0v-9.18a1 1 0 00-1-1"/><path d="M26 18.056a1 1 0 00-1 1v13.878a1 1 0 002 0V19.056a1 1 0 00-1-1"/><path d="M26 12.922a1 1 0 00-1 1v.363a1 1 0 102 0v-.363a1 1 0 00-1-1"/><path d="M26 36.705a1 1 0 00-1 1v.363a1 1 0 002 0v-.363a1 1 0 00-1-1"/><path d="M1 14.118a1 1 0 001-1V2h11.129a1 1 0 000-2H1a1 1 0 00-1 1v12.118a1 1 0 001 1"/><path d="M13.129 49.989H2V38.871a1 1 0 00-2 0v12.118a1 1 0 001 1h12.129a1 1 0 000-2"/><path d="M38.882 2H50v11.118a1 1 0 002 0V1a1 1 0 00-1-1H38.882a1 1 0 000 2"/><path d="M45.186 34.553a10 10 0 00-7.041 17.1 1.148 1.148 0 00.1.094 10 10 0 106.938-17.192m-3.707 8.929a1 1 0 011.414 0l1.475 1.475 3.111-3.111a1 1 0 111.414 1.414l-3.818 3.818a1 1 0 01-1.414 0l-2.179-2.18a1 1 0 010-1.414"/></g></g></symbol><symbol viewBox="0 0 40 53" id="text-to-voiceover-step2" xmlns="http://www.w3.org/2000/svg"><defs><clipPath id="bha"><path d="M0 0h40v53H0z"/></clipPath></defs><g clip-path="url(#bha)"><path d="M9 53h15a1 1 0 00.382-.077.978.978 0 00.167-.109 1.048 1.048 0 00.148-.1l15-15A1 1 0 0040 37V9a9.011 9.011 0 00-9-9H9a9.011 9.011 0 00-9 9v35a9.011 9.011 0 009 9M2 9a7.008 7.008 0 017-7h22a7.008 7.008 0 017 7v27h-6a9.011 9.011 0 00-9 9v6H9a7.008 7.008 0 01-7-7z"/><path d="M28 20H12a1 1 0 000 2h16a1 1 0 000-2"/><path d="M28 25H12a1 1 0 000 2h16a1 1 0 000-2"/><path d="M19 30h-7a1 1 0 000 2h7a1 1 0 000-2"/></g></symbol><symbol viewBox="0 0 45.597 53.77" id="text-to-voiceover-step3" xmlns="http://www.w3.org/2000/svg"><g><g><path d="M41.157 23.32v-.01a4.311 4.311 0 00-1.7.35l-.67.28-.18-.71a4.451 4.451 0 00-5.38-3.22c-.22.06-.43.13-.64.21l-.66.28-.18-.7a4.458 4.458 0 00-4.31-3.35 4.509 4.509 0 00-1.58.29l-.84.32v-6.34a4.454 4.454 0 00-4.44-4.43h-.01a4.43 4.43 0 00-4.42 4.43V34.5l-8.36-6.09A5.195 5.195 0 001 28.89a3.446 3.446 0 000 4.85l16.17 16.18a13.106 13.106 0 009.25 3.85h5.44a13.1 13.1 0 0013.1-12.5l.64-13.56a4.439 4.439 0 00-4.44-4.39m1.81 17.85a11.1 11.1 0 01-11.11 10.6h-5.42a11.1 11.1 0 01-7.85-3.26L2.407 32.33a1.443 1.443 0 010-2.02 3.035 3.035 0 012.26-.93h.01a3.223 3.223 0 011.93.65l9.95 7.24a1 1 0 001.4-.21 1.036 1.036 0 00.19-.59V10.72a2.454 2.454 0 012.44-2.43 2.424 2.424 0 012.42 2.43v17.17a1 1 0 002 0v-7.02a2.431 2.431 0 014.86-.02v7.04a1.005 1.005 0 002.01 0V24.3a2.43 2.43 0 014.86 0l.01 3.71a1 1 0 001.99-.13v-.14a2.436 2.436 0 014.87-.11z"/><path d="M30.577 14.51a1.038 1.038 0 01-1.29.59 1.006 1.006 0 01-.58-1.29 8.7 8.7 0 00-8.13-11.8 8.8 8.8 0 00-3.1.57 8.714 8.714 0 00-5.029 11.22 1.012 1.012 0 01-.231 1.07.965.965 0 01-.7.29.99.99 0 01-.71-.29v-.01a1.181 1.181 0 01-.23-.35A10.694 10.694 0 0124.387.71a10.7 10.7 0 016.19 13.8"/></g></g></symbol></svg>