<svg xmlns="http://www.w3.org/2000/svg" xmlns:xlink="http://www.w3.org/1999/xlink" width="94.179" height="81.84" viewBox="0 0 94.179 81.84">
  <clipPath id="clip-path">
    <rect id="Rectangle_425" data-name="Rectangle 425" width="78.14" height="67.88" transform="translate(0 0)" />
  </clipPath>
  <clipPath id="clip-path-2">
    <rect id="Rectangle_424" data-name="Rectangle 424" width="94.179" height="81.84" transform="translate(0 0)" />
  </clipPath>
  <g id="Group_182" data-name="Group 182" transform="translate(-101 -0.205)">
    <g id="Group_232" data-name="Group 232" transform="translate(116 13)">
      <g id="Group_231" data-name="Group 231" clip-path="url(#clip-path)">
        <path id="Path_13343" data-name="Path 13343" d="M64.16,39.92A13.98,13.98,0,1,0,78.14,53.9,13.994,13.994,0,0,0,64.16,39.92M69.8,55.81l-5.68,4.21a2.343,2.343,0,0,1-1.41.47,2.283,2.283,0,0,1-1.07-.26,2.351,2.351,0,0,1-1.3-2.12V49.69a2.37,2.37,0,0,1,3.78-1.91L69.8,52a2.37,2.37,0,0,1,0,3.81M47.18,53.9a16.959,16.959,0,0,1,.17-2.27l-3.43-.93-7.21,6.31a4.6,4.6,0,0,1-6.02.02L27.88,54.6l-2.81,2.43a4.614,4.614,0,0,1-6.03-.02l-7.2-6.31L5.33,52.46A11.642,11.642,0,0,0,0,55.64a37.79,37.79,0,0,0,48.96,5.79,16.839,16.839,0,0,1-1.78-7.53m-7.2-7.5a1.008,1.008,0,0,0-1.46-.23L30.2,52.7l2.42,2.09a1.627,1.627,0,0,0,2.14-.01l6.83-5.98ZM33.06,0H22.7A11.049,11.049,0,0,0,11.66,11.04v7.18h1.53a1.553,1.553,0,0,0,1.55-1.56V13.54A4.462,4.462,0,0,1,19.2,9.09a4.412,4.412,0,0,1,1.82.39,16.742,16.742,0,0,0,13.72,0,4.378,4.378,0,0,1,1.82-.39,4.46,4.46,0,0,1,4.45,4.45v3.12a1.56,1.56,0,0,0,1.55,1.56H44.1V11.04A11.056,11.056,0,0,0,33.06,0M17.23,46.17a1.008,1.008,0,0,0-1.46.23l-1.6,2.4,6.82,5.98a1.627,1.627,0,0,0,2.14.01l2.42-2.09Z" fill="#fff"/>
      </g>
    </g>
    <g id="Group_230" data-name="Group 230" transform="translate(101 0.205)">
      <g id="Group_229" data-name="Group 229" clip-path="url(#clip-path-2)">
        <path id="Path_13341" data-name="Path 13341" d="M81.14,48.36a40.541,40.541,0,0,0,.7-7.44A40.991,40.991,0,1,0,63.582,74.959,16.964,16.964,0,1,0,81.14,48.36M11.129,64.338A37.909,37.909,0,1,1,78.84,40.92a37.649,37.649,0,0,1-.67,7.009c-.323-.019-.643-.049-.97-.049A17.006,17.006,0,0,0,61.029,59.693l-3.524-.957-2.019-3.021a3.96,3.96,0,0,0-5.579-1.033V51.114a16.18,16.18,0,0,0,7.088-11.726h1.162A3.787,3.787,0,0,0,61.939,35.6V32.956A3.78,3.78,0,0,0,60.1,29.715V22a14.014,14.014,0,0,0-14-14H35.741a14.014,14.014,0,0,0-14,14v7.719A3.783,3.783,0,0,0,19.9,32.956V35.6a3.787,3.787,0,0,0,3.783,3.784h1.161a16.178,16.178,0,0,0,7.089,11.726v3.568a3.96,3.96,0,0,0-5.579,1.033l-2.021,3.021L17.6,60.565a14.525,14.525,0,0,0-6.474,3.773M34.892,56.99V52.679a16.1,16.1,0,0,0,12.057,0V56.99L40.92,61.718Zm3.7,6.664-2.42,2.092a1.634,1.634,0,0,1-2.139-.006l-6.827-5.979,1.6-2.4a1.009,1.009,0,0,1,1.461-.233ZM24.7,29.173V22a11.053,11.053,0,0,1,11.04-11.04H46.1A11.053,11.053,0,0,1,57.14,22v7.177H55.606a1.556,1.556,0,0,1-1.553-1.555V24.5a4.451,4.451,0,0,0-6.275-4.06,16.764,16.764,0,0,1-13.716,0,4.45,4.45,0,0,0-6.274,4.06v3.12a1.557,1.557,0,0,1-1.555,1.555Zm.054,2.958v4.3h-1.07a.826.826,0,0,1-.825-.824V32.956a.826.826,0,0,1,.825-.825Zm33.4,0a.825.825,0,0,1,.824.824V35.6a.825.825,0,0,1-.824.824H57.086v-4.3Zm-30.444-.249a4.523,4.523,0,0,0,3.034-4.265V24.5a1.493,1.493,0,0,1,1.492-1.492,1.478,1.478,0,0,1,.611.131,19.734,19.734,0,0,0,16.141,0,1.472,1.472,0,0,1,.611-.131A1.493,1.493,0,0,1,51.093,24.5v3.12a4.523,4.523,0,0,0,3.034,4.265v5.8a13.207,13.207,0,1,1-26.414,0ZM51.567,57.127a1.007,1.007,0,0,1,1.459.233l1.606,2.4L47.805,65.74a1.635,1.635,0,0,1-2.14.006l-2.419-2.092ZM40.92,78.84A37.818,37.818,0,0,1,13.047,66.6a11.6,11.6,0,0,1,5.331-3.177l6.5-1.765,7.207,6.311a4.609,4.609,0,0,0,6.025.019l2.809-2.429,2.809,2.429a4.609,4.609,0,0,0,6.025-.018l7.206-6.312,3.43.931a17.059,17.059,0,0,0-.17,2.275A16.854,16.854,0,0,0,62,72.385,37.587,37.587,0,0,1,40.92,78.84m36.28,0A13.98,13.98,0,1,1,91.179,64.86,14,14,0,0,1,77.2,78.84"/>
        <path id="Path_13342" data-name="Path 13342" d="M82.847,62.952l-5.68-4.21a2.374,2.374,0,0,0-3.788,1.906v8.423a2.372,2.372,0,0,0,3.788,1.906l5.68-4.211a2.374,2.374,0,0,0,0-3.814m-6.468,4.875V61.891l4,2.968Z"/>
      </g>
    </g>
  </g>
</svg>
