<svg xmlns="http://www.w3.org/2000/svg" width="92.24" height="81.982" viewBox="0 0 92.24 81.982">
  <g id="Group_73" data-name="Group 73" transform="translate(-926.95 -66.39)">
    <path id="Path_52" data-name="Path 52" d="M1013.526,66.39H932.595a5.661,5.661,0,0,0-5.645,5.664v60.619a5.649,5.649,0,0,0,5.645,5.664h30.874l.032,6.345h-8.314a1.845,1.845,0,1,0,0,3.69h35.749a1.845,1.845,0,1,0,0-3.69H982.7l-.028-6.345h30.856a5.665,5.665,0,0,0,5.664-5.664V72.054A5.678,5.678,0,0,0,1013.526,66.39Zm-40.457,67.057a3.221,3.221,0,1,1,3.221-3.221A3.221,3.221,0,0,1,973.069,133.447Zm42.431-12.653H930.64V72.054a1.97,1.97,0,0,1,1.954-1.974h80.932a1.976,1.976,0,0,1,1.974,1.974Z" transform="translate(0)" fill="#00f1d7"/>
    <path id="Path_53" data-name="Path 53" d="M1087.976,104.19a14.426,14.426,0,1,0,14.426,14.426A14.447,14.447,0,0,0,1087.976,104.19Zm6.518,15.883-8.334,5.247a1.775,1.775,0,0,1-1.749.052,1.729,1.729,0,0,1-.891-1.509V113.369a1.723,1.723,0,0,1,.891-1.507,1.771,1.771,0,0,1,1.749.05l8.334,5.247a1.742,1.742,0,0,1,0,2.914Z" transform="translate(-114.907 -29.628)" fill="#00f1d7"/>
    <path id="Path_54" data-name="Path 54" d="M1074.14,248.076h-29.713a5.708,5.708,0,0,0-10.825,0h-4.736a1.845,1.845,0,1,0,0,3.69h4.732a5.708,5.708,0,0,0,10.833,0h29.708a1.845,1.845,0,1,0,0-3.69Zm-35.126,3.906a2.058,2.058,0,0,1-2.054-2.045c0-.006,0-.011,0-.017a.1.1,0,0,1,0-.011,2.055,2.055,0,1,1,2.052,2.073Z" transform="translate(-78.436 -139.354)" fill="#00f1d7"/>
  </g>
</svg>
