<svg xmlns="http://www.w3.org/2000/svg" width="15.996" height="23.267" viewBox="0 0 15.996 23.267">
  <path id="Icon_awesome-microphone" data-name="Icon awesome-microphone" d="M8,16a4.362,4.362,0,0,0,4.362-4.362V4.362a4.362,4.362,0,0,0-8.725,0v7.271A4.362,4.362,0,0,0,8,16Zm7.271-7.271h-.727a.727.727,0,0,0-.727.727v2.181a5.823,5.823,0,0,1-6.4,5.788,5.993,5.993,0,0,1-5.235-6.047V9.452a.727.727,0,0,0-.727-.727H.727A.727.727,0,0,0,0,9.452v1.825a8.248,8.248,0,0,0,6.907,8.256v1.552H4.362a.727.727,0,0,0-.727.727v.727a.727.727,0,0,0,.727.727h7.271a.727.727,0,0,0,.727-.727v-.727a.727.727,0,0,0-.727-.727H9.089V19.551A8.006,8.006,0,0,0,16,11.633V9.452A.727.727,0,0,0,15.269,8.725Z" fill="#00ccfa"/>
</svg>
