<svg xmlns="http://www.w3.org/2000/svg" xmlns:xlink="http://www.w3.org/1999/xlink" width="90" height="82.045" viewBox="0 0 90 82.045">
  <defs>
    <clipPath id="clip-path">
      <rect id="Rectangle_47" data-name="Rectangle 47" width="90" height="82.045" fill="none" stroke="#000" stroke-width="3"/>
    </clipPath>
  </defs>
  <g id="Group_1200" data-name="Group 1200" transform="translate(-315 -4420)">
    <g id="Group_184" data-name="Group 184" transform="translate(-427.681 3617.131)">
      <g id="Group_183" data-name="Group 183">
        <path id="Path_13260" data-name="Path 13260" d="M817.07,869.557a7.384,7.384,0,0,1-5.256,2.176h0l-.085,0a7.44,7.44,0,1,1,5.345-2.178Z" fill="#fff"/>
        <path id="Path_13261" data-name="Path 13261" d="M747.681,830.869v32.617a6.662,6.662,0,0,0,6.628,6.623h39.9c-.027-.083-.063-.162-.089-.246h-.994a3.954,3.954,0,0,1-3.937-3.932v-3.253a3.954,3.954,0,0,1,3.933-3.939h.995a18.379,18.379,0,0,1,1.249-3.013l-.7-.7a3.952,3.952,0,0,1,0-5.565l2.3-2.3a3.954,3.954,0,0,1,5.566,0l.7.705a18.443,18.443,0,0,1,3.014-1.249v-.994a3.953,3.953,0,0,1,3.933-3.936h3.253a3.951,3.951,0,0,1,3.938,3.932v.995a18.283,18.283,0,0,1,3.014,1.248l.7-.7a3.93,3.93,0,0,1,2.051-1.077v-15.2Zm15.074,23.182a1.5,1.5,0,0,1-2.121,2.121l-5.3-5.3a1.5,1.5,0,0,1,0-2.121l5.3-5.3a1.5,1.5,0,0,1,2.121,2.121l-4.244,4.244ZM773.127,842.7l-3.56,15.667a1.5,1.5,0,0,1-1.461,1.168,1.518,1.518,0,0,1-.334-.037,1.5,1.5,0,0,1-1.131-1.795l3.56-15.667a1.5,1.5,0,1,1,2.926.664Zm11.313,8.17-5.3,5.3a1.5,1.5,0,0,1-2.121-2.121l4.244-4.245-4.244-4.244a1.5,1.5,0,0,1,2.121-2.121l5.3,5.3A1.5,1.5,0,0,1,784.44,850.867Z" fill="#fff"/>
      </g>
    </g>
    <g id="Group_182" data-name="Group 182" transform="translate(315 4420)">
      <g id="Group_61" data-name="Group 61" clip-path="url(#clip-path)">
        <path id="Path_13" data-name="Path 13" d="M52.2,66.986H10.123A8.147,8.147,0,0,1,2,58.863V10.123A8.147,8.147,0,0,1,10.123,2H72.336a8.147,8.147,0,0,1,8.123,8.123V42.616" transform="translate(-0.375 -0.375)" fill="none" stroke="#000" stroke-width="3"/>
        <circle id="Ellipse_22" data-name="Ellipse 22" cx="4.062" cy="4.062" r="4.062" transform="translate(9.58 8.936)" fill="none" stroke="#000" stroke-width="3"/>
        <circle id="Ellipse_23" data-name="Ellipse 23" cx="4.062" cy="4.062" r="4.062" transform="translate(25.014 8.936)" fill="none" stroke="#000" stroke-width="3"/>
        <line id="Line_6" data-name="Line 6" x2="78.796" transform="translate(1.456 24.37)" fill="none" stroke="#000" stroke-width="3"/>
        <path id="Path_14" data-name="Path 14" d="M72.538,19.123H53.855a4.062,4.062,0,0,1,0-8.123H72.538a4.062,4.062,0,1,1,0,8.123Z" transform="translate(-9.345 -2.064)" fill="none" stroke="#000" stroke-width="3"/>
        <path id="Path_15" data-name="Path 15" d="M96.6,64.059H94.465a16.921,16.921,0,0,0-1.977-4.769L94,57.781a2.444,2.444,0,0,0,0-3.447l-2.3-2.3a2.444,2.444,0,0,0-3.447,0l-1.508,1.508a16.922,16.922,0,0,0-4.769-1.977V49.437A2.444,2.444,0,0,0,79.538,47H76.289a2.444,2.444,0,0,0-2.437,2.437v2.132a16.922,16.922,0,0,0-4.769,1.977l-1.508-1.508a2.444,2.444,0,0,0-3.447,0l-2.3,2.3a2.444,2.444,0,0,0,0,3.447l1.508,1.508a16.922,16.922,0,0,0-1.977,4.769H59.23A2.444,2.444,0,0,0,56.793,66.5v3.249a2.444,2.444,0,0,0,2.437,2.437h2.132a16.922,16.922,0,0,0,1.977,4.769L61.83,78.46a2.444,2.444,0,0,0,0,3.447l2.3,2.3a2.444,2.444,0,0,0,3.447,0L69.083,82.7a16.922,16.922,0,0,0,4.769,1.977V86.8a2.444,2.444,0,0,0,2.437,2.437h3.249A2.444,2.444,0,0,0,81.975,86.8V84.672A16.922,16.922,0,0,0,86.744,82.7L88.253,84.2a2.444,2.444,0,0,0,3.447,0l2.3-2.3a2.444,2.444,0,0,0,0-3.447l-1.508-1.508a16.921,16.921,0,0,0,1.977-4.769H96.6a2.444,2.444,0,0,0,2.437-2.437V66.5A2.444,2.444,0,0,0,96.6,64.059Zm-18.683,13a8.936,8.936,0,1,1,8.936-8.936A8.936,8.936,0,0,1,77.913,77.056Z" transform="translate(-10.659 -8.821)" fill="none" stroke="#000" stroke-linecap="round" stroke-linejoin="round" stroke-width="3"/>
        <path id="Path_16" data-name="Path 16" d="M19.873,59.24l-5.305-5.305,5.305-5.305" transform="translate(-2.734 -9.127)" fill="none" stroke="#000" stroke-linecap="round" stroke-linejoin="round" stroke-width="3"/>
        <path id="Path_17" data-name="Path 17" d="M41.262,48.63l5.305,5.305-5.305,5.305" transform="translate(-7.744 -9.127)" fill="none" stroke="#000" stroke-linecap="round" stroke-linejoin="round" stroke-width="3"/>
        <line id="Line_7" data-name="Line 7" y1="15.667" x2="3.56" transform="translate(23.548 37.367)" fill="none" stroke="#000" stroke-linecap="round" stroke-linejoin="round" stroke-width="3"/>
      </g>
    </g>
  </g>
</svg>
