<svg xmlns="http://www.w3.org/2000/svg" width="97.581" height="87.712" viewBox="0 0 97.581 87.712">
  <g id="Group_77" data-name="Group 77" transform="translate(-332.74 -90.85)">
    <g id="Group_73" data-name="Group 73" transform="translate(332.74 90.85)">
      <path id="Path_52" data-name="Path 52" d="M414.907,90.85H338.089a5.365,5.365,0,0,0-5.349,5.382v57.528a5.363,5.363,0,0,0,5.339,5.382h29.315l.032,6.013h-7.9a1.755,1.755,0,0,0,0,3.509h33.937a1.755,1.755,0,0,0,0-3.509h-7.821l-.021-6.013H395.8l-.021-16.658H336.239V96.232a1.872,1.872,0,0,1,1.851-1.883h76.818a1.89,1.89,0,0,1,1.872,1.883v15.663a19.938,19.938,0,0,1,3.5.61V96.232A5.383,5.383,0,0,0,414.907,90.85Zm-38.4,57.528a3.06,3.06,0,1,1-3.06,3.06A3.059,3.059,0,0,1,376.509,148.378Z" transform="translate(-332.74 -90.85)" fill="#fff"/>
    </g>
    <path id="Path_56" data-name="Path 56" d="M410.794,114.458v0a15.13,15.13,0,0,0-15.134,15.127v1.335h8.2a1.674,1.674,0,0,1,0,3.347h-8.2v3.268h8.2a1.676,1.676,0,0,1,0,3.352h-8.2v3.263h8.2a1.676,1.676,0,0,1,0,3.352h-8.2v3.266h8.2a1.675,1.675,0,0,1,0,3.348h-8.2v.049a15.133,15.133,0,0,0,12.63,14.921v3.745h-3.371a2.039,2.039,0,1,0,0,4.077h11.959a2.039,2.039,0,0,0,0-4.077H413.5v-3.782a15.13,15.13,0,0,0,12.419-14.883v-.049h-8.2a1.668,1.668,0,0,1-1.673-1.663h0v-.011a1.672,1.672,0,0,1,1.669-1.674h8.2v-3.266h-8.2a1.676,1.676,0,0,1,0-3.352h8.2v-3.268h-8.2a1.676,1.676,0,0,1,0-3.352h8.2v-3.268h-8.2a1.673,1.673,0,0,1,0-3.347h8.2v-1.332A15.135,15.135,0,0,0,410.794,114.458Zm0,49.623h0a2.708,2.708,0,1,1,2.71-2.706A2.708,2.708,0,0,1,410.789,164.081Z" transform="translate(4.397 1.65)" fill="#fff"/>
    <path id="Path_53" data-name="Path 53" d="M383.992,119.731l-13.571,8.545a2.892,2.892,0,0,1-2.848.085,2.812,2.812,0,0,1-1.451-2.458V108.814a2.8,2.8,0,0,1,1.451-2.454,2.886,2.886,0,0,1,2.848.081l13.571,8.545a2.837,2.837,0,0,1,0,4.745Z" transform="translate(2.333 1.06)" fill="#fff"/>
  </g>
</svg>
