<svg xmlns="http://www.w3.org/2000/svg" version="1.1" xmlns:xlink="http://www.w3.org/1999/xlink" xmlns:svgjs="http://svgjs.com/svgjs" width="37" height="29"><svg width="37" height="29" viewBox="0 0 37 29" fill="none" xmlns="http://www.w3.org/2000/svg">
<path d="M23.2 28.13C22.5516 28.1295 21.9299 27.8718 21.4714 27.4134C21.0128 26.9551 20.7548 26.3336 20.754 25.6853V4.94247C20.7579 4.82887 20.7389 4.71565 20.6981 4.60955C20.6573 4.50345 20.5956 4.40664 20.5166 4.3249C20.4376 4.24315 20.343 4.17815 20.2383 4.13375C20.1337 4.08935 20.0212 4.06647 19.9075 4.06647C19.7938 4.06647 19.6813 4.08935 19.5767 4.13375C19.472 4.17815 19.3774 4.24315 19.2984 4.3249C19.2194 4.40664 19.1577 4.50345 19.1169 4.60955C19.0761 4.71565 19.0571 4.82887 19.061 4.94247V16.5092C19.061 17.1579 18.8033 17.78 18.3446 18.2386C17.8859 18.6973 17.2637 18.955 16.615 18.955C15.9663 18.955 15.3441 18.6973 14.8854 18.2386C14.4267 17.78 14.169 17.1579 14.169 16.5092V2.44574C14.169 2.22139 14.0799 2.00623 13.9212 1.84759C13.7626 1.68895 13.5474 1.59983 13.323 1.59983C13.0986 1.59983 12.8834 1.68895 12.7248 1.84759C12.5661 2.00623 12.477 2.22139 12.477 2.44574V22.3686C12.477 23.0173 12.2193 23.6393 11.7606 24.098C11.3019 24.5567 10.6797 24.8144 10.031 24.8144C9.38228 24.8144 8.76013 24.5567 8.30142 24.098C7.8427 23.6393 7.585 23.0173 7.585 22.3686V9.06903C7.57746 8.84959 7.48497 8.64165 7.32704 8.48907C7.16912 8.3365 6.9581 8.25122 6.7385 8.25122C6.5189 8.25122 6.30788 8.3365 6.14996 8.48907C5.99203 8.64165 5.89954 8.84959 5.892 9.06903V12.3327C5.892 12.5448 5.80771 12.7483 5.65769 12.8983C5.50766 13.0483 5.30417 13.1326 5.092 13.1326H0.8C0.587827 13.1326 0.384344 13.0483 0.234315 12.8983C0.0842855 12.7483 0 12.5448 0 12.3327C0 12.1205 0.0842855 11.9171 0.234315 11.7671C0.384344 11.617 0.587827 11.5328 0.8 11.5328H4.3V9.06903C4.3 8.42038 4.5577 7.7983 5.01642 7.33963C5.47513 6.88097 6.09728 6.62329 6.746 6.62329C7.39472 6.62329 8.01687 6.88097 8.47558 7.33963C8.9343 7.7983 9.192 8.42038 9.192 9.06903V22.3676C9.19954 22.5871 9.29203 22.795 9.44996 22.9476C9.60788 23.1001 9.8189 23.1854 10.0385 23.1854C10.2581 23.1854 10.4691 23.1001 10.627 22.9476C10.785 22.795 10.8775 22.5871 10.885 22.3676V2.44574C10.885 1.79709 11.1427 1.17501 11.6014 0.71634C12.0601 0.257675 12.6823 0 13.331 0C13.9797 0 14.6019 0.257675 15.0606 0.71634C15.5193 1.17501 15.777 1.79709 15.777 2.44574V16.5092C15.7731 16.6228 15.7921 16.7361 15.8329 16.8422C15.8737 16.9483 15.9354 17.0451 16.0144 17.1268C16.0934 17.2086 16.188 17.2736 16.2927 17.318C16.3973 17.3624 16.5098 17.3852 16.6235 17.3852C16.7372 17.3852 16.8497 17.3624 16.9543 17.318C17.059 17.2736 17.1536 17.2086 17.2326 17.1268C17.3116 17.0451 17.3733 16.9483 17.4141 16.8422C17.4549 16.7361 17.4739 16.6228 17.47 16.5092V4.94247C17.47 4.29382 17.7277 3.67174 18.1864 3.21307C18.6451 2.75441 19.2673 2.49673 19.916 2.49673C20.5647 2.49673 21.1869 2.75441 21.6456 3.21307C22.1043 3.67174 22.362 4.29382 22.362 4.94247V25.6853C22.362 25.9096 22.4511 26.1248 22.6098 26.2834C22.7684 26.442 22.9836 26.5312 23.208 26.5312C23.4324 26.5312 23.6476 26.442 23.8062 26.2834C23.9649 26.1248 24.054 25.9096 24.054 25.6853V2.44574C24.054 1.79709 24.3117 1.17501 24.7704 0.71634C25.2291 0.257675 25.8513 0 26.5 0C27.1487 0 27.7709 0.257675 28.2296 0.71634C28.6883 1.17501 28.946 1.79709 28.946 2.44574V18.998C28.9421 19.1116 28.9611 19.2248 29.0019 19.3309C29.0427 19.437 29.1044 19.5338 29.1834 19.6155C29.2624 19.6973 29.357 19.7623 29.4617 19.8067C29.5663 19.8511 29.6788 19.874 29.7925 19.874C29.9062 19.874 30.0187 19.8511 30.1233 19.8067C30.228 19.7623 30.3226 19.6973 30.4016 19.6155C30.4806 19.5338 30.5423 19.437 30.5831 19.3309C30.6239 19.2248 30.6429 19.1116 30.639 18.998V12.3327C30.639 12.1205 30.7233 11.9171 30.8733 11.7671C31.0233 11.617 31.2268 11.5328 31.439 11.5328H35.668C35.7731 11.5328 35.8771 11.5535 35.9741 11.5937C36.0712 11.6339 36.1594 11.6928 36.2337 11.7671C36.308 11.8413 36.3669 11.9295 36.4071 12.0266C36.4473 12.1236 36.468 12.2276 36.468 12.3327C36.468 12.4377 36.4473 12.5417 36.4071 12.6388C36.3669 12.7358 36.308 12.824 36.2337 12.8983C36.1594 12.9726 36.0712 13.0315 35.9741 13.0717C35.8771 13.1119 35.7731 13.1326 35.668 13.1326H32.234V18.998C32.234 19.6466 31.9763 20.2687 31.5176 20.7274C31.0589 21.186 30.4367 21.4437 29.788 21.4437C29.1393 21.4437 28.5171 21.186 28.0584 20.7274C27.5997 20.2687 27.342 19.6466 27.342 18.998V2.44574C27.342 2.22126 27.2528 2.00597 27.0941 1.84724C26.9353 1.6885 26.72 1.59933 26.4955 1.59933C26.271 1.59933 26.0557 1.6885 25.8969 1.84724C25.7382 2.00597 25.649 2.22126 25.649 2.44574V25.6853C25.6482 26.3341 25.3898 26.9561 24.9306 27.4145C24.4714 27.8729 23.8489 28.1303 23.2 28.13Z" fill="url(#paint0_linear_195_9652)"></path>
<defs>
<linearGradient id="SvgjsLinearGradient1000" x1="36.468" y1="28.13" x2="9.25995" y2="-7.14277" gradientUnits="userSpaceOnUse">
<stop stop-color="#00F1D7"></stop>
<stop offset="1" stop-color="#00CCFA"></stop>
</linearGradient>
</defs>
</svg><style>@media (prefers-color-scheme: light) { :root { filter: none; } }
</style></svg>