<svg xmlns="http://www.w3.org/2000/svg" width="13.416" height="10.896" viewBox="0 0 13.416 10.896">
  <path id="Icon_awesome-twitter" data-name="Icon awesome-twitter" d="M12.037,6.1c.009.119.009.238.009.358a7.769,7.769,0,0,1-7.823,7.823A7.77,7.77,0,0,1,0,13.043a5.688,5.688,0,0,0,.664.034A5.507,5.507,0,0,0,4.078,11.9,2.754,2.754,0,0,1,1.507,10a3.467,3.467,0,0,0,.519.043,2.908,2.908,0,0,0,.724-.094,2.75,2.75,0,0,1-2.2-2.7V7.211a2.769,2.769,0,0,0,1.243.349A2.754,2.754,0,0,1,.936,3.883,7.816,7.816,0,0,0,6.606,6.76a3.1,3.1,0,0,1-.068-.63A2.752,2.752,0,0,1,11.3,4.249a5.413,5.413,0,0,0,1.745-.664A2.742,2.742,0,0,1,11.832,5.1a5.512,5.512,0,0,0,1.583-.426A5.911,5.911,0,0,1,12.037,6.1Z" transform="translate(0 -3.381)" fill="#fff"/>
</svg>
