<svg id="Group_239" data-name="Group 239" xmlns="http://www.w3.org/2000/svg" xmlns:xlink="http://www.w3.org/1999/xlink" width="52" height="52" viewBox="0 0 52 52">
  <defs>
    <clipPath id="clip-path">
      <rect id="Rectangle_427" data-name="Rectangle 427" width="52" height="52" fill="#fff"/>
    </clipPath>
  </defs>
  <g id="Group_238" data-name="Group 238" clip-path="url(#clip-path)">
    <path id="Path_13345" data-name="Path 13345" d="M46,0H6A6.006,6.006,0,0,0,0,6V46a6.006,6.006,0,0,0,6,6H46a6.006,6.006,0,0,0,6-6V6a6.006,6.006,0,0,0-6-6M6,2H46a4,4,0,0,1,4,4v6H2V6A4,4,0,0,1,6,2M46,50H6a4,4,0,0,1-4-4V14H50V46a4,4,0,0,1-4,4" fill="#fff"/>
    <path id="Path_13346" data-name="Path 13346" d="M18.518,26.126a1,1,0,0,0-1.414,0L11.8,31.431a1,1,0,0,0,0,1.414L17.1,38.15a1,1,0,1,0,1.414-1.414l-4.6-4.6,4.6-4.6a1,1,0,0,0,0-1.414" fill="#fff"/>
    <path id="Path_13347" data-name="Path 13347" d="M34.9,26.126a1,1,0,0,0-1.414,1.414l4.6,4.6-4.6,4.6A1,1,0,1,0,34.9,38.15L40.2,32.845a1,1,0,0,0,0-1.414Z" fill="#fff"/>
    <path id="Path_13348" data-name="Path 13348" d="M28,23.722a1,1,0,0,0-1.2.754L23.245,40.143a1,1,0,1,0,1.95.443l3.559-15.667a1,1,0,0,0-.753-1.2" fill="#fff"/>
    <path id="Path_13349" data-name="Path 13349" d="M6.29,7.71a1.014,1.014,0,0,0,1.42,0,1.169,1.169,0,0,0,.21-.33A.838.838,0,0,0,8,7a1,1,0,0,0-.08-.38,1.155,1.155,0,0,0-.21-.33,1.047,1.047,0,0,0-1.42,0,1.155,1.155,0,0,0-.21.33A1,1,0,0,0,6,7a.838.838,0,0,0,.08.38,1.169,1.169,0,0,0,.21.33" fill="#fff"/>
    <path id="Path_13350" data-name="Path 13350" d="M10.29,7.71a1.014,1.014,0,0,0,1.42,0,1.169,1.169,0,0,0,.21-.33A.839.839,0,0,0,12,7a1,1,0,0,0-.08-.38,1.155,1.155,0,0,0-.21-.33,1.047,1.047,0,0,0-1.42,0,1.155,1.155,0,0,0-.21.33A1,1,0,0,0,10,7a.839.839,0,0,0,.08.38,1.169,1.169,0,0,0,.21.33" fill="#fff"/>
    <path id="Path_13351" data-name="Path 13351" d="M14.29,7.71a1.014,1.014,0,0,0,1.42,0,1.169,1.169,0,0,0,.21-.33A.839.839,0,0,0,16,7a1,1,0,0,0-.08-.38,1.155,1.155,0,0,0-.21-.33,1.047,1.047,0,0,0-1.42,0,1.155,1.155,0,0,0-.21.33A1,1,0,0,0,14,7a.839.839,0,0,0,.08.38,1.169,1.169,0,0,0,.21.33" fill="#fff"/>
    <path id="Path_13352" data-name="Path 13352" d="M38,8h7a1,1,0,0,0,0-2H38a1,1,0,0,0,0,2" fill="#fff"/>
  </g>
</svg>
