<svg xmlns="http://www.w3.org/2000/svg" width="100" height="100" viewBox="0 0 100 100">
  <g id="Group_195" data-name="Group 195" transform="translate(-420 -1060)">
    <path id="Icon_awesome-microphone" data-name="Icon awesome-microphone" d="M12.5,25.005a6.82,6.82,0,0,0,6.82-6.82V6.82a6.82,6.82,0,1,0-13.639,0V18.186A6.82,6.82,0,0,0,12.5,25.005ZM23.869,13.639H22.732A1.136,1.136,0,0,0,21.6,14.776v3.41a9.1,9.1,0,0,1-10,9.049A9.369,9.369,0,0,1,3.41,17.781v-3a1.136,1.136,0,0,0-1.137-1.137H1.137A1.136,1.136,0,0,0,0,14.776v2.853A12.894,12.894,0,0,0,10.8,30.536v2.426H6.82A1.136,1.136,0,0,0,5.683,34.1v1.137A1.136,1.136,0,0,0,6.82,36.371H18.186a1.136,1.136,0,0,0,1.137-1.137V34.1a1.136,1.136,0,0,0-1.137-1.137H14.208v-2.4a12.515,12.515,0,0,0,10.8-12.377v-3.41A1.136,1.136,0,0,0,23.869,13.639Z" transform="translate(457.495 1091.356)" fill="#fff"/>
    <g id="Ellipse_2987" data-name="Ellipse 2987" transform="translate(420 1060)" fill="none" stroke="#00ccfa" stroke-width="2" opacity="0.25">
      <circle cx="50" cy="50" r="50" stroke="none"/>
      <circle cx="50" cy="50" r="49" fill="none"/>
    </g>
  </g>
</svg>
