<svg xmlns="http://www.w3.org/2000/svg" xmlns:xlink="http://www.w3.org/1999/xlink" width="161.327" height="143.728" viewBox="0 0 161.327 143.728">
  <defs>
    <linearGradient id="linear-gradient" x1="1.038" y1="0.515" x2="-0.087" y2="0.483" gradientUnits="objectBoundingBox">
      <stop offset="0" stop-color="#fff"/>
      <stop offset="1" stop-color="#cdd4f0"/>
    </linearGradient>
    <linearGradient id="linear-gradient-2" x1="0.442" y1="0.934" x2="0.489" y2="0.454" xlink:href="#linear-gradient"/>
    <linearGradient id="linear-gradient-3" x1="1.023" y1="0.52" x2="-0.053" y2="0.479" xlink:href="#linear-gradient"/>
    <linearGradient id="linear-gradient-4" x1="1.717" y1="-6.385" x2="-1.002" y2="8.997" gradientUnits="objectBoundingBox">
      <stop offset="0.004" stop-color="#ccd5db"/>
      <stop offset="1" stop-color="#6e6fd2"/>
    </linearGradient>
    <linearGradient id="linear-gradient-5" x1="1.61" y1="-5.78" x2="-1.109" y2="9.602" xlink:href="#linear-gradient-4"/>
    <linearGradient id="linear-gradient-6" x1="1.824" y1="-6.991" x2="-0.895" y2="8.391" xlink:href="#linear-gradient-4"/>
    <linearGradient id="linear-gradient-7" x1="3.711" y1="-8.581" x2="-1.728" y2="6.801" xlink:href="#linear-gradient-4"/>
    <linearGradient id="linear-gradient-8" x1="-15.792" y1="0.5" x2="-16.782" y2="0.5" xlink:href="#linear-gradient"/>
    <linearGradient id="linear-gradient-9" x1="-0.016" y1="1.141" x2="1.202" y2="-0.371" gradientUnits="objectBoundingBox">
      <stop offset="0" stop-color="#6e00ff"/>
      <stop offset="1" stop-color="#fb95fb"/>
    </linearGradient>
    <linearGradient id="linear-gradient-10" x1="0.735" y1="0.926" x2="0.373" y2="0.27" gradientUnits="objectBoundingBox">
      <stop offset="0" stop-color="#fff"/>
      <stop offset="1" stop-color="#fff" stop-opacity="0"/>
    </linearGradient>
  </defs>
  <g id="Group_1234" data-name="Group 1234" transform="translate(-1884.654 -824.768)">
    <g id="Group_1232" data-name="Group 1232">
      <g id="Group_1231" data-name="Group 1231">
        <path id="Path_13678" data-name="Path 13678" d="M1993.145,838.776V954.5a14,14,0,0,1-14.02,14h-80.48a13.988,13.988,0,0,1-13.99-14V863.3l18.71-18.71,19.83-19.8h55.93A14.024,14.024,0,0,1,1993.145,838.776Z" fill="url(#linear-gradient)"/>
        <path id="Path_13679" data-name="Path 13679" d="M1918.837,859.472l-34.175,34.175V863.3l18.713-18.713Z" fill="url(#linear-gradient-2)" style="mix-blend-mode: multiply;isolation: isolate"/>
        <path id="Path_13680" data-name="Path 13680" d="M1923.2,824.768v24.541A13.988,13.988,0,0,1,1909.2,863.3h-24.541Z" fill="url(#linear-gradient-3)"/>
        <g id="Group_1230" data-name="Group 1230">
          <path id="Path_13681" data-name="Path 13681" d="M1964.61,900.412h-51.422a3.4,3.4,0,0,0,0,6.792h51.422a3.4,3.4,0,0,0,0-6.792Z" fill="url(#linear-gradient-4)"/>
          <path id="Path_13682" data-name="Path 13682" d="M1913.188,893.647h51.422a3.4,3.4,0,0,0,0-6.792h-51.422a3.4,3.4,0,0,0,0,6.792Z" fill="url(#linear-gradient-5)"/>
          <path id="Path_13683" data-name="Path 13683" d="M1964.61,913.97h-51.422a3.4,3.4,0,0,0,0,6.792h51.422a3.4,3.4,0,0,0,0-6.792Z" fill="url(#linear-gradient-6)"/>
          <path id="Path_13684" data-name="Path 13684" d="M1935.5,927.527h-22.315a3.4,3.4,0,0,0,0,6.792H1935.5a3.4,3.4,0,0,0,0-6.792Z" fill="url(#linear-gradient-7)"/>
        </g>
      </g>
      <path id="Path_13685" data-name="Path 13685" d="M1884.654,950.333V954.5a14.012,14.012,0,0,0,14.023,14h80.472a13.988,13.988,0,0,0,13.995-14V841.045C1935.593,861.4,1963.488,949.33,1884.654,950.333Z" fill="url(#linear-gradient-8)" style="mix-blend-mode: multiply;isolation: isolate"/>
    </g>
    <path id="Path_13686" data-name="Path 13686" d="M2044.02,893.66h1.96v-3.52h-91.47v3.52h1.96a1.069,1.069,0,0,1,1.06,1.07v4.02a1.061,1.061,0,0,1-1.06,1.06h-1.96v52.07h1.96a.71.71,0,0,1,.29.05,1.053,1.053,0,0,1,.77,1.01v4.03a1.067,1.067,0,0,1-1.06,1.06h-1.96v3.53h91.47v-3.53h-1.96a1.067,1.067,0,0,1-1.06-1.06v-4.03a1.067,1.067,0,0,1,1.06-1.06h1.96V899.81h-1.96a1.061,1.061,0,0,1-1.06-1.06v-4.02A1.069,1.069,0,0,1,2044.02,893.66Zm-14.52,1.07a1.061,1.061,0,0,1,1.06-1.06h6.67a1.061,1.061,0,0,1,1.06,1.06v4.02a1.067,1.067,0,0,1-1.06,1.06h-6.67a1.067,1.067,0,0,1-1.06-1.06Zm-13.46,0a1.061,1.061,0,0,1,1.06-1.06h6.67a1.061,1.061,0,0,1,1.06,1.06v4.02a1.067,1.067,0,0,1-1.06,1.06h-6.67a1.067,1.067,0,0,1-1.06-1.06Zm-13.46,0a1.054,1.054,0,0,1,1.06-1.06h6.67a1.061,1.061,0,0,1,1.06,1.06v4.02a1.067,1.067,0,0,1-1.06,1.06h-6.67a1.061,1.061,0,0,1-1.06-1.06Zm-13.46,0a1.054,1.054,0,0,1,1.06-1.06h6.67a1.061,1.061,0,0,1,1.06,1.06v4.02a1.067,1.067,0,0,1-1.06,1.06h-6.67a1.061,1.061,0,0,1-1.06-1.06Zm-13.46,0a1.054,1.054,0,0,1,1.06-1.06h6.67a1.061,1.061,0,0,1,1.06,1.06v4.02a1.067,1.067,0,0,1-1.06,1.06h-6.67a1.06,1.06,0,0,1-1.06-1.06Zm-13.46,0a1.054,1.054,0,0,1,1.06-1.06h6.67a1.061,1.061,0,0,1,1.06,1.06v4.02a1.067,1.067,0,0,1-1.06,1.06h-6.67a1.061,1.061,0,0,1-1.06-1.06Zm8.79,62.24a1.067,1.067,0,0,1-1.06,1.06h-6.67a1.061,1.061,0,0,1-1.06-1.06v-4.02a1.063,1.063,0,0,1,1.06-1.07h6.67a1.069,1.069,0,0,1,1.06,1.07Zm13.46,0a1.067,1.067,0,0,1-1.06,1.06h-6.67a1.061,1.061,0,0,1-1.06-1.06v-4.02a1.063,1.063,0,0,1,1.06-1.07h6.67a1.069,1.069,0,0,1,1.06,1.07Zm13.46,0a1.067,1.067,0,0,1-1.06,1.06h-6.67a1.061,1.061,0,0,1-1.06-1.06v-4.02a1.063,1.063,0,0,1,1.06-1.07h6.67a1.069,1.069,0,0,1,1.06,1.07Zm13.46,0a1.067,1.067,0,0,1-1.06,1.06h-6.67a1.061,1.061,0,0,1-1.06-1.06v-4.02a1.063,1.063,0,0,1,1.06-1.07h6.67a1.069,1.069,0,0,1,1.06,1.07Zm13.46,0a1.067,1.067,0,0,1-1.06,1.06h-6.67a1.067,1.067,0,0,1-1.06-1.06v-4.02a1.049,1.049,0,0,1,.11-.47,1.072,1.072,0,0,1,.95-.6h6.67a1.069,1.069,0,0,1,1.06,1.07Zm13.46,0a1.067,1.067,0,0,1-1.06,1.06h-6.67a1.067,1.067,0,0,1-1.06-1.06v-4.02a1.069,1.069,0,0,1,1.06-1.07h6.67a1.069,1.069,0,0,1,1.06,1.07Z" fill="url(#linear-gradient-9)"/>
    <g id="Group_1233" data-name="Group 1233" opacity="0.27" style="mix-blend-mode: overlay;isolation: isolate">
      <rect id="Rectangle_767" data-name="Rectangle 767" width="64.888" height="45.785" rx="2.805" transform="translate(1967.8 902.955)" fill="#0a141d"/>
      <path id="Path_13687" data-name="Path 13687" d="M2045.981,902.955v45.788h-6.019a2.814,2.814,0,0,1-2.8-2.809V905.763a2.81,2.81,0,0,1,2.8-2.808Z" fill="#0a141d"/>
      <path id="Path_13688" data-name="Path 13688" d="M1963.328,905.763v40.171a2.814,2.814,0,0,1-2.8,2.809h-6.019V902.955h6.019A2.81,2.81,0,0,1,1963.328,905.763Z" fill="#0a141d"/>
    </g>
    <path id="Path_13689" data-name="Path 13689" d="M2008.549,923.171l-10.483-7.291a3.261,3.261,0,0,0-5.123,2.677v14.582a3.261,3.261,0,0,0,5.123,2.677l10.483-7.291A3.261,3.261,0,0,0,2008.549,923.171Z" fill="#fff"/>
    <g id="Group_159" data-name="Group 159" opacity="0.5" style="mix-blend-mode: overlay;isolation: isolate">
      <path id="Path_13690" data-name="Path 13690" d="M2044.02,893.66h1.96v-3.52h-35.21c-.44,1.16-.92,2.34-1.42,3.53h.96a1.061,1.061,0,0,1,1.06,1.06v4.02a1.067,1.067,0,0,1-1.06,1.06h-3.72a114.935,114.935,0,0,1-49.83,52.12,1.053,1.053,0,0,1,.77,1.01v4.03a1.067,1.067,0,0,1-1.06,1.06h-1.96v3.53h43.57c2.65-1.07,5.32-2.24,7.98-3.53h-2.42a1.061,1.061,0,0,1-1.06-1.06v-4.02a1.063,1.063,0,0,1,1.06-1.07h6.67a1.069,1.069,0,0,1,1.06,1.07v2.32c1.6-.88,3.2-1.81,4.78-2.79.32-.19.64-.39.95-.6h.01a107.946,107.946,0,0,0,28.87-26.46V899.81h-1.96a1.061,1.061,0,0,1-1.06-1.06v-4.02A1.069,1.069,0,0,1,2044.02,893.66Zm-73.03,63.31a1.067,1.067,0,0,1-1.06,1.06h-6.67a1.061,1.061,0,0,1-1.06-1.06v-4.02a1.063,1.063,0,0,1,1.06-1.07h6.67a1.069,1.069,0,0,1,1.06,1.07Zm13.46,0a1.067,1.067,0,0,1-1.06,1.06h-6.67a1.061,1.061,0,0,1-1.06-1.06v-4.02a1.063,1.063,0,0,1,1.06-1.07h6.67a1.069,1.069,0,0,1,1.06,1.07Zm13.46,0a1.067,1.067,0,0,1-1.06,1.06h-6.67a1.061,1.061,0,0,1-1.06-1.06v-4.02a1.063,1.063,0,0,1,1.06-1.07h6.67a1.069,1.069,0,0,1,1.06,1.07Zm26.92-58.22a1.067,1.067,0,0,1-1.06,1.06h-6.67a1.067,1.067,0,0,1-1.06-1.06v-4.02a1.061,1.061,0,0,1,1.06-1.06h6.67a1.061,1.061,0,0,1,1.06,1.06Zm13.46,0a1.067,1.067,0,0,1-1.06,1.06h-6.67a1.067,1.067,0,0,1-1.06-1.06v-4.02a1.061,1.061,0,0,1,1.06-1.06h6.67a1.061,1.061,0,0,1,1.06,1.06Z" fill="url(#linear-gradient-10)"/>
    </g>
  </g>
</svg>
